<svg width="16" height="16" viewBox="0 0 16 16" fill="none" xmlns="http://www.w3.org/2000/svg">
<path fill-rule="evenodd" clip-rule="evenodd" d="M1.64592 4.64608C1.69236 4.59952 1.74754 4.56258 1.80828 4.53737C1.86903 4.51216 1.93415 4.49919 1.99992 4.49919C2.06568 4.49919 2.13081 4.51216 2.19155 4.53737C2.2523 4.56258 2.30747 4.59952 2.35392 4.64608L7.99992 10.2931L13.6459 4.64608C13.7398 4.5522 13.8671 4.49945 13.9999 4.49945C14.1327 4.49945 14.26 4.5522 14.3539 4.64608C14.4478 4.73997 14.5005 4.86731 14.5005 5.00008C14.5005 5.13286 14.4478 5.2602 14.3539 5.35408L8.35392 11.3541C8.30747 11.4006 8.2523 11.4376 8.19155 11.4628C8.13081 11.488 8.06568 11.501 7.99992 11.501C7.93415 11.501 7.86903 11.488 7.80828 11.4628C7.74754 11.4376 7.69236 11.4006 7.64592 11.3541L1.64592 5.35408C1.59935 5.30764 1.56241 5.25246 1.5372 5.19172C1.512 5.13097 1.49902 5.06585 1.49902 5.00008C1.49902 4.93432 1.512 4.86919 1.5372 4.80845C1.56241 4.7477 1.59935 4.69253 1.64592 4.64608V4.64608Z" fill="black"/>
</svg>
