<svg xmlns="http://www.w3.org/2000/svg" width="14" height="14" viewBox="0 0 61.519 47.384"><path d="M99.947,2.354a27.467,27.467,0,0,1-7.96,2.872A12.716,12.716,0,0,0,82.814,1.44,12.217,12.217,0,0,0,70.267,13.449a18.86,18.86,0,0,0,.27,2.741A36.32,36.32,0,0,1,44.5,3.659a11.6,11.6,0,0,0-1.754,6,11.717,11.717,0,0,0,5.666,9.921,13.417,13.417,0,0,1-5.666-1.436v.131A12.243,12.243,0,0,0,52.864,30.027a14.024,14.024,0,0,1-3.373.392,15.344,15.344,0,0,1-2.428-.261A12.664,12.664,0,0,0,58.8,38.512,25.71,25.71,0,0,1,43.151,43.6a21.583,21.583,0,0,1-2.968-.131,36.754,36.754,0,0,0,19.292,5.352c23.2,0,35.886-18.275,35.886-34.069V13.188A27.835,27.835,0,0,0,101.7,7.053,27.041,27.041,0,0,1,94.416,8.88,12.125,12.125,0,0,0,99.947,2.354Z" transform="translate(-40.182 -1.44)"/></svg>