<?xml version="1.0" encoding="UTF-8"?> <svg xmlns="http://www.w3.org/2000/svg" width="409" height="348" viewBox="0 0 409 348" fill="none"><g opacity="0.1"><path d="M99.2901 0.290649C97.7059 0.290649 96.4216 1.56439 96.4216 3.13563C96.4216 4.70686 97.7059 5.9806 99.2901 5.9806C100.874 5.9806 102.159 4.70686 102.159 3.13563C102.159 1.56439 100.874 0.290649 99.2901 0.290649Z" fill="#162948"></path><path d="M115.545 3.13563C115.545 1.56439 116.829 0.290649 118.413 0.290649C119.997 0.290649 121.281 1.56439 121.281 3.13563C121.281 4.70686 119.997 5.9806 118.413 5.9806C116.829 5.9806 115.545 4.70686 115.545 3.13563Z" fill="#162948"></path><path d="M137.536 0.290649C135.952 0.290649 134.668 1.56439 134.668 3.13563C134.668 4.70686 135.952 5.9806 137.536 5.9806C139.12 5.9806 140.404 4.70686 140.404 3.13563C140.404 1.56439 139.12 0.290649 137.536 0.290649Z" fill="#162948"></path><path d="M153.791 3.13563C153.791 1.56439 155.075 0.290649 156.659 0.290649C158.243 0.290649 159.527 1.56439 159.527 3.13563C159.527 4.70686 158.243 5.9806 156.659 5.9806C155.075 5.9806 153.791 4.70686 153.791 3.13563Z" fill="#162948"></path><path d="M175.782 0.290649C174.198 0.290649 172.914 1.56439 172.914 3.13563C172.914 4.70686 174.198 5.9806 175.782 5.9806C177.366 5.9806 178.65 4.70686 178.65 3.13563C178.65 1.56439 177.366 0.290649 175.782 0.290649Z" fill="#162948"></path><path d="M192.037 3.13563C192.037 1.56439 193.321 0.290649 194.905 0.290649C196.489 0.290649 197.773 1.56439 197.773 3.13563C197.773 4.70686 196.489 5.9806 194.905 5.9806C193.321 5.9806 192.037 4.70686 192.037 3.13563Z" fill="#162948"></path><path d="M214.028 0.290649C212.444 0.290649 211.16 1.56439 211.16 3.13563C211.16 4.70686 212.444 5.9806 214.028 5.9806C215.612 5.9806 216.896 4.70686 216.896 3.13563C216.896 1.56439 215.612 0.290649 214.028 0.290649Z" fill="#162948"></path><path d="M230.283 3.13563C230.283 1.56439 231.567 0.290649 233.151 0.290649C234.735 0.290649 236.019 1.56439 236.019 3.13563C236.019 4.70686 234.735 5.9806 233.151 5.9806C231.567 5.9806 230.283 4.70686 230.283 3.13563Z" fill="#162948"></path><path d="M252.274 0.290649C250.69 0.290649 249.406 1.56439 249.406 3.13563C249.406 4.70686 250.69 5.9806 252.274 5.9806C253.858 5.9806 255.142 4.70686 255.142 3.13563C255.142 1.56439 253.858 0.290649 252.274 0.290649Z" fill="#162948"></path><path d="M0.806641 22.1021C0.806641 20.5309 2.09089 19.2572 3.67509 19.2572C5.2593 19.2572 6.54353 20.5309 6.54353 22.1021C6.54353 23.6734 5.2593 24.9471 3.67509 24.9471C2.09089 24.9471 0.806641 23.6734 0.806641 22.1021Z" fill="#162948"></path><path d="M22.7981 19.2572C21.2139 19.2572 19.9296 20.5309 19.9296 22.1021C19.9296 23.6734 21.2139 24.9471 22.7981 24.9471C24.3823 24.9471 25.6665 23.6734 25.6665 22.1021C25.6665 20.5309 24.3823 19.2572 22.7981 19.2572Z" fill="#162948"></path><path d="M39.0526 22.1021C39.0526 20.5309 40.3369 19.2572 41.9211 19.2572C43.5053 19.2572 44.7895 20.5309 44.7895 22.1021C44.7895 23.6734 43.5053 24.9471 41.9211 24.9471C40.3369 24.9471 39.0526 23.6734 39.0526 22.1021Z" fill="#162948"></path><path d="M61.0441 19.2572C59.4599 19.2572 58.1756 20.5309 58.1756 22.1021C58.1756 23.6734 59.4599 24.9471 61.0441 24.9471C62.6283 24.9471 63.9125 23.6734 63.9125 22.1021C63.9125 20.5309 62.6283 19.2572 61.0441 19.2572Z" fill="#162948"></path><path d="M77.2986 22.1021C77.2986 20.5309 78.5829 19.2572 80.1671 19.2572C81.7513 19.2572 83.0355 20.5309 83.0355 22.1021C83.0355 23.6734 81.7513 24.9471 80.1671 24.9471C78.5829 24.9471 77.2986 23.6734 77.2986 22.1021Z" fill="#162948"></path><path d="M99.2901 19.2572C97.7059 19.2572 96.4216 20.5309 96.4216 22.1021C96.4216 23.6734 97.7059 24.9471 99.2901 24.9471C100.874 24.9471 102.159 23.6734 102.159 22.1021C102.159 20.5309 100.874 19.2572 99.2901 19.2572Z" fill="#162948"></path><path d="M115.545 22.1021C115.545 20.5309 116.829 19.2572 118.413 19.2572C119.997 19.2572 121.281 20.5309 121.281 22.1021C121.281 23.6734 119.997 24.9471 118.413 24.9471C116.829 24.9471 115.545 23.6734 115.545 22.1021Z" fill="#162948"></path><path d="M137.536 19.2572C135.952 19.2572 134.668 20.5309 134.668 22.1021C134.668 23.6734 135.952 24.9471 137.536 24.9471C139.12 24.9471 140.404 23.6734 140.404 22.1021C140.404 20.5309 139.12 19.2572 137.536 19.2572Z" fill="#162948"></path><path d="M153.791 22.1021C153.791 20.5309 155.075 19.2572 156.659 19.2572C158.243 19.2572 159.527 20.5309 159.527 22.1021C159.527 23.6734 158.243 24.9471 156.659 24.9471C155.075 24.9471 153.791 23.6734 153.791 22.1021Z" fill="#162948"></path><path d="M175.782 19.2572C174.198 19.2572 172.914 20.5309 172.914 22.1021C172.914 23.6734 174.198 24.9471 175.782 24.9471C177.366 24.9471 178.65 23.6734 178.65 22.1021C178.65 20.5309 177.366 19.2572 175.782 19.2572Z" fill="#162948"></path><path d="M192.037 22.1021C192.037 20.5309 193.321 19.2572 194.905 19.2572C196.489 19.2572 197.773 20.5309 197.773 22.1021C197.773 23.6734 196.489 24.9471 194.905 24.9471C193.321 24.9471 192.037 23.6734 192.037 22.1021Z" fill="#162948"></path><path d="M214.028 19.2572C212.444 19.2572 211.16 20.5309 211.16 22.1021C211.16 23.6734 212.444 24.9471 214.028 24.9471C215.612 24.9471 216.896 23.6734 216.896 22.1021C216.896 20.5309 215.612 19.2572 214.028 19.2572Z" fill="#162948"></path><path d="M230.283 22.1021C230.283 20.5309 231.567 19.2572 233.151 19.2572C234.735 19.2572 236.019 20.5309 236.019 22.1021C236.019 23.6734 234.735 24.9471 233.151 24.9471C231.567 24.9471 230.283 23.6734 230.283 22.1021Z" fill="#162948"></path><path d="M252.274 19.2572C250.69 19.2572 249.406 20.5309 249.406 22.1021C249.406 23.6734 250.69 24.9471 252.274 24.9471C253.858 24.9471 255.142 23.6734 255.142 22.1021C255.142 20.5309 253.858 19.2572 252.274 19.2572Z" fill="#162948"></path><path d="M268.529 22.1021C268.529 20.5309 269.813 19.2572 271.397 19.2572C272.981 19.2572 274.265 20.5309 274.265 22.1021C274.265 23.6734 272.981 24.9471 271.397 24.9471C269.813 24.9471 268.529 23.6734 268.529 22.1021Z" fill="#162948"></path><path d="M290.52 19.2572C288.936 19.2572 287.652 20.5309 287.652 22.1021C287.652 23.6734 288.936 24.9471 290.52 24.9471C292.104 24.9471 293.388 23.6734 293.388 22.1021C293.388 20.5309 292.104 19.2572 290.52 19.2572Z" fill="#162948"></path><path d="M0.806641 41.0686C0.806641 39.4974 2.09089 38.2237 3.67509 38.2237C5.2593 38.2237 6.54353 39.4974 6.54353 41.0686C6.54353 42.6399 5.2593 43.9136 3.67509 43.9136C2.09089 43.9136 0.806641 42.6399 0.806641 41.0686Z" fill="#162948"></path><path d="M22.7981 38.2237C21.2139 38.2237 19.9296 39.4974 19.9296 41.0686C19.9296 42.6399 21.2139 43.9136 22.7981 43.9136C24.3823 43.9136 25.6665 42.6399 25.6665 41.0686C25.6665 39.4974 24.3823 38.2237 22.7981 38.2237Z" fill="#162948"></path><path d="M39.0526 41.0686C39.0526 39.4974 40.3369 38.2237 41.9211 38.2237C43.5053 38.2237 44.7895 39.4974 44.7895 41.0686C44.7895 42.6399 43.5053 43.9136 41.9211 43.9136C40.3369 43.9136 39.0526 42.6399 39.0526 41.0686Z" fill="#162948"></path><path d="M61.0441 38.2237C59.4599 38.2237 58.1756 39.4974 58.1756 41.0686C58.1756 42.6399 59.4599 43.9136 61.0441 43.9136C62.6283 43.9136 63.9125 42.6399 63.9125 41.0686C63.9125 39.4974 62.6283 38.2237 61.0441 38.2237Z" fill="#162948"></path><path d="M77.2986 41.0686C77.2986 39.4974 78.5829 38.2237 80.1671 38.2237C81.7513 38.2237 83.0355 39.4974 83.0355 41.0686C83.0355 42.6399 81.7513 43.9136 80.1671 43.9136C78.5829 43.9136 77.2986 42.6399 77.2986 41.0686Z" fill="#162948"></path><path d="M99.2901 38.2237C97.7059 38.2237 96.4216 39.4974 96.4216 41.0686C96.4216 42.6399 97.7059 43.9136 99.2901 43.9136C100.874 43.9136 102.159 42.6399 102.159 41.0686C102.159 39.4974 100.874 38.2237 99.2901 38.2237Z" fill="#162948"></path><path d="M115.545 41.0686C115.545 39.4974 116.829 38.2237 118.413 38.2237C119.997 38.2237 121.281 39.4974 121.281 41.0686C121.281 42.6399 119.997 43.9136 118.413 43.9136C116.829 43.9136 115.545 42.6399 115.545 41.0686Z" fill="#162948"></path><path d="M137.536 38.2237C135.952 38.2237 134.668 39.4974 134.668 41.0686C134.668 42.6399 135.952 43.9136 137.536 43.9136C139.12 43.9136 140.404 42.6399 140.404 41.0686C140.404 39.4974 139.12 38.2237 137.536 38.2237Z" fill="#162948"></path><path d="M153.791 41.0686C153.791 39.4974 155.075 38.2237 156.659 38.2237C158.243 38.2237 159.527 39.4974 159.527 41.0686C159.527 42.6399 158.243 43.9136 156.659 43.9136C155.075 43.9136 153.791 42.6399 153.791 41.0686Z" fill="#162948"></path><path d="M175.782 38.2237C174.198 38.2237 172.914 39.4974 172.914 41.0686C172.914 42.6399 174.198 43.9136 175.782 43.9136C177.366 43.9136 178.65 42.6399 178.65 41.0686C178.65 39.4974 177.366 38.2237 175.782 38.2237Z" fill="#162948"></path><path d="M192.037 41.0686C192.037 39.4974 193.321 38.2237 194.905 38.2237C196.489 38.2237 197.773 39.4974 197.773 41.0686C197.773 42.6399 196.489 43.9136 194.905 43.9136C193.321 43.9136 192.037 42.6399 192.037 41.0686Z" fill="#162948"></path><path d="M214.028 38.2237C212.444 38.2237 211.16 39.4974 211.16 41.0686C211.16 42.6399 212.444 43.9136 214.028 43.9136C215.612 43.9136 216.896 42.6399 216.896 41.0686C216.896 39.4974 215.612 38.2237 214.028 38.2237Z" fill="#162948"></path><path d="M230.283 41.0686C230.283 39.4974 231.567 38.2237 233.151 38.2237C234.735 38.2237 236.019 39.4974 236.019 41.0686C236.019 42.6399 234.735 43.9136 233.151 43.9136C231.567 43.9136 230.283 42.6399 230.283 41.0686Z" fill="#162948"></path><path d="M252.274 38.2237C250.69 38.2237 249.406 39.4974 249.406 41.0686C249.406 42.6399 250.69 43.9136 252.274 43.9136C253.858 43.9136 255.142 42.6399 255.142 41.0686C255.142 39.4974 253.858 38.2237 252.274 38.2237Z" fill="#162948"></path><path d="M268.529 41.0686C268.529 39.4974 269.813 38.2237 271.397 38.2237C272.981 38.2237 274.265 39.4974 274.265 41.0686C274.265 42.6399 272.981 43.9136 271.397 43.9136C269.813 43.9136 268.529 42.6399 268.529 41.0686Z" fill="#162948"></path><path d="M290.52 38.2237C288.936 38.2237 287.652 39.4974 287.652 41.0686C287.652 42.6399 288.936 43.9136 290.52 43.9136C292.104 43.9136 293.388 42.6399 293.388 41.0686C293.388 39.4974 292.104 38.2237 290.52 38.2237Z" fill="#162948"></path><path d="M0.806641 60.0351C0.806641 58.4639 2.09089 57.1902 3.67509 57.1902C5.2593 57.1902 6.54353 58.4639 6.54353 60.0351C6.54353 61.6064 5.2593 62.8801 3.67509 62.8801C2.09089 62.8801 0.806641 61.6064 0.806641 60.0351Z" fill="#162948"></path><path d="M22.7981 57.1902C21.2139 57.1902 19.9296 58.4639 19.9296 60.0351C19.9296 61.6064 21.2139 62.8801 22.7981 62.8801C24.3823 62.8801 25.6665 61.6064 25.6665 60.0351C25.6665 58.4639 24.3823 57.1902 22.7981 57.1902Z" fill="#162948"></path><path d="M39.0526 60.0351C39.0526 58.4639 40.3369 57.1902 41.9211 57.1902C43.5053 57.1902 44.7895 58.4639 44.7895 60.0351C44.7895 61.6064 43.5053 62.8801 41.9211 62.8801C40.3369 62.8801 39.0526 61.6064 39.0526 60.0351Z" fill="#162948"></path><path d="M61.0441 57.1902C59.4599 57.1902 58.1756 58.4639 58.1756 60.0351C58.1756 61.6064 59.4599 62.8801 61.0441 62.8801C62.6283 62.8801 63.9125 61.6064 63.9125 60.0351C63.9125 58.4639 62.6283 57.1902 61.0441 57.1902Z" fill="#162948"></path><path d="M77.2986 60.0351C77.2986 58.4639 78.5829 57.1902 80.1671 57.1902C81.7513 57.1902 83.0355 58.4639 83.0355 60.0351C83.0355 61.6064 81.7513 62.8801 80.1671 62.8801C78.5829 62.8801 77.2986 61.6064 77.2986 60.0351Z" fill="#162948"></path><path d="M99.2901 57.1902C97.7059 57.1902 96.4216 58.4639 96.4216 60.0351C96.4216 61.6064 97.7059 62.8801 99.2901 62.8801C100.874 62.8801 102.159 61.6064 102.159 60.0351C102.159 58.4639 100.874 57.1902 99.2901 57.1902Z" fill="#162948"></path><path d="M115.545 60.0351C115.545 58.4639 116.829 57.1902 118.413 57.1902C119.997 57.1902 121.281 58.4639 121.281 60.0351C121.281 61.6064 119.997 62.8801 118.413 62.8801C116.829 62.8801 115.545 61.6064 115.545 60.0351Z" fill="#162948"></path><path d="M137.536 57.1902C135.952 57.1902 134.668 58.4639 134.668 60.0351C134.668 61.6064 135.952 62.8801 137.536 62.8801C139.12 62.8801 140.404 61.6064 140.404 60.0351C140.404 58.4639 139.12 57.1902 137.536 57.1902Z" fill="#162948"></path><path d="M153.791 60.0351C153.791 58.4639 155.075 57.1902 156.659 57.1902C158.243 57.1902 159.527 58.4639 159.527 60.0351C159.527 61.6064 158.243 62.8801 156.659 62.8801C155.075 62.8801 153.791 61.6064 153.791 60.0351Z" fill="#162948"></path><path d="M175.782 57.1902C174.198 57.1902 172.914 58.4639 172.914 60.0351C172.914 61.6064 174.198 62.8801 175.782 62.8801C177.366 62.8801 178.65 61.6064 178.65 60.0351C178.65 58.4639 177.366 57.1902 175.782 57.1902Z" fill="#162948"></path><path d="M192.037 60.0351C192.037 58.4639 193.321 57.1902 194.905 57.1902C196.489 57.1902 197.773 58.4639 197.773 60.0351C197.773 61.6064 196.489 62.8801 194.905 62.8801C193.321 62.8801 192.037 61.6064 192.037 60.0351Z" fill="#162948"></path><path d="M214.028 57.1902C212.444 57.1902 211.16 58.4639 211.16 60.0351C211.16 61.6064 212.444 62.8801 214.028 62.8801C215.612 62.8801 216.896 61.6064 216.896 60.0351C216.896 58.4639 215.612 57.1902 214.028 57.1902Z" fill="#162948"></path><path d="M230.283 60.0351C230.283 58.4639 231.567 57.1902 233.151 57.1902C234.735 57.1902 236.019 58.4639 236.019 60.0351C236.019 61.6064 234.735 62.8801 233.151 62.8801C231.567 62.8801 230.283 61.6064 230.283 60.0351Z" fill="#162948"></path><path d="M252.274 57.1902C250.69 57.1902 249.406 58.4639 249.406 60.0351C249.406 61.6064 250.69 62.8801 252.274 62.8801C253.858 62.8801 255.142 61.6064 255.142 60.0351C255.142 58.4639 253.858 57.1902 252.274 57.1902Z" fill="#162948"></path><path d="M268.529 60.0351C268.529 58.4639 269.813 57.1902 271.397 57.1902C272.981 57.1902 274.265 58.4639 274.265 60.0351C274.265 61.6064 272.981 62.8801 271.397 62.8801C269.813 62.8801 268.529 61.6064 268.529 60.0351Z" fill="#162948"></path><path d="M290.52 57.1902C288.936 57.1902 287.652 58.4639 287.652 60.0351C287.652 61.6064 288.936 62.8801 290.52 62.8801C292.104 62.8801 293.388 61.6064 293.388 60.0351C293.388 58.4639 292.104 57.1902 290.52 57.1902Z" fill="#162948"></path><path d="M306.775 60.0351C306.775 58.4639 308.059 57.1902 309.643 57.1902C311.227 57.1902 312.511 58.4639 312.511 60.0351C312.511 61.6064 311.227 62.8801 309.643 62.8801C308.059 62.8801 306.775 61.6064 306.775 60.0351Z" fill="#162948"></path><path d="M328.766 57.1902C327.182 57.1902 325.898 58.4639 325.898 60.0351C325.898 61.6064 327.182 62.8801 328.766 62.8801C330.35 62.8801 331.634 61.6064 331.634 60.0351C331.634 58.4639 330.35 57.1902 328.766 57.1902Z" fill="#162948"></path><path d="M345.021 60.0351C345.021 58.4639 346.305 57.1902 347.889 57.1902C349.473 57.1902 350.757 58.4639 350.757 60.0351C350.757 61.6064 349.473 62.8801 347.889 62.8801C346.305 62.8801 345.021 61.6064 345.021 60.0351Z" fill="#162948"></path><path d="M0.806641 79.0016C0.806641 77.4304 2.09089 76.1567 3.67509 76.1567C5.2593 76.1567 6.54353 77.4304 6.54353 79.0016C6.54353 80.5729 5.2593 81.8466 3.67509 81.8466C2.09089 81.8466 0.806641 80.5729 0.806641 79.0016Z" fill="#162948"></path><path d="M22.7981 76.1567C21.2139 76.1567 19.9296 77.4304 19.9296 79.0016C19.9296 80.5729 21.2139 81.8466 22.7981 81.8466C24.3823 81.8466 25.6665 80.5729 25.6665 79.0016C25.6665 77.4304 24.3823 76.1567 22.7981 76.1567Z" fill="#162948"></path><path d="M39.0526 79.0016C39.0526 77.4304 40.3369 76.1567 41.9211 76.1567C43.5053 76.1567 44.7895 77.4304 44.7895 79.0016C44.7895 80.5729 43.5053 81.8466 41.9211 81.8466C40.3369 81.8466 39.0526 80.5729 39.0526 79.0016Z" fill="#162948"></path><path d="M61.0441 76.1567C59.4599 76.1567 58.1756 77.4304 58.1756 79.0016C58.1756 80.5729 59.4599 81.8466 61.0441 81.8466C62.6283 81.8466 63.9125 80.5729 63.9125 79.0016C63.9125 77.4304 62.6283 76.1567 61.0441 76.1567Z" fill="#162948"></path><path d="M77.2986 79.0016C77.2986 77.4304 78.5829 76.1567 80.1671 76.1567C81.7513 76.1567 83.0355 77.4304 83.0355 79.0016C83.0355 80.5729 81.7513 81.8466 80.1671 81.8466C78.5829 81.8466 77.2986 80.5729 77.2986 79.0016Z" fill="#162948"></path><path d="M99.2901 76.1567C97.7059 76.1567 96.4216 77.4304 96.4216 79.0016C96.4216 80.5729 97.7059 81.8466 99.2901 81.8466C100.874 81.8466 102.159 80.5729 102.159 79.0016C102.159 77.4304 100.874 76.1567 99.2901 76.1567Z" fill="#162948"></path><path d="M115.545 79.0016C115.545 77.4304 116.829 76.1567 118.413 76.1567C119.997 76.1567 121.281 77.4304 121.281 79.0016C121.281 80.5729 119.997 81.8466 118.413 81.8466C116.829 81.8466 115.545 80.5729 115.545 79.0016Z" fill="#162948"></path><path d="M137.536 76.1567C135.952 76.1567 134.668 77.4304 134.668 79.0016C134.668 80.5729 135.952 81.8466 137.536 81.8466C139.12 81.8466 140.404 80.5729 140.404 79.0016C140.404 77.4304 139.12 76.1567 137.536 76.1567Z" fill="#162948"></path><path d="M153.791 79.0016C153.791 77.4304 155.075 76.1567 156.659 76.1567C158.243 76.1567 159.527 77.4304 159.527 79.0016C159.527 80.5729 158.243 81.8466 156.659 81.8466C155.075 81.8466 153.791 80.5729 153.791 79.0016Z" fill="#162948"></path><path d="M175.782 76.1567C174.198 76.1567 172.914 77.4304 172.914 79.0016C172.914 80.5729 174.198 81.8466 175.782 81.8466C177.366 81.8466 178.65 80.5729 178.65 79.0016C178.65 77.4304 177.366 76.1567 175.782 76.1567Z" fill="#162948"></path><path d="M192.037 79.0016C192.037 77.4304 193.321 76.1567 194.905 76.1567C196.489 76.1567 197.773 77.4304 197.773 79.0016C197.773 80.5729 196.489 81.8466 194.905 81.8466C193.321 81.8466 192.037 80.5729 192.037 79.0016Z" fill="#162948"></path><path d="M214.028 76.1567C212.444 76.1567 211.16 77.4304 211.16 79.0016C211.16 80.5729 212.444 81.8466 214.028 81.8466C215.612 81.8466 216.896 80.5729 216.896 79.0016C216.896 77.4304 215.612 76.1567 214.028 76.1567Z" fill="#162948"></path><path d="M230.283 79.0016C230.283 77.4304 231.567 76.1567 233.151 76.1567C234.735 76.1567 236.019 77.4304 236.019 79.0016C236.019 80.5729 234.735 81.8466 233.151 81.8466C231.567 81.8466 230.283 80.5729 230.283 79.0016Z" fill="#162948"></path><path d="M252.274 76.1567C250.69 76.1567 249.406 77.4304 249.406 79.0016C249.406 80.5729 250.69 81.8466 252.274 81.8466C253.858 81.8466 255.142 80.5729 255.142 79.0016C255.142 77.4304 253.858 76.1567 252.274 76.1567Z" fill="#162948"></path><path d="M268.529 79.0016C268.529 77.4304 269.813 76.1567 271.397 76.1567C272.981 76.1567 274.265 77.4304 274.265 79.0016C274.265 80.5729 272.981 81.8466 271.397 81.8466C269.813 81.8466 268.529 80.5729 268.529 79.0016Z" fill="#162948"></path><path d="M290.52 76.1567C288.936 76.1567 287.652 77.4304 287.652 79.0016C287.652 80.5729 288.936 81.8466 290.52 81.8466C292.104 81.8466 293.388 80.5729 293.388 79.0016C293.388 77.4304 292.104 76.1567 290.52 76.1567Z" fill="#162948"></path><path d="M306.775 79.0016C306.775 77.4304 308.059 76.1567 309.643 76.1567C311.227 76.1567 312.511 77.4304 312.511 79.0016C312.511 80.5729 311.227 81.8466 309.643 81.8466C308.059 81.8466 306.775 80.5729 306.775 79.0016Z" fill="#162948"></path><path d="M328.766 76.1567C327.182 76.1567 325.898 77.4304 325.898 79.0016C325.898 80.5729 327.182 81.8466 328.766 81.8466C330.35 81.8466 331.634 80.5729 331.634 79.0016C331.634 77.4304 330.35 76.1567 328.766 76.1567Z" fill="#162948"></path><path d="M345.021 79.0016C345.021 77.4304 346.305 76.1567 347.889 76.1567C349.473 76.1567 350.757 77.4304 350.757 79.0016C350.757 80.5729 349.473 81.8466 347.889 81.8466C346.305 81.8466 345.021 80.5729 345.021 79.0016Z" fill="#162948"></path><path d="M0.806641 97.9681C0.806641 96.3969 2.09089 95.1232 3.67509 95.1232C5.2593 95.1232 6.54353 96.3969 6.54353 97.9681C6.54353 99.5394 5.2593 100.813 3.67509 100.813C2.09089 100.813 0.806641 99.5394 0.806641 97.9681Z" fill="#162948"></path><path d="M22.7981 95.1232C21.2139 95.1232 19.9296 96.3969 19.9296 97.9681C19.9296 99.5394 21.2139 100.813 22.7981 100.813C24.3823 100.813 25.6665 99.5394 25.6665 97.9681C25.6665 96.3969 24.3823 95.1232 22.7981 95.1232Z" fill="#162948"></path><path d="M39.0526 97.9681C39.0526 96.3969 40.3369 95.1232 41.9211 95.1232C43.5053 95.1232 44.7895 96.3969 44.7895 97.9681C44.7895 99.5394 43.5053 100.813 41.9211 100.813C40.3369 100.813 39.0526 99.5394 39.0526 97.9681Z" fill="#162948"></path><path d="M61.0441 95.1232C59.4599 95.1232 58.1756 96.3969 58.1756 97.9681C58.1756 99.5394 59.4599 100.813 61.0441 100.813C62.6283 100.813 63.9125 99.5394 63.9125 97.9681C63.9125 96.3969 62.6283 95.1232 61.0441 95.1232Z" fill="#162948"></path><path d="M77.2986 97.9681C77.2986 96.3969 78.5829 95.1232 80.1671 95.1232C81.7513 95.1232 83.0355 96.3969 83.0355 97.9681C83.0355 99.5394 81.7513 100.813 80.1671 100.813C78.5829 100.813 77.2986 99.5394 77.2986 97.9681Z" fill="#162948"></path><path d="M99.2901 95.1232C97.7059 95.1232 96.4216 96.3969 96.4216 97.9681C96.4216 99.5394 97.7059 100.813 99.2901 100.813C100.874 100.813 102.159 99.5394 102.159 97.9681C102.159 96.3969 100.874 95.1232 99.2901 95.1232Z" fill="#162948"></path><path d="M115.545 97.9681C115.545 96.3969 116.829 95.1232 118.413 95.1232C119.997 95.1232 121.281 96.3969 121.281 97.9681C121.281 99.5394 119.997 100.813 118.413 100.813C116.829 100.813 115.545 99.5394 115.545 97.9681Z" fill="#162948"></path><path d="M137.536 95.1232C135.952 95.1232 134.668 96.3969 134.668 97.9681C134.668 99.5394 135.952 100.813 137.536 100.813C139.12 100.813 140.404 99.5394 140.404 97.9681C140.404 96.3969 139.12 95.1232 137.536 95.1232Z" fill="#162948"></path><path d="M153.791 97.9681C153.791 96.3969 155.075 95.1232 156.659 95.1232C158.243 95.1232 159.527 96.3969 159.527 97.9681C159.527 99.5394 158.243 100.813 156.659 100.813C155.075 100.813 153.791 99.5394 153.791 97.9681Z" fill="#162948"></path><path d="M175.782 95.1232C174.198 95.1232 172.914 96.3969 172.914 97.9681C172.914 99.5394 174.198 100.813 175.782 100.813C177.366 100.813 178.65 99.5394 178.65 97.9681C178.65 96.3969 177.366 95.1232 175.782 95.1232Z" fill="#162948"></path><path d="M192.037 97.9681C192.037 96.3969 193.321 95.1232 194.905 95.1232C196.489 95.1232 197.773 96.3969 197.773 97.9681C197.773 99.5394 196.489 100.813 194.905 100.813C193.321 100.813 192.037 99.5394 192.037 97.9681Z" fill="#162948"></path><path d="M214.028 95.1232C212.444 95.1232 211.16 96.3969 211.16 97.9681C211.16 99.5394 212.444 100.813 214.028 100.813C215.612 100.813 216.896 99.5394 216.896 97.9681C216.896 96.3969 215.612 95.1232 214.028 95.1232Z" fill="#162948"></path><path d="M230.283 97.9681C230.283 96.3969 231.567 95.1232 233.151 95.1232C234.735 95.1232 236.019 96.3969 236.019 97.9681C236.019 99.5394 234.735 100.813 233.151 100.813C231.567 100.813 230.283 99.5394 230.283 97.9681Z" fill="#162948"></path><path d="M252.274 95.1232C250.69 95.1232 249.406 96.3969 249.406 97.9681C249.406 99.5394 250.69 100.813 252.274 100.813C253.858 100.813 255.142 99.5394 255.142 97.9681C255.142 96.3969 253.858 95.1232 252.274 95.1232Z" fill="#162948"></path><path d="M268.529 97.9681C268.529 96.3969 269.813 95.1232 271.397 95.1232C272.981 95.1232 274.265 96.3969 274.265 97.9681C274.265 99.5394 272.981 100.813 271.397 100.813C269.813 100.813 268.529 99.5394 268.529 97.9681Z" fill="#162948"></path><path d="M290.52 95.1232C288.936 95.1232 287.652 96.3969 287.652 97.9681C287.652 99.5394 288.936 100.813 290.52 100.813C292.104 100.813 293.388 99.5394 293.388 97.9681C293.388 96.3969 292.104 95.1232 290.52 95.1232Z" fill="#162948"></path><path d="M306.775 97.9681C306.775 96.3969 308.059 95.1232 309.643 95.1232C311.227 95.1232 312.511 96.3969 312.511 97.9681C312.511 99.5394 311.227 100.813 309.643 100.813C308.059 100.813 306.775 99.5394 306.775 97.9681Z" fill="#162948"></path><path d="M328.766 95.1232C327.182 95.1232 325.898 96.3969 325.898 97.9681C325.898 99.5394 327.182 100.813 328.766 100.813C330.35 100.813 331.634 99.5394 331.634 97.9681C331.634 96.3969 330.35 95.1232 328.766 95.1232Z" fill="#162948"></path><path d="M345.021 97.9681C345.021 96.3969 346.305 95.1232 347.889 95.1232C349.473 95.1232 350.757 96.3969 350.757 97.9681C350.757 99.5394 349.473 100.813 347.889 100.813C346.305 100.813 345.021 99.5394 345.021 97.9681Z" fill="#162948"></path><path d="M367.012 95.1232C365.428 95.1232 364.143 96.3969 364.143 97.9681C364.143 99.5394 365.428 100.813 367.012 100.813C368.596 100.813 369.88 99.5394 369.88 97.9681C369.88 96.3969 368.596 95.1232 367.012 95.1232Z" fill="#162948"></path><path d="M383.266 97.9681C383.266 96.3969 384.551 95.1232 386.135 95.1232C387.719 95.1232 389.003 96.3969 389.003 97.9681C389.003 99.5394 387.719 100.813 386.135 100.813C384.551 100.813 383.266 99.5394 383.266 97.9681Z" fill="#162948"></path><path d="M0.806641 116.935C0.806641 115.363 2.09089 114.09 3.67509 114.09C5.2593 114.09 6.54353 115.363 6.54353 116.935C6.54353 118.506 5.2593 119.78 3.67509 119.78C2.09089 119.78 0.806641 118.506 0.806641 116.935Z" fill="#162948"></path><path d="M22.7981 114.09C21.2139 114.09 19.9296 115.363 19.9296 116.935C19.9296 118.506 21.2139 119.78 22.7981 119.78C24.3823 119.78 25.6665 118.506 25.6665 116.935C25.6665 115.363 24.3823 114.09 22.7981 114.09Z" fill="#162948"></path><path d="M39.0526 116.935C39.0526 115.363 40.3369 114.09 41.9211 114.09C43.5053 114.09 44.7895 115.363 44.7895 116.935C44.7895 118.506 43.5053 119.78 41.9211 119.78C40.3369 119.78 39.0526 118.506 39.0526 116.935Z" fill="#162948"></path><path d="M61.0441 114.09C59.4599 114.09 58.1756 115.363 58.1756 116.935C58.1756 118.506 59.4599 119.78 61.0441 119.78C62.6283 119.78 63.9125 118.506 63.9125 116.935C63.9125 115.363 62.6283 114.09 61.0441 114.09Z" fill="#162948"></path><path d="M77.2986 116.935C77.2986 115.363 78.5829 114.09 80.1671 114.09C81.7513 114.09 83.0355 115.363 83.0355 116.935C83.0355 118.506 81.7513 119.78 80.1671 119.78C78.5829 119.78 77.2986 118.506 77.2986 116.935Z" fill="#162948"></path><path d="M99.2901 114.09C97.7059 114.09 96.4216 115.363 96.4216 116.935C96.4216 118.506 97.7059 119.78 99.2901 119.78C100.874 119.78 102.159 118.506 102.159 116.935C102.159 115.363 100.874 114.09 99.2901 114.09Z" fill="#162948"></path><path d="M115.545 116.935C115.545 115.363 116.829 114.09 118.413 114.09C119.997 114.09 121.281 115.363 121.281 116.935C121.281 118.506 119.997 119.78 118.413 119.78C116.829 119.78 115.545 118.506 115.545 116.935Z" fill="#162948"></path><path d="M137.536 114.09C135.952 114.09 134.668 115.363 134.668 116.935C134.668 118.506 135.952 119.78 137.536 119.78C139.12 119.78 140.404 118.506 140.404 116.935C140.404 115.363 139.12 114.09 137.536 114.09Z" fill="#162948"></path><path d="M153.791 116.935C153.791 115.363 155.075 114.09 156.659 114.09C158.243 114.09 159.527 115.363 159.527 116.935C159.527 118.506 158.243 119.78 156.659 119.78C155.075 119.78 153.791 118.506 153.791 116.935Z" fill="#162948"></path><path d="M175.782 114.09C174.198 114.09 172.914 115.363 172.914 116.935C172.914 118.506 174.198 119.78 175.782 119.78C177.366 119.78 178.65 118.506 178.65 116.935C178.65 115.363 177.366 114.09 175.782 114.09Z" fill="#162948"></path><path d="M192.037 116.935C192.037 115.363 193.321 114.09 194.905 114.09C196.489 114.09 197.773 115.363 197.773 116.935C197.773 118.506 196.489 119.78 194.905 119.78C193.321 119.78 192.037 118.506 192.037 116.935Z" fill="#162948"></path><path d="M214.028 114.09C212.444 114.09 211.16 115.363 211.16 116.935C211.16 118.506 212.444 119.78 214.028 119.78C215.612 119.78 216.896 118.506 216.896 116.935C216.896 115.363 215.612 114.09 214.028 114.09Z" fill="#162948"></path><path d="M230.283 116.935C230.283 115.363 231.567 114.09 233.151 114.09C234.735 114.09 236.019 115.363 236.019 116.935C236.019 118.506 234.735 119.78 233.151 119.78C231.567 119.78 230.283 118.506 230.283 116.935Z" fill="#162948"></path><path d="M252.274 114.09C250.69 114.09 249.406 115.363 249.406 116.935C249.406 118.506 250.69 119.78 252.274 119.78C253.858 119.78 255.142 118.506 255.142 116.935C255.142 115.363 253.858 114.09 252.274 114.09Z" fill="#162948"></path><path d="M268.529 116.935C268.529 115.363 269.813 114.09 271.397 114.09C272.981 114.09 274.265 115.363 274.265 116.935C274.265 118.506 272.981 119.78 271.397 119.78C269.813 119.78 268.529 118.506 268.529 116.935Z" fill="#162948"></path><path d="M290.52 114.09C288.936 114.09 287.652 115.363 287.652 116.935C287.652 118.506 288.936 119.78 290.52 119.78C292.104 119.78 293.388 118.506 293.388 116.935C293.388 115.363 292.104 114.09 290.52 114.09Z" fill="#162948"></path><path d="M306.775 116.935C306.775 115.363 308.059 114.09 309.643 114.09C311.227 114.09 312.511 115.363 312.511 116.935C312.511 118.506 311.227 119.78 309.643 119.78C308.059 119.78 306.775 118.506 306.775 116.935Z" fill="#162948"></path><path d="M328.766 114.09C327.182 114.09 325.898 115.363 325.898 116.935C325.898 118.506 327.182 119.78 328.766 119.78C330.35 119.78 331.634 118.506 331.634 116.935C331.634 115.363 330.35 114.09 328.766 114.09Z" fill="#162948"></path><path d="M345.021 116.935C345.021 115.363 346.305 114.09 347.889 114.09C349.473 114.09 350.757 115.363 350.757 116.935C350.757 118.506 349.473 119.78 347.889 119.78C346.305 119.78 345.021 118.506 345.021 116.935Z" fill="#162948"></path><path d="M367.012 114.09C365.428 114.09 364.143 115.363 364.143 116.935C364.143 118.506 365.428 119.78 367.012 119.78C368.596 119.78 369.88 118.506 369.88 116.935C369.88 115.363 368.596 114.09 367.012 114.09Z" fill="#162948"></path><path d="M383.266 116.935C383.266 115.363 384.551 114.09 386.135 114.09C387.719 114.09 389.003 115.363 389.003 116.935C389.003 118.506 387.719 119.78 386.135 119.78C384.551 119.78 383.266 118.506 383.266 116.935Z" fill="#162948"></path><path d="M405.258 114.09C403.674 114.09 402.389 115.363 402.389 116.935C402.389 118.506 403.674 119.78 405.258 119.78C406.842 119.78 408.126 118.506 408.126 116.935C408.126 115.363 406.842 114.09 405.258 114.09Z" fill="#162948"></path><path d="M22.7981 133.056C21.2139 133.056 19.9296 134.33 19.9296 135.901C19.9296 137.472 21.2139 138.746 22.7981 138.746C24.3823 138.746 25.6665 137.472 25.6665 135.901C25.6665 134.33 24.3823 133.056 22.7981 133.056Z" fill="#162948"></path><path d="M39.0526 135.901C39.0526 134.33 40.3369 133.056 41.9211 133.056C43.5053 133.056 44.7895 134.33 44.7895 135.901C44.7895 137.472 43.5053 138.746 41.9211 138.746C40.3369 138.746 39.0526 137.472 39.0526 135.901Z" fill="#162948"></path><path d="M61.0441 133.056C59.4599 133.056 58.1756 134.33 58.1756 135.901C58.1756 137.472 59.4599 138.746 61.0441 138.746C62.6283 138.746 63.9125 137.472 63.9125 135.901C63.9125 134.33 62.6283 133.056 61.0441 133.056Z" fill="#162948"></path><path d="M77.2986 135.901C77.2986 134.33 78.5829 133.056 80.1671 133.056C81.7513 133.056 83.0355 134.33 83.0355 135.901C83.0355 137.472 81.7513 138.746 80.1671 138.746C78.5829 138.746 77.2986 137.472 77.2986 135.901Z" fill="#162948"></path><path d="M99.2901 133.056C97.7059 133.056 96.4216 134.33 96.4216 135.901C96.4216 137.472 97.7059 138.746 99.2901 138.746C100.874 138.746 102.159 137.472 102.159 135.901C102.159 134.33 100.874 133.056 99.2901 133.056Z" fill="#162948"></path><path d="M115.545 135.901C115.545 134.33 116.829 133.056 118.413 133.056C119.997 133.056 121.281 134.33 121.281 135.901C121.281 137.472 119.997 138.746 118.413 138.746C116.829 138.746 115.545 137.472 115.545 135.901Z" fill="#162948"></path><path d="M137.536 133.056C135.952 133.056 134.668 134.33 134.668 135.901C134.668 137.472 135.952 138.746 137.536 138.746C139.12 138.746 140.404 137.472 140.404 135.901C140.404 134.33 139.12 133.056 137.536 133.056Z" fill="#162948"></path><path d="M153.791 135.901C153.791 134.33 155.075 133.056 156.659 133.056C158.243 133.056 159.527 134.33 159.527 135.901C159.527 137.472 158.243 138.746 156.659 138.746C155.075 138.746 153.791 137.472 153.791 135.901Z" fill="#162948"></path><path d="M175.782 133.056C174.198 133.056 172.914 134.33 172.914 135.901C172.914 137.472 174.198 138.746 175.782 138.746C177.366 138.746 178.65 137.472 178.65 135.901C178.65 134.33 177.366 133.056 175.782 133.056Z" fill="#162948"></path><path d="M192.037 135.901C192.037 134.33 193.321 133.056 194.905 133.056C196.489 133.056 197.773 134.33 197.773 135.901C197.773 137.472 196.489 138.746 194.905 138.746C193.321 138.746 192.037 137.472 192.037 135.901Z" fill="#162948"></path><path d="M214.028 133.056C212.444 133.056 211.16 134.33 211.16 135.901C211.16 137.472 212.444 138.746 214.028 138.746C215.612 138.746 216.896 137.472 216.896 135.901C216.896 134.33 215.612 133.056 214.028 133.056Z" fill="#162948"></path><path d="M230.283 135.901C230.283 134.33 231.567 133.056 233.151 133.056C234.735 133.056 236.019 134.33 236.019 135.901C236.019 137.472 234.735 138.746 233.151 138.746C231.567 138.746 230.283 137.472 230.283 135.901Z" fill="#162948"></path><path d="M252.274 133.056C250.69 133.056 249.406 134.33 249.406 135.901C249.406 137.472 250.69 138.746 252.274 138.746C253.858 138.746 255.142 137.472 255.142 135.901C255.142 134.33 253.858 133.056 252.274 133.056Z" fill="#162948"></path><path d="M268.529 135.901C268.529 134.33 269.813 133.056 271.397 133.056C272.981 133.056 274.265 134.33 274.265 135.901C274.265 137.472 272.981 138.746 271.397 138.746C269.813 138.746 268.529 137.472 268.529 135.901Z" fill="#162948"></path><path d="M290.52 133.056C288.936 133.056 287.652 134.33 287.652 135.901C287.652 137.472 288.936 138.746 290.52 138.746C292.104 138.746 293.388 137.472 293.388 135.901C293.388 134.33 292.104 133.056 290.52 133.056Z" fill="#162948"></path><path d="M306.775 135.901C306.775 134.33 308.059 133.056 309.643 133.056C311.227 133.056 312.511 134.33 312.511 135.901C312.511 137.472 311.227 138.746 309.643 138.746C308.059 138.746 306.775 137.472 306.775 135.901Z" fill="#162948"></path><path d="M328.766 133.056C327.182 133.056 325.898 134.33 325.898 135.901C325.898 137.472 327.182 138.746 328.766 138.746C330.35 138.746 331.634 137.472 331.634 135.901C331.634 134.33 330.35 133.056 328.766 133.056Z" fill="#162948"></path><path d="M345.021 135.901C345.021 134.33 346.305 133.056 347.889 133.056C349.473 133.056 350.757 134.33 350.757 135.901C350.757 137.472 349.473 138.746 347.889 138.746C346.305 138.746 345.021 137.472 345.021 135.901Z" fill="#162948"></path><path d="M367.012 133.056C365.428 133.056 364.143 134.33 364.143 135.901C364.143 137.472 365.428 138.746 367.012 138.746C368.596 138.746 369.88 137.472 369.88 135.901C369.88 134.33 368.596 133.056 367.012 133.056Z" fill="#162948"></path><path d="M383.266 135.901C383.266 134.33 384.551 133.056 386.135 133.056C387.719 133.056 389.003 134.33 389.003 135.901C389.003 137.472 387.719 138.746 386.135 138.746C384.551 138.746 383.266 137.472 383.266 135.901Z" fill="#162948"></path><path d="M405.258 133.056C403.674 133.056 402.389 134.33 402.389 135.901C402.389 137.472 403.674 138.746 405.258 138.746C406.842 138.746 408.126 137.472 408.126 135.901C408.126 134.33 406.842 133.056 405.258 133.056Z" fill="#162948"></path><path d="M22.7981 152.023C21.2139 152.023 19.9296 153.296 19.9296 154.868C19.9296 156.439 21.2139 157.713 22.7981 157.713C24.3823 157.713 25.6665 156.439 25.6665 154.868C25.6665 153.296 24.3823 152.023 22.7981 152.023Z" fill="#162948"></path><path d="M39.0526 154.868C39.0526 153.296 40.3369 152.023 41.9211 152.023C43.5053 152.023 44.7895 153.296 44.7895 154.868C44.7895 156.439 43.5053 157.713 41.9211 157.713C40.3369 157.713 39.0526 156.439 39.0526 154.868Z" fill="#162948"></path><path d="M61.0441 152.023C59.4599 152.023 58.1756 153.296 58.1756 154.868C58.1756 156.439 59.4599 157.713 61.0441 157.713C62.6283 157.713 63.9125 156.439 63.9125 154.868C63.9125 153.296 62.6283 152.023 61.0441 152.023Z" fill="#162948"></path><path d="M77.2986 154.868C77.2986 153.296 78.5829 152.023 80.1671 152.023C81.7513 152.023 83.0355 153.296 83.0355 154.868C83.0355 156.439 81.7513 157.713 80.1671 157.713C78.5829 157.713 77.2986 156.439 77.2986 154.868Z" fill="#162948"></path><path d="M99.2901 152.023C97.7059 152.023 96.4216 153.296 96.4216 154.868C96.4216 156.439 97.7059 157.713 99.2901 157.713C100.874 157.713 102.159 156.439 102.159 154.868C102.159 153.296 100.874 152.023 99.2901 152.023Z" fill="#162948"></path><path d="M115.545 154.868C115.545 153.296 116.829 152.023 118.413 152.023C119.997 152.023 121.281 153.296 121.281 154.868C121.281 156.439 119.997 157.713 118.413 157.713C116.829 157.713 115.545 156.439 115.545 154.868Z" fill="#162948"></path><path d="M137.536 152.023C135.952 152.023 134.668 153.296 134.668 154.868C134.668 156.439 135.952 157.713 137.536 157.713C139.12 157.713 140.404 156.439 140.404 154.868C140.404 153.296 139.12 152.023 137.536 152.023Z" fill="#162948"></path><path d="M153.791 154.868C153.791 153.296 155.075 152.023 156.659 152.023C158.243 152.023 159.527 153.296 159.527 154.868C159.527 156.439 158.243 157.713 156.659 157.713C155.075 157.713 153.791 156.439 153.791 154.868Z" fill="#162948"></path><path d="M175.782 152.023C174.198 152.023 172.914 153.296 172.914 154.868C172.914 156.439 174.198 157.713 175.782 157.713C177.366 157.713 178.65 156.439 178.65 154.868C178.65 153.296 177.366 152.023 175.782 152.023Z" fill="#162948"></path><path d="M192.037 154.868C192.037 153.296 193.321 152.023 194.905 152.023C196.489 152.023 197.773 153.296 197.773 154.868C197.773 156.439 196.489 157.713 194.905 157.713C193.321 157.713 192.037 156.439 192.037 154.868Z" fill="#162948"></path><path d="M214.028 152.023C212.444 152.023 211.16 153.296 211.16 154.868C211.16 156.439 212.444 157.713 214.028 157.713C215.612 157.713 216.896 156.439 216.896 154.868C216.896 153.296 215.612 152.023 214.028 152.023Z" fill="#162948"></path><path d="M230.283 154.868C230.283 153.296 231.567 152.023 233.151 152.023C234.735 152.023 236.019 153.296 236.019 154.868C236.019 156.439 234.735 157.713 233.151 157.713C231.567 157.713 230.283 156.439 230.283 154.868Z" fill="#162948"></path><path d="M252.274 152.023C250.69 152.023 249.406 153.296 249.406 154.868C249.406 156.439 250.69 157.713 252.274 157.713C253.858 157.713 255.142 156.439 255.142 154.868C255.142 153.296 253.858 152.023 252.274 152.023Z" fill="#162948"></path><path d="M268.529 154.868C268.529 153.296 269.813 152.023 271.397 152.023C272.981 152.023 274.265 153.296 274.265 154.868C274.265 156.439 272.981 157.713 271.397 157.713C269.813 157.713 268.529 156.439 268.529 154.868Z" fill="#162948"></path><path d="M290.52 152.023C288.936 152.023 287.652 153.296 287.652 154.868C287.652 156.439 288.936 157.713 290.52 157.713C292.104 157.713 293.388 156.439 293.388 154.868C293.388 153.296 292.104 152.023 290.52 152.023Z" fill="#162948"></path><path d="M306.775 154.868C306.775 153.296 308.059 152.023 309.643 152.023C311.227 152.023 312.511 153.296 312.511 154.868C312.511 156.439 311.227 157.713 309.643 157.713C308.059 157.713 306.775 156.439 306.775 154.868Z" fill="#162948"></path><path d="M328.766 152.023C327.182 152.023 325.898 153.296 325.898 154.868C325.898 156.439 327.182 157.713 328.766 157.713C330.35 157.713 331.634 156.439 331.634 154.868C331.634 153.296 330.35 152.023 328.766 152.023Z" fill="#162948"></path><path d="M345.021 154.868C345.021 153.296 346.305 152.023 347.889 152.023C349.473 152.023 350.757 153.296 350.757 154.868C350.757 156.439 349.473 157.713 347.889 157.713C346.305 157.713 345.021 156.439 345.021 154.868Z" fill="#162948"></path><path d="M367.012 152.023C365.428 152.023 364.143 153.296 364.143 154.868C364.143 156.439 365.428 157.713 367.012 157.713C368.596 157.713 369.88 156.439 369.88 154.868C369.88 153.296 368.596 152.023 367.012 152.023Z" fill="#162948"></path><path d="M383.266 154.868C383.266 153.296 384.551 152.023 386.135 152.023C387.719 152.023 389.003 153.296 389.003 154.868C389.003 156.439 387.719 157.713 386.135 157.713C384.551 157.713 383.266 156.439 383.266 154.868Z" fill="#162948"></path><path d="M405.258 152.023C403.674 152.023 402.389 153.296 402.389 154.868C402.389 156.439 403.674 157.713 405.258 157.713C406.842 157.713 408.126 156.439 408.126 154.868C408.126 153.296 406.842 152.023 405.258 152.023Z" fill="#162948"></path><path d="M39.0526 173.834C39.0526 172.263 40.3369 170.989 41.9211 170.989C43.5053 170.989 44.7895 172.263 44.7895 173.834C44.7895 175.405 43.5053 176.679 41.9211 176.679C40.3369 176.679 39.0526 175.405 39.0526 173.834Z" fill="#162948"></path><path d="M61.0441 170.989C59.4599 170.989 58.1756 172.263 58.1756 173.834C58.1756 175.405 59.4599 176.679 61.0441 176.679C62.6283 176.679 63.9125 175.405 63.9125 173.834C63.9125 172.263 62.6283 170.989 61.0441 170.989Z" fill="#162948"></path><path d="M77.2986 173.834C77.2986 172.263 78.5829 170.989 80.1671 170.989C81.7513 170.989 83.0355 172.263 83.0355 173.834C83.0355 175.405 81.7513 176.679 80.1671 176.679C78.5829 176.679 77.2986 175.405 77.2986 173.834Z" fill="#162948"></path><path d="M99.2901 170.989C97.7059 170.989 96.4216 172.263 96.4216 173.834C96.4216 175.405 97.7059 176.679 99.2901 176.679C100.874 176.679 102.159 175.405 102.159 173.834C102.159 172.263 100.874 170.989 99.2901 170.989Z" fill="#162948"></path><path d="M115.545 173.834C115.545 172.263 116.829 170.989 118.413 170.989C119.997 170.989 121.281 172.263 121.281 173.834C121.281 175.405 119.997 176.679 118.413 176.679C116.829 176.679 115.545 175.405 115.545 173.834Z" fill="#162948"></path><path d="M137.536 170.989C135.952 170.989 134.668 172.263 134.668 173.834C134.668 175.405 135.952 176.679 137.536 176.679C139.12 176.679 140.404 175.405 140.404 173.834C140.404 172.263 139.12 170.989 137.536 170.989Z" fill="#162948"></path><path d="M153.791 173.834C153.791 172.263 155.075 170.989 156.659 170.989C158.243 170.989 159.527 172.263 159.527 173.834C159.527 175.405 158.243 176.679 156.659 176.679C155.075 176.679 153.791 175.405 153.791 173.834Z" fill="#162948"></path><path d="M175.782 170.989C174.198 170.989 172.914 172.263 172.914 173.834C172.914 175.405 174.198 176.679 175.782 176.679C177.366 176.679 178.65 175.405 178.65 173.834C178.65 172.263 177.366 170.989 175.782 170.989Z" fill="#162948"></path><path d="M192.037 173.834C192.037 172.263 193.321 170.989 194.905 170.989C196.489 170.989 197.773 172.263 197.773 173.834C197.773 175.405 196.489 176.679 194.905 176.679C193.321 176.679 192.037 175.405 192.037 173.834Z" fill="#162948"></path><path d="M214.028 170.989C212.444 170.989 211.16 172.263 211.16 173.834C211.16 175.405 212.444 176.679 214.028 176.679C215.612 176.679 216.896 175.405 216.896 173.834C216.896 172.263 215.612 170.989 214.028 170.989Z" fill="#162948"></path><path d="M230.283 173.834C230.283 172.263 231.567 170.989 233.151 170.989C234.735 170.989 236.019 172.263 236.019 173.834C236.019 175.405 234.735 176.679 233.151 176.679C231.567 176.679 230.283 175.405 230.283 173.834Z" fill="#162948"></path><path d="M252.274 170.989C250.69 170.989 249.406 172.263 249.406 173.834C249.406 175.405 250.69 176.679 252.274 176.679C253.858 176.679 255.142 175.405 255.142 173.834C255.142 172.263 253.858 170.989 252.274 170.989Z" fill="#162948"></path><path d="M268.529 173.834C268.529 172.263 269.813 170.989 271.397 170.989C272.981 170.989 274.265 172.263 274.265 173.834C274.265 175.405 272.981 176.679 271.397 176.679C269.813 176.679 268.529 175.405 268.529 173.834Z" fill="#162948"></path><path d="M290.52 170.989C288.936 170.989 287.652 172.263 287.652 173.834C287.652 175.405 288.936 176.679 290.52 176.679C292.104 176.679 293.388 175.405 293.388 173.834C293.388 172.263 292.104 170.989 290.52 170.989Z" fill="#162948"></path><path d="M306.775 173.834C306.775 172.263 308.059 170.989 309.643 170.989C311.227 170.989 312.511 172.263 312.511 173.834C312.511 175.405 311.227 176.679 309.643 176.679C308.059 176.679 306.775 175.405 306.775 173.834Z" fill="#162948"></path><path d="M328.766 170.989C327.182 170.989 325.898 172.263 325.898 173.834C325.898 175.405 327.182 176.679 328.766 176.679C330.35 176.679 331.634 175.405 331.634 173.834C331.634 172.263 330.35 170.989 328.766 170.989Z" fill="#162948"></path><path d="M345.021 173.834C345.021 172.263 346.305 170.989 347.889 170.989C349.473 170.989 350.757 172.263 350.757 173.834C350.757 175.405 349.473 176.679 347.889 176.679C346.305 176.679 345.021 175.405 345.021 173.834Z" fill="#162948"></path><path d="M367.012 170.989C365.428 170.989 364.143 172.263 364.143 173.834C364.143 175.405 365.428 176.679 367.012 176.679C368.596 176.679 369.88 175.405 369.88 173.834C369.88 172.263 368.596 170.989 367.012 170.989Z" fill="#162948"></path><path d="M383.266 173.834C383.266 172.263 384.551 170.989 386.135 170.989C387.719 170.989 389.003 172.263 389.003 173.834C389.003 175.405 387.719 176.679 386.135 176.679C384.551 176.679 383.266 175.405 383.266 173.834Z" fill="#162948"></path><path d="M405.258 170.989C403.674 170.989 402.389 172.263 402.389 173.834C402.389 175.405 403.674 176.679 405.258 176.679C406.842 176.679 408.126 175.405 408.126 173.834C408.126 172.263 406.842 170.989 405.258 170.989Z" fill="#162948"></path><path d="M61.0441 189.956C59.4599 189.956 58.1756 191.229 58.1756 192.801C58.1756 194.372 59.4599 195.646 61.0441 195.646C62.6283 195.646 63.9125 194.372 63.9125 192.801C63.9125 191.229 62.6283 189.956 61.0441 189.956Z" fill="#162948"></path><path d="M77.2986 192.801C77.2986 191.229 78.5829 189.956 80.1671 189.956C81.7513 189.956 83.0355 191.229 83.0355 192.801C83.0355 194.372 81.7513 195.646 80.1671 195.646C78.5829 195.646 77.2986 194.372 77.2986 192.801Z" fill="#162948"></path><path d="M99.2901 189.956C97.7059 189.956 96.4216 191.229 96.4216 192.801C96.4216 194.372 97.7059 195.646 99.2901 195.646C100.874 195.646 102.159 194.372 102.159 192.801C102.159 191.229 100.874 189.956 99.2901 189.956Z" fill="#162948"></path><path d="M115.545 192.801C115.545 191.229 116.829 189.956 118.413 189.956C119.997 189.956 121.281 191.229 121.281 192.801C121.281 194.372 119.997 195.646 118.413 195.646C116.829 195.646 115.545 194.372 115.545 192.801Z" fill="#162948"></path><path d="M137.536 189.956C135.952 189.956 134.668 191.229 134.668 192.801C134.668 194.372 135.952 195.646 137.536 195.646C139.12 195.646 140.404 194.372 140.404 192.801C140.404 191.229 139.12 189.956 137.536 189.956Z" fill="#162948"></path><path d="M153.791 192.801C153.791 191.229 155.075 189.956 156.659 189.956C158.243 189.956 159.527 191.229 159.527 192.801C159.527 194.372 158.243 195.646 156.659 195.646C155.075 195.646 153.791 194.372 153.791 192.801Z" fill="#162948"></path><path d="M175.782 189.956C174.198 189.956 172.914 191.229 172.914 192.801C172.914 194.372 174.198 195.646 175.782 195.646C177.366 195.646 178.65 194.372 178.65 192.801C178.65 191.229 177.366 189.956 175.782 189.956Z" fill="#162948"></path><path d="M192.037 192.801C192.037 191.229 193.321 189.956 194.905 189.956C196.489 189.956 197.773 191.229 197.773 192.801C197.773 194.372 196.489 195.646 194.905 195.646C193.321 195.646 192.037 194.372 192.037 192.801Z" fill="#162948"></path><path d="M214.028 189.956C212.444 189.956 211.16 191.229 211.16 192.801C211.16 194.372 212.444 195.646 214.028 195.646C215.612 195.646 216.896 194.372 216.896 192.801C216.896 191.229 215.612 189.956 214.028 189.956Z" fill="#162948"></path><path d="M230.283 192.801C230.283 191.229 231.567 189.956 233.151 189.956C234.735 189.956 236.019 191.229 236.019 192.801C236.019 194.372 234.735 195.646 233.151 195.646C231.567 195.646 230.283 194.372 230.283 192.801Z" fill="#162948"></path><path d="M252.274 189.956C250.69 189.956 249.406 191.229 249.406 192.801C249.406 194.372 250.69 195.646 252.274 195.646C253.858 195.646 255.142 194.372 255.142 192.801C255.142 191.229 253.858 189.956 252.274 189.956Z" fill="#162948"></path><path d="M268.529 192.801C268.529 191.229 269.813 189.956 271.397 189.956C272.981 189.956 274.265 191.229 274.265 192.801C274.265 194.372 272.981 195.646 271.397 195.646C269.813 195.646 268.529 194.372 268.529 192.801Z" fill="#162948"></path><path d="M290.52 189.956C288.936 189.956 287.652 191.229 287.652 192.801C287.652 194.372 288.936 195.646 290.52 195.646C292.104 195.646 293.388 194.372 293.388 192.801C293.388 191.229 292.104 189.956 290.52 189.956Z" fill="#162948"></path><path d="M306.775 192.801C306.775 191.229 308.059 189.956 309.643 189.956C311.227 189.956 312.511 191.229 312.511 192.801C312.511 194.372 311.227 195.646 309.643 195.646C308.059 195.646 306.775 194.372 306.775 192.801Z" fill="#162948"></path><path d="M328.766 189.956C327.182 189.956 325.898 191.229 325.898 192.801C325.898 194.372 327.182 195.646 328.766 195.646C330.35 195.646 331.634 194.372 331.634 192.801C331.634 191.229 330.35 189.956 328.766 189.956Z" fill="#162948"></path><path d="M345.021 192.801C345.021 191.229 346.305 189.956 347.889 189.956C349.473 189.956 350.757 191.229 350.757 192.801C350.757 194.372 349.473 195.646 347.889 195.646C346.305 195.646 345.021 194.372 345.021 192.801Z" fill="#162948"></path><path d="M367.012 189.956C365.428 189.956 364.143 191.229 364.143 192.801C364.143 194.372 365.428 195.646 367.012 195.646C368.596 195.646 369.88 194.372 369.88 192.801C369.88 191.229 368.596 189.956 367.012 189.956Z" fill="#162948"></path><path d="M383.266 192.801C383.266 191.229 384.551 189.956 386.135 189.956C387.719 189.956 389.003 191.229 389.003 192.801C389.003 194.372 387.719 195.646 386.135 195.646C384.551 195.646 383.266 194.372 383.266 192.801Z" fill="#162948"></path><path d="M405.258 189.956C403.674 189.956 402.389 191.229 402.389 192.801C402.389 194.372 403.674 195.646 405.258 195.646C406.842 195.646 408.126 194.372 408.126 192.801C408.126 191.229 406.842 189.956 405.258 189.956Z" fill="#162948"></path><path d="M61.0441 208.922C59.4599 208.922 58.1756 210.196 58.1756 211.767C58.1756 213.338 59.4599 214.612 61.0441 214.612C62.6283 214.612 63.9125 213.338 63.9125 211.767C63.9125 210.196 62.6283 208.922 61.0441 208.922Z" fill="#162948"></path><path d="M77.2986 211.767C77.2986 210.196 78.5829 208.922 80.1671 208.922C81.7513 208.922 83.0355 210.196 83.0355 211.767C83.0355 213.338 81.7513 214.612 80.1671 214.612C78.5829 214.612 77.2986 213.338 77.2986 211.767Z" fill="#162948"></path><path d="M99.2901 208.922C97.7059 208.922 96.4216 210.196 96.4216 211.767C96.4216 213.338 97.7059 214.612 99.2901 214.612C100.874 214.612 102.159 213.338 102.159 211.767C102.159 210.196 100.874 208.922 99.2901 208.922Z" fill="#162948"></path><path d="M115.545 211.767C115.545 210.196 116.829 208.922 118.413 208.922C119.997 208.922 121.281 210.196 121.281 211.767C121.281 213.338 119.997 214.612 118.413 214.612C116.829 214.612 115.545 213.338 115.545 211.767Z" fill="#162948"></path><path d="M137.536 208.922C135.952 208.922 134.668 210.196 134.668 211.767C134.668 213.338 135.952 214.612 137.536 214.612C139.12 214.612 140.404 213.338 140.404 211.767C140.404 210.196 139.12 208.922 137.536 208.922Z" fill="#162948"></path><path d="M153.791 211.767C153.791 210.196 155.075 208.922 156.659 208.922C158.243 208.922 159.527 210.196 159.527 211.767C159.527 213.338 158.243 214.612 156.659 214.612C155.075 214.612 153.791 213.338 153.791 211.767Z" fill="#162948"></path><path d="M175.782 208.922C174.198 208.922 172.914 210.196 172.914 211.767C172.914 213.338 174.198 214.612 175.782 214.612C177.366 214.612 178.65 213.338 178.65 211.767C178.65 210.196 177.366 208.922 175.782 208.922Z" fill="#162948"></path><path d="M192.037 211.767C192.037 210.196 193.321 208.922 194.905 208.922C196.489 208.922 197.773 210.196 197.773 211.767C197.773 213.338 196.489 214.612 194.905 214.612C193.321 214.612 192.037 213.338 192.037 211.767Z" fill="#162948"></path><path d="M214.028 208.922C212.444 208.922 211.16 210.196 211.16 211.767C211.16 213.338 212.444 214.612 214.028 214.612C215.612 214.612 216.896 213.338 216.896 211.767C216.896 210.196 215.612 208.922 214.028 208.922Z" fill="#162948"></path><path d="M230.283 211.767C230.283 210.196 231.567 208.922 233.151 208.922C234.735 208.922 236.019 210.196 236.019 211.767C236.019 213.338 234.735 214.612 233.151 214.612C231.567 214.612 230.283 213.338 230.283 211.767Z" fill="#162948"></path><path d="M252.274 208.922C250.69 208.922 249.406 210.196 249.406 211.767C249.406 213.338 250.69 214.612 252.274 214.612C253.858 214.612 255.142 213.338 255.142 211.767C255.142 210.196 253.858 208.922 252.274 208.922Z" fill="#162948"></path><path d="M268.529 211.767C268.529 210.196 269.813 208.922 271.397 208.922C272.981 208.922 274.265 210.196 274.265 211.767C274.265 213.338 272.981 214.612 271.397 214.612C269.813 214.612 268.529 213.338 268.529 211.767Z" fill="#162948"></path><path d="M290.52 208.922C288.936 208.922 287.652 210.196 287.652 211.767C287.652 213.338 288.936 214.612 290.52 214.612C292.104 214.612 293.388 213.338 293.388 211.767C293.388 210.196 292.104 208.922 290.52 208.922Z" fill="#162948"></path><path d="M306.775 211.767C306.775 210.196 308.059 208.922 309.643 208.922C311.227 208.922 312.511 210.196 312.511 211.767C312.511 213.338 311.227 214.612 309.643 214.612C308.059 214.612 306.775 213.338 306.775 211.767Z" fill="#162948"></path><path d="M328.766 208.922C327.182 208.922 325.898 210.196 325.898 211.767C325.898 213.338 327.182 214.612 328.766 214.612C330.35 214.612 331.634 213.338 331.634 211.767C331.634 210.196 330.35 208.922 328.766 208.922Z" fill="#162948"></path><path d="M345.021 211.767C345.021 210.196 346.305 208.922 347.889 208.922C349.473 208.922 350.757 210.196 350.757 211.767C350.757 213.338 349.473 214.612 347.889 214.612C346.305 214.612 345.021 213.338 345.021 211.767Z" fill="#162948"></path><path d="M367.012 208.922C365.428 208.922 364.143 210.196 364.143 211.767C364.143 213.338 365.428 214.612 367.012 214.612C368.596 214.612 369.88 213.338 369.88 211.767C369.88 210.196 368.596 208.922 367.012 208.922Z" fill="#162948"></path><path d="M383.266 211.767C383.266 210.196 384.551 208.922 386.135 208.922C387.719 208.922 389.003 210.196 389.003 211.767C389.003 213.338 387.719 214.612 386.135 214.612C384.551 214.612 383.266 213.338 383.266 211.767Z" fill="#162948"></path><path d="M77.2986 230.734C77.2986 229.162 78.5829 227.889 80.1671 227.889C81.7513 227.889 83.0355 229.162 83.0355 230.734C83.0355 232.305 81.7513 233.579 80.1671 233.579C78.5829 233.579 77.2986 232.305 77.2986 230.734Z" fill="#162948"></path><path d="M99.2901 227.889C97.7059 227.889 96.4216 229.162 96.4216 230.734C96.4216 232.305 97.7059 233.579 99.2901 233.579C100.874 233.579 102.159 232.305 102.159 230.734C102.159 229.162 100.874 227.889 99.2901 227.889Z" fill="#162948"></path><path d="M115.545 230.734C115.545 229.162 116.829 227.889 118.413 227.889C119.997 227.889 121.281 229.162 121.281 230.734C121.281 232.305 119.997 233.579 118.413 233.579C116.829 233.579 115.545 232.305 115.545 230.734Z" fill="#162948"></path><path d="M137.536 227.889C135.952 227.889 134.668 229.162 134.668 230.734C134.668 232.305 135.952 233.579 137.536 233.579C139.12 233.579 140.404 232.305 140.404 230.734C140.404 229.162 139.12 227.889 137.536 227.889Z" fill="#162948"></path><path d="M153.791 230.734C153.791 229.162 155.075 227.889 156.659 227.889C158.243 227.889 159.527 229.162 159.527 230.734C159.527 232.305 158.243 233.579 156.659 233.579C155.075 233.579 153.791 232.305 153.791 230.734Z" fill="#162948"></path><path d="M175.782 227.889C174.198 227.889 172.914 229.162 172.914 230.734C172.914 232.305 174.198 233.579 175.782 233.579C177.366 233.579 178.65 232.305 178.65 230.734C178.65 229.162 177.366 227.889 175.782 227.889Z" fill="#162948"></path><path d="M192.037 230.734C192.037 229.162 193.321 227.889 194.905 227.889C196.489 227.889 197.773 229.162 197.773 230.734C197.773 232.305 196.489 233.579 194.905 233.579C193.321 233.579 192.037 232.305 192.037 230.734Z" fill="#162948"></path><path d="M214.028 227.889C212.444 227.889 211.16 229.162 211.16 230.734C211.16 232.305 212.444 233.579 214.028 233.579C215.612 233.579 216.896 232.305 216.896 230.734C216.896 229.162 215.612 227.889 214.028 227.889Z" fill="#162948"></path><path d="M230.283 230.734C230.283 229.162 231.567 227.889 233.151 227.889C234.735 227.889 236.019 229.162 236.019 230.734C236.019 232.305 234.735 233.579 233.151 233.579C231.567 233.579 230.283 232.305 230.283 230.734Z" fill="#162948"></path><path d="M252.274 227.889C250.69 227.889 249.406 229.162 249.406 230.734C249.406 232.305 250.69 233.579 252.274 233.579C253.858 233.579 255.142 232.305 255.142 230.734C255.142 229.162 253.858 227.889 252.274 227.889Z" fill="#162948"></path><path d="M268.529 230.734C268.529 229.162 269.813 227.889 271.397 227.889C272.981 227.889 274.265 229.162 274.265 230.734C274.265 232.305 272.981 233.579 271.397 233.579C269.813 233.579 268.529 232.305 268.529 230.734Z" fill="#162948"></path><path d="M290.52 227.889C288.936 227.889 287.652 229.162 287.652 230.734C287.652 232.305 288.936 233.579 290.52 233.579C292.104 233.579 293.388 232.305 293.388 230.734C293.388 229.162 292.104 227.889 290.52 227.889Z" fill="#162948"></path><path d="M306.775 230.734C306.775 229.162 308.059 227.889 309.643 227.889C311.227 227.889 312.511 229.162 312.511 230.734C312.511 232.305 311.227 233.579 309.643 233.579C308.059 233.579 306.775 232.305 306.775 230.734Z" fill="#162948"></path><path d="M328.766 227.889C327.182 227.889 325.898 229.162 325.898 230.734C325.898 232.305 327.182 233.579 328.766 233.579C330.35 233.579 331.634 232.305 331.634 230.734C331.634 229.162 330.35 227.889 328.766 227.889Z" fill="#162948"></path><path d="M345.021 230.734C345.021 229.162 346.305 227.889 347.889 227.889C349.473 227.889 350.757 229.162 350.757 230.734C350.757 232.305 349.473 233.579 347.889 233.579C346.305 233.579 345.021 232.305 345.021 230.734Z" fill="#162948"></path><path d="M367.012 227.889C365.428 227.889 364.143 229.162 364.143 230.734C364.143 232.305 365.428 233.579 367.012 233.579C368.596 233.579 369.88 232.305 369.88 230.734C369.88 229.162 368.596 227.889 367.012 227.889Z" fill="#162948"></path><path d="M383.266 230.734C383.266 229.162 384.551 227.889 386.135 227.889C387.719 227.889 389.003 229.162 389.003 230.734C389.003 232.305 387.719 233.579 386.135 233.579C384.551 233.579 383.266 232.305 383.266 230.734Z" fill="#162948"></path><path d="M77.2986 249.7C77.2986 248.129 78.5829 246.855 80.1671 246.855C81.7513 246.855 83.0355 248.129 83.0355 249.7C83.0355 251.271 81.7513 252.545 80.1671 252.545C78.5829 252.545 77.2986 251.271 77.2986 249.7Z" fill="#162948"></path><path d="M99.2901 246.855C97.7059 246.855 96.4216 248.129 96.4216 249.7C96.4216 251.271 97.7059 252.545 99.2901 252.545C100.874 252.545 102.159 251.271 102.159 249.7C102.159 248.129 100.874 246.855 99.2901 246.855Z" fill="#162948"></path><path d="M115.545 249.7C115.545 248.129 116.829 246.855 118.413 246.855C119.997 246.855 121.281 248.129 121.281 249.7C121.281 251.271 119.997 252.545 118.413 252.545C116.829 252.545 115.545 251.271 115.545 249.7Z" fill="#162948"></path><path d="M137.536 246.855C135.952 246.855 134.668 248.129 134.668 249.7C134.668 251.271 135.952 252.545 137.536 252.545C139.12 252.545 140.404 251.271 140.404 249.7C140.404 248.129 139.12 246.855 137.536 246.855Z" fill="#162948"></path><path d="M153.791 249.7C153.791 248.129 155.075 246.855 156.659 246.855C158.243 246.855 159.527 248.129 159.527 249.7C159.527 251.271 158.243 252.545 156.659 252.545C155.075 252.545 153.791 251.271 153.791 249.7Z" fill="#162948"></path><path d="M175.782 246.855C174.198 246.855 172.914 248.129 172.914 249.7C172.914 251.271 174.198 252.545 175.782 252.545C177.366 252.545 178.65 251.271 178.65 249.7C178.65 248.129 177.366 246.855 175.782 246.855Z" fill="#162948"></path><path d="M192.037 249.7C192.037 248.129 193.321 246.855 194.905 246.855C196.489 246.855 197.773 248.129 197.773 249.7C197.773 251.271 196.489 252.545 194.905 252.545C193.321 252.545 192.037 251.271 192.037 249.7Z" fill="#162948"></path><path d="M214.028 246.855C212.444 246.855 211.16 248.129 211.16 249.7C211.16 251.271 212.444 252.545 214.028 252.545C215.612 252.545 216.896 251.271 216.896 249.7C216.896 248.129 215.612 246.855 214.028 246.855Z" fill="#162948"></path><path d="M230.283 249.7C230.283 248.129 231.567 246.855 233.151 246.855C234.735 246.855 236.019 248.129 236.019 249.7C236.019 251.271 234.735 252.545 233.151 252.545C231.567 252.545 230.283 251.271 230.283 249.7Z" fill="#162948"></path><path d="M252.274 246.855C250.69 246.855 249.406 248.129 249.406 249.7C249.406 251.271 250.69 252.545 252.274 252.545C253.858 252.545 255.142 251.271 255.142 249.7C255.142 248.129 253.858 246.855 252.274 246.855Z" fill="#162948"></path><path d="M268.529 249.7C268.529 248.129 269.813 246.855 271.397 246.855C272.981 246.855 274.265 248.129 274.265 249.7C274.265 251.271 272.981 252.545 271.397 252.545C269.813 252.545 268.529 251.271 268.529 249.7Z" fill="#162948"></path><path d="M290.52 246.855C288.936 246.855 287.652 248.129 287.652 249.7C287.652 251.271 288.936 252.545 290.52 252.545C292.104 252.545 293.388 251.271 293.388 249.7C293.388 248.129 292.104 246.855 290.52 246.855Z" fill="#162948"></path><path d="M306.775 249.7C306.775 248.129 308.059 246.855 309.643 246.855C311.227 246.855 312.511 248.129 312.511 249.7C312.511 251.271 311.227 252.545 309.643 252.545C308.059 252.545 306.775 251.271 306.775 249.7Z" fill="#162948"></path><path d="M328.766 246.855C327.182 246.855 325.898 248.129 325.898 249.7C325.898 251.271 327.182 252.545 328.766 252.545C330.35 252.545 331.634 251.271 331.634 249.7C331.634 248.129 330.35 246.855 328.766 246.855Z" fill="#162948"></path><path d="M345.021 249.7C345.021 248.129 346.305 246.855 347.889 246.855C349.473 246.855 350.757 248.129 350.757 249.7C350.757 251.271 349.473 252.545 347.889 252.545C346.305 252.545 345.021 251.271 345.021 249.7Z" fill="#162948"></path><path d="M367.012 246.855C365.428 246.855 364.143 248.129 364.143 249.7C364.143 251.271 365.428 252.545 367.012 252.545C368.596 252.545 369.88 251.271 369.88 249.7C369.88 248.129 368.596 246.855 367.012 246.855Z" fill="#162948"></path><path d="M383.266 249.7C383.266 248.129 384.551 246.855 386.135 246.855C387.719 246.855 389.003 248.129 389.003 249.7C389.003 251.271 387.719 252.545 386.135 252.545C384.551 252.545 383.266 251.271 383.266 249.7Z" fill="#162948"></path><path d="M77.2986 268.667C77.2986 267.095 78.5829 265.822 80.1671 265.822C81.7513 265.822 83.0355 267.095 83.0355 268.667C83.0355 270.238 81.7513 271.512 80.1671 271.512C78.5829 271.512 77.2986 270.238 77.2986 268.667Z" fill="#162948"></path><path d="M99.2901 265.822C97.7059 265.822 96.4216 267.095 96.4216 268.667C96.4216 270.238 97.7059 271.512 99.2901 271.512C100.874 271.512 102.159 270.238 102.159 268.667C102.159 267.095 100.874 265.822 99.2901 265.822Z" fill="#162948"></path><path d="M115.545 268.667C115.545 267.095 116.829 265.822 118.413 265.822C119.997 265.822 121.281 267.095 121.281 268.667C121.281 270.238 119.997 271.512 118.413 271.512C116.829 271.512 115.545 270.238 115.545 268.667Z" fill="#162948"></path><path d="M137.536 265.822C135.952 265.822 134.668 267.095 134.668 268.667C134.668 270.238 135.952 271.512 137.536 271.512C139.12 271.512 140.404 270.238 140.404 268.667C140.404 267.095 139.12 265.822 137.536 265.822Z" fill="#162948"></path><path d="M153.791 268.667C153.791 267.095 155.075 265.822 156.659 265.822C158.243 265.822 159.527 267.095 159.527 268.667C159.527 270.238 158.243 271.512 156.659 271.512C155.075 271.512 153.791 270.238 153.791 268.667Z" fill="#162948"></path><path d="M175.782 265.822C174.198 265.822 172.914 267.095 172.914 268.667C172.914 270.238 174.198 271.512 175.782 271.512C177.366 271.512 178.65 270.238 178.65 268.667C178.65 267.095 177.366 265.822 175.782 265.822Z" fill="#162948"></path><path d="M192.037 268.667C192.037 267.095 193.321 265.822 194.905 265.822C196.489 265.822 197.773 267.095 197.773 268.667C197.773 270.238 196.489 271.512 194.905 271.512C193.321 271.512 192.037 270.238 192.037 268.667Z" fill="#162948"></path><path d="M214.028 265.822C212.444 265.822 211.16 267.095 211.16 268.667C211.16 270.238 212.444 271.512 214.028 271.512C215.612 271.512 216.896 270.238 216.896 268.667C216.896 267.095 215.612 265.822 214.028 265.822Z" fill="#162948"></path><path d="M230.283 268.667C230.283 267.095 231.567 265.822 233.151 265.822C234.735 265.822 236.019 267.095 236.019 268.667C236.019 270.238 234.735 271.512 233.151 271.512C231.567 271.512 230.283 270.238 230.283 268.667Z" fill="#162948"></path><path d="M252.274 265.822C250.69 265.822 249.406 267.095 249.406 268.667C249.406 270.238 250.69 271.512 252.274 271.512C253.858 271.512 255.142 270.238 255.142 268.667C255.142 267.095 253.858 265.822 252.274 265.822Z" fill="#162948"></path><path d="M268.529 268.667C268.529 267.095 269.813 265.822 271.397 265.822C272.981 265.822 274.265 267.095 274.265 268.667C274.265 270.238 272.981 271.512 271.397 271.512C269.813 271.512 268.529 270.238 268.529 268.667Z" fill="#162948"></path><path d="M290.52 265.822C288.936 265.822 287.652 267.095 287.652 268.667C287.652 270.238 288.936 271.512 290.52 271.512C292.104 271.512 293.388 270.238 293.388 268.667C293.388 267.095 292.104 265.822 290.52 265.822Z" fill="#162948"></path><path d="M306.775 268.667C306.775 267.095 308.059 265.822 309.643 265.822C311.227 265.822 312.511 267.095 312.511 268.667C312.511 270.238 311.227 271.512 309.643 271.512C308.059 271.512 306.775 270.238 306.775 268.667Z" fill="#162948"></path><path d="M328.766 265.822C327.182 265.822 325.898 267.095 325.898 268.667C325.898 270.238 327.182 271.512 328.766 271.512C330.35 271.512 331.634 270.238 331.634 268.667C331.634 267.095 330.35 265.822 328.766 265.822Z" fill="#162948"></path><path d="M345.021 268.667C345.021 267.095 346.305 265.822 347.889 265.822C349.473 265.822 350.757 267.095 350.757 268.667C350.757 270.238 349.473 271.512 347.889 271.512C346.305 271.512 345.021 270.238 345.021 268.667Z" fill="#162948"></path><path d="M367.012 265.822C365.428 265.822 364.143 267.095 364.143 268.667C364.143 270.238 365.428 271.512 367.012 271.512C368.596 271.512 369.88 270.238 369.88 268.667C369.88 267.095 368.596 265.822 367.012 265.822Z" fill="#162948"></path><path d="M383.266 268.667C383.266 267.095 384.551 265.822 386.135 265.822C387.719 265.822 389.003 267.095 389.003 268.667C389.003 270.238 387.719 271.512 386.135 271.512C384.551 271.512 383.266 270.238 383.266 268.667Z" fill="#162948"></path><path d="M99.2901 284.788C97.7059 284.788 96.4216 286.062 96.4216 287.633C96.4216 289.204 97.7059 290.478 99.2901 290.478C100.874 290.478 102.159 289.204 102.159 287.633C102.159 286.062 100.874 284.788 99.2901 284.788Z" fill="#162948"></path><path d="M115.545 287.633C115.545 286.062 116.829 284.788 118.413 284.788C119.997 284.788 121.281 286.062 121.281 287.633C121.281 289.204 119.997 290.478 118.413 290.478C116.829 290.478 115.545 289.204 115.545 287.633Z" fill="#162948"></path><path d="M137.536 284.788C135.952 284.788 134.668 286.062 134.668 287.633C134.668 289.204 135.952 290.478 137.536 290.478C139.12 290.478 140.404 289.204 140.404 287.633C140.404 286.062 139.12 284.788 137.536 284.788Z" fill="#162948"></path><path d="M153.791 287.633C153.791 286.062 155.075 284.788 156.659 284.788C158.243 284.788 159.527 286.062 159.527 287.633C159.527 289.204 158.243 290.478 156.659 290.478C155.075 290.478 153.791 289.204 153.791 287.633Z" fill="#162948"></path><path d="M175.782 284.788C174.198 284.788 172.914 286.062 172.914 287.633C172.914 289.204 174.198 290.478 175.782 290.478C177.366 290.478 178.65 289.204 178.65 287.633C178.65 286.062 177.366 284.788 175.782 284.788Z" fill="#162948"></path><path d="M192.037 287.633C192.037 286.062 193.321 284.788 194.905 284.788C196.489 284.788 197.773 286.062 197.773 287.633C197.773 289.204 196.489 290.478 194.905 290.478C193.321 290.478 192.037 289.204 192.037 287.633Z" fill="#162948"></path><path d="M214.028 284.788C212.444 284.788 211.16 286.062 211.16 287.633C211.16 289.204 212.444 290.478 214.028 290.478C215.612 290.478 216.896 289.204 216.896 287.633C216.896 286.062 215.612 284.788 214.028 284.788Z" fill="#162948"></path><path d="M230.283 287.633C230.283 286.062 231.567 284.788 233.151 284.788C234.735 284.788 236.019 286.062 236.019 287.633C236.019 289.204 234.735 290.478 233.151 290.478C231.567 290.478 230.283 289.204 230.283 287.633Z" fill="#162948"></path><path d="M252.274 284.788C250.69 284.788 249.406 286.062 249.406 287.633C249.406 289.204 250.69 290.478 252.274 290.478C253.858 290.478 255.142 289.204 255.142 287.633C255.142 286.062 253.858 284.788 252.274 284.788Z" fill="#162948"></path><path d="M268.529 287.633C268.529 286.062 269.813 284.788 271.397 284.788C272.981 284.788 274.265 286.062 274.265 287.633C274.265 289.204 272.981 290.478 271.397 290.478C269.813 290.478 268.529 289.204 268.529 287.633Z" fill="#162948"></path><path d="M290.52 284.788C288.936 284.788 287.652 286.062 287.652 287.633C287.652 289.204 288.936 290.478 290.52 290.478C292.104 290.478 293.388 289.204 293.388 287.633C293.388 286.062 292.104 284.788 290.52 284.788Z" fill="#162948"></path><path d="M306.775 287.633C306.775 286.062 308.059 284.788 309.643 284.788C311.227 284.788 312.511 286.062 312.511 287.633C312.511 289.204 311.227 290.478 309.643 290.478C308.059 290.478 306.775 289.204 306.775 287.633Z" fill="#162948"></path><path d="M328.766 284.788C327.182 284.788 325.898 286.062 325.898 287.633C325.898 289.204 327.182 290.478 328.766 290.478C330.35 290.478 331.634 289.204 331.634 287.633C331.634 286.062 330.35 284.788 328.766 284.788Z" fill="#162948"></path><path d="M115.545 306.6C115.545 305.028 116.829 303.755 118.413 303.755C119.997 303.755 121.281 305.028 121.281 306.6C121.281 308.171 119.997 309.445 118.413 309.445C116.829 309.445 115.545 308.171 115.545 306.6Z" fill="#162948"></path><path d="M137.536 303.755C135.952 303.755 134.668 305.028 134.668 306.6C134.668 308.171 135.952 309.445 137.536 309.445C139.12 309.445 140.404 308.171 140.404 306.6C140.404 305.028 139.12 303.755 137.536 303.755Z" fill="#162948"></path><path d="M153.791 306.6C153.791 305.028 155.075 303.755 156.659 303.755C158.243 303.755 159.527 305.028 159.527 306.6C159.527 308.171 158.243 309.445 156.659 309.445C155.075 309.445 153.791 308.171 153.791 306.6Z" fill="#162948"></path><path d="M175.782 303.755C174.198 303.755 172.914 305.028 172.914 306.6C172.914 308.171 174.198 309.445 175.782 309.445C177.366 309.445 178.65 308.171 178.65 306.6C178.65 305.028 177.366 303.755 175.782 303.755Z" fill="#162948"></path><path d="M192.037 306.6C192.037 305.028 193.321 303.755 194.905 303.755C196.489 303.755 197.773 305.028 197.773 306.6C197.773 308.171 196.489 309.445 194.905 309.445C193.321 309.445 192.037 308.171 192.037 306.6Z" fill="#162948"></path><path d="M214.028 303.755C212.444 303.755 211.16 305.028 211.16 306.6C211.16 308.171 212.444 309.445 214.028 309.445C215.612 309.445 216.896 308.171 216.896 306.6C216.896 305.028 215.612 303.755 214.028 303.755Z" fill="#162948"></path><path d="M230.283 306.6C230.283 305.028 231.567 303.755 233.151 303.755C234.735 303.755 236.019 305.028 236.019 306.6C236.019 308.171 234.735 309.445 233.151 309.445C231.567 309.445 230.283 308.171 230.283 306.6Z" fill="#162948"></path><path d="M252.274 303.755C250.69 303.755 249.406 305.028 249.406 306.6C249.406 308.171 250.69 309.445 252.274 309.445C253.858 309.445 255.142 308.171 255.142 306.6C255.142 305.028 253.858 303.755 252.274 303.755Z" fill="#162948"></path><path d="M268.529 306.6C268.529 305.028 269.813 303.755 271.397 303.755C272.981 303.755 274.265 305.028 274.265 306.6C274.265 308.171 272.981 309.445 271.397 309.445C269.813 309.445 268.529 308.171 268.529 306.6Z" fill="#162948"></path><path d="M290.52 303.755C288.936 303.755 287.652 305.028 287.652 306.6C287.652 308.171 288.936 309.445 290.52 309.445C292.104 309.445 293.388 308.171 293.388 306.6C293.388 305.028 292.104 303.755 290.52 303.755Z" fill="#162948"></path><path d="M306.775 306.6C306.775 305.028 308.059 303.755 309.643 303.755C311.227 303.755 312.511 305.028 312.511 306.6C312.511 308.171 311.227 309.445 309.643 309.445C308.059 309.445 306.775 308.171 306.775 306.6Z" fill="#162948"></path><path d="M328.766 303.755C327.182 303.755 325.898 305.028 325.898 306.6C325.898 308.171 327.182 309.445 328.766 309.445C330.35 309.445 331.634 308.171 331.634 306.6C331.634 305.028 330.35 303.755 328.766 303.755Z" fill="#162948"></path><path d="M115.545 325.566C115.545 323.995 116.829 322.721 118.413 322.721C119.997 322.721 121.281 323.995 121.281 325.566C121.281 327.137 119.997 328.411 118.413 328.411C116.829 328.411 115.545 327.137 115.545 325.566Z" fill="#162948"></path><path d="M137.536 322.721C135.952 322.721 134.668 323.995 134.668 325.566C134.668 327.137 135.952 328.411 137.536 328.411C139.12 328.411 140.404 327.137 140.404 325.566C140.404 323.995 139.12 322.721 137.536 322.721Z" fill="#162948"></path><path d="M153.791 325.566C153.791 323.995 155.075 322.721 156.659 322.721C158.243 322.721 159.527 323.995 159.527 325.566C159.527 327.137 158.243 328.411 156.659 328.411C155.075 328.411 153.791 327.137 153.791 325.566Z" fill="#162948"></path><path d="M175.782 322.721C174.198 322.721 172.914 323.995 172.914 325.566C172.914 327.137 174.198 328.411 175.782 328.411C177.366 328.411 178.65 327.137 178.65 325.566C178.65 323.995 177.366 322.721 175.782 322.721Z" fill="#162948"></path><path d="M192.037 325.566C192.037 323.995 193.321 322.721 194.905 322.721C196.489 322.721 197.773 323.995 197.773 325.566C197.773 327.137 196.489 328.411 194.905 328.411C193.321 328.411 192.037 327.137 192.037 325.566Z" fill="#162948"></path><path d="M214.028 322.721C212.444 322.721 211.16 323.995 211.16 325.566C211.16 327.137 212.444 328.411 214.028 328.411C215.612 328.411 216.896 327.137 216.896 325.566C216.896 323.995 215.612 322.721 214.028 322.721Z" fill="#162948"></path><path d="M230.283 325.566C230.283 323.995 231.567 322.721 233.151 322.721C234.735 322.721 236.019 323.995 236.019 325.566C236.019 327.137 234.735 328.411 233.151 328.411C231.567 328.411 230.283 327.137 230.283 325.566Z" fill="#162948"></path><path d="M252.274 322.721C250.69 322.721 249.406 323.995 249.406 325.566C249.406 327.137 250.69 328.411 252.274 328.411C253.858 328.411 255.142 327.137 255.142 325.566C255.142 323.995 253.858 322.721 252.274 322.721Z" fill="#162948"></path><path d="M115.545 344.533C115.545 342.961 116.829 341.688 118.413 341.688C119.997 341.688 121.281 342.961 121.281 344.533C121.281 346.104 119.997 347.378 118.413 347.378C116.829 347.378 115.545 346.104 115.545 344.533Z" fill="#162948"></path><path d="M137.536 341.688C135.952 341.688 134.668 342.961 134.668 344.533C134.668 346.104 135.952 347.378 137.536 347.378C139.12 347.378 140.404 346.104 140.404 344.533C140.404 342.961 139.12 341.688 137.536 341.688Z" fill="#162948"></path><path d="M153.791 344.533C153.791 342.961 155.075 341.688 156.659 341.688C158.243 341.688 159.527 342.961 159.527 344.533C159.527 346.104 158.243 347.378 156.659 347.378C155.075 347.378 153.791 346.104 153.791 344.533Z" fill="#162948"></path><path d="M175.782 341.688C174.198 341.688 172.914 342.961 172.914 344.533C172.914 346.104 174.198 347.378 175.782 347.378C177.366 347.378 178.65 346.104 178.65 344.533C178.65 342.961 177.366 341.688 175.782 341.688Z" fill="#162948"></path><path d="M192.037 344.533C192.037 342.961 193.321 341.688 194.905 341.688C196.489 341.688 197.773 342.961 197.773 344.533C197.773 346.104 196.489 347.378 194.905 347.378C193.321 347.378 192.037 346.104 192.037 344.533Z" fill="#162948"></path><path d="M214.028 341.688C212.444 341.688 211.16 342.961 211.16 344.533C211.16 346.104 212.444 347.378 214.028 347.378C215.612 347.378 216.896 346.104 216.896 344.533C216.896 342.961 215.612 341.688 214.028 341.688Z" fill="#162948"></path><path d="M230.283 344.533C230.283 342.961 231.567 341.688 233.151 341.688C234.735 341.688 236.019 342.961 236.019 344.533C236.019 346.104 234.735 347.378 233.151 347.378C231.567 347.378 230.283 346.104 230.283 344.533Z" fill="#162948"></path><path d="M252.274 341.688C250.69 341.688 249.406 342.961 249.406 344.533C249.406 346.104 250.69 347.378 252.274 347.378C253.858 347.378 255.142 346.104 255.142 344.533C255.142 342.961 253.858 341.688 252.274 341.688Z" fill="#162948"></path></g></svg> 