<?xml version="1.0" encoding="UTF-8"?> <svg xmlns="http://www.w3.org/2000/svg" width="273" height="330" viewBox="0 0 273 330" fill="none"><g opacity="0.1"><path d="M272.293 136.388C272.293 134.808 271.027 133.527 269.466 133.527C267.904 133.527 266.638 134.808 266.638 136.388C266.638 137.968 267.904 139.249 269.466 139.249C271.027 139.249 272.293 137.968 272.293 136.388Z" fill="#162948"></path><path d="M269.466 152.602C271.027 152.602 272.293 153.883 272.293 155.463C272.293 157.043 271.027 158.324 269.466 158.324C267.904 158.324 266.638 157.043 266.638 155.463C266.638 153.883 267.904 152.602 269.466 152.602Z" fill="#162948"></path><path d="M272.293 174.538C272.293 172.958 271.027 171.677 269.466 171.677C267.904 171.677 266.638 172.958 266.638 174.538C266.638 176.118 267.904 177.399 269.466 177.399C271.027 177.399 272.293 176.118 272.293 174.538Z" fill="#162948"></path><path d="M269.466 190.752C271.027 190.752 272.293 192.033 272.293 193.613C272.293 195.193 271.027 196.474 269.466 196.474C267.904 196.474 266.638 195.193 266.638 193.613C266.638 192.033 267.904 190.752 269.466 190.752Z" fill="#162948"></path><path d="M272.293 212.688C272.293 211.108 271.027 209.827 269.466 209.827C267.904 209.827 266.638 211.108 266.638 212.688C266.638 214.269 267.904 215.55 269.466 215.55C271.027 215.55 272.293 214.269 272.293 212.688Z" fill="#162948"></path><path d="M269.466 228.902C271.027 228.902 272.293 230.183 272.293 231.764C272.293 233.344 271.027 234.625 269.466 234.625C267.904 234.625 266.638 233.344 266.638 231.764C266.638 230.183 267.904 228.902 269.466 228.902Z" fill="#162948"></path><path d="M272.293 250.839C272.293 249.258 271.027 247.977 269.466 247.977C267.904 247.977 266.638 249.258 266.638 250.839C266.638 252.419 267.904 253.7 269.466 253.7C271.027 253.7 272.293 252.419 272.293 250.839Z" fill="#162948"></path><path d="M253.441 136.388C253.441 134.808 252.175 133.527 250.613 133.527C249.051 133.527 247.785 134.808 247.785 136.388C247.785 137.968 249.051 139.249 250.613 139.249C252.175 139.249 253.441 137.968 253.441 136.388Z" fill="#162948"></path><path d="M250.613 152.602C252.175 152.602 253.441 153.883 253.441 155.463C253.441 157.043 252.175 158.324 250.613 158.324C249.051 158.324 247.785 157.043 247.785 155.463C247.785 153.883 249.051 152.602 250.613 152.602Z" fill="#162948"></path><path d="M253.441 174.538C253.441 172.958 252.175 171.677 250.613 171.677C249.051 171.677 247.785 172.958 247.785 174.538C247.785 176.118 249.051 177.399 250.613 177.399C252.175 177.399 253.441 176.118 253.441 174.538Z" fill="#162948"></path><path d="M250.613 190.752C252.175 190.752 253.441 192.033 253.441 193.613C253.441 195.193 252.175 196.474 250.613 196.474C249.051 196.474 247.785 195.193 247.785 193.613C247.785 192.033 249.051 190.752 250.613 190.752Z" fill="#162948"></path><path d="M253.441 212.688C253.441 211.108 252.175 209.827 250.613 209.827C249.051 209.827 247.785 211.108 247.785 212.688C247.785 214.269 249.051 215.55 250.613 215.55C252.175 215.55 253.441 214.269 253.441 212.688Z" fill="#162948"></path><path d="M250.613 228.902C252.175 228.902 253.441 230.183 253.441 231.764C253.441 233.344 252.175 234.625 250.613 234.625C249.051 234.625 247.785 233.344 247.785 231.764C247.785 230.183 249.051 228.902 250.613 228.902Z" fill="#162948"></path><path d="M253.441 250.839C253.441 249.258 252.175 247.977 250.613 247.977C249.051 247.977 247.785 249.258 247.785 250.839C247.785 252.419 249.051 253.7 250.613 253.7C252.175 253.7 253.441 252.419 253.441 250.839Z" fill="#162948"></path><path d="M250.613 267.053C252.175 267.053 253.441 268.334 253.441 269.914C253.441 271.494 252.175 272.775 250.613 272.775C249.051 272.775 247.785 271.494 247.785 269.914C247.785 268.334 249.051 267.053 250.613 267.053Z" fill="#162948"></path><path d="M231.761 76.3011C233.322 76.3011 234.589 77.5821 234.589 79.1623C234.589 80.7426 233.322 82.0236 231.761 82.0236C230.199 82.0236 228.933 80.7426 228.933 79.1623C228.933 77.5821 230.199 76.3011 231.761 76.3011Z" fill="#162948"></path><path d="M234.589 98.2375C234.589 96.6573 233.322 95.3762 231.761 95.3762C230.199 95.3762 228.933 96.6573 228.933 98.2375C228.933 99.8177 230.199 101.099 231.761 101.099C233.322 101.099 234.589 99.8177 234.589 98.2375Z" fill="#162948"></path><path d="M231.761 114.451C233.322 114.451 234.589 115.732 234.589 117.313C234.589 118.893 233.322 120.174 231.761 120.174C230.199 120.174 228.933 118.893 228.933 117.313C228.933 115.732 230.199 114.451 231.761 114.451Z" fill="#162948"></path><path d="M234.589 136.388C234.589 134.808 233.322 133.527 231.761 133.527C230.199 133.527 228.933 134.808 228.933 136.388C228.933 137.968 230.199 139.249 231.761 139.249C233.322 139.249 234.589 137.968 234.589 136.388Z" fill="#162948"></path><path d="M231.761 152.602C233.322 152.602 234.589 153.883 234.589 155.463C234.589 157.043 233.322 158.324 231.761 158.324C230.199 158.324 228.933 157.043 228.933 155.463C228.933 153.883 230.199 152.602 231.761 152.602Z" fill="#162948"></path><path d="M234.589 174.538C234.589 172.958 233.322 171.677 231.761 171.677C230.199 171.677 228.933 172.958 228.933 174.538C228.933 176.118 230.199 177.399 231.761 177.399C233.322 177.399 234.589 176.118 234.589 174.538Z" fill="#162948"></path><path d="M231.761 190.752C233.322 190.752 234.589 192.033 234.589 193.613C234.589 195.193 233.322 196.474 231.761 196.474C230.199 196.474 228.933 195.193 228.933 193.613C228.933 192.033 230.199 190.752 231.761 190.752Z" fill="#162948"></path><path d="M234.589 212.688C234.589 211.108 233.322 209.827 231.761 209.827C230.199 209.827 228.933 211.108 228.933 212.688C228.933 214.269 230.199 215.55 231.761 215.55C233.322 215.55 234.589 214.269 234.589 212.688Z" fill="#162948"></path><path d="M231.761 228.902C233.322 228.902 234.589 230.183 234.589 231.764C234.589 233.344 233.322 234.625 231.761 234.625C230.199 234.625 228.933 233.344 228.933 231.764C228.933 230.183 230.199 228.902 231.761 228.902Z" fill="#162948"></path><path d="M234.589 250.839C234.589 249.258 233.322 247.977 231.761 247.977C230.199 247.977 228.933 249.258 228.933 250.839C228.933 252.419 230.199 253.7 231.761 253.7C233.322 253.7 234.589 252.419 234.589 250.839Z" fill="#162948"></path><path d="M231.761 267.053C233.322 267.053 234.589 268.334 234.589 269.914C234.589 271.494 233.322 272.775 231.761 272.775C230.199 272.775 228.933 271.494 228.933 269.914C228.933 268.334 230.199 267.053 231.761 267.053Z" fill="#162948"></path><path d="M212.908 76.3011C214.47 76.3011 215.736 77.5821 215.736 79.1623C215.736 80.7426 214.47 82.0236 212.908 82.0236C211.346 82.0236 210.08 80.7426 210.08 79.1623C210.08 77.5821 211.346 76.3011 212.908 76.3011Z" fill="#162948"></path><path d="M215.736 98.2375C215.736 96.6573 214.47 95.3762 212.908 95.3762C211.346 95.3762 210.08 96.6573 210.08 98.2375C210.08 99.8177 211.346 101.099 212.908 101.099C214.47 101.099 215.736 99.8177 215.736 98.2375Z" fill="#162948"></path><path d="M212.908 114.451C214.47 114.451 215.736 115.732 215.736 117.313C215.736 118.893 214.47 120.174 212.908 120.174C211.346 120.174 210.08 118.893 210.08 117.313C210.08 115.732 211.346 114.451 212.908 114.451Z" fill="#162948"></path><path d="M215.736 136.388C215.736 134.808 214.47 133.527 212.908 133.527C211.346 133.527 210.08 134.808 210.08 136.388C210.08 137.968 211.346 139.249 212.908 139.249C214.47 139.249 215.736 137.968 215.736 136.388Z" fill="#162948"></path><path d="M212.908 152.602C214.47 152.602 215.736 153.883 215.736 155.463C215.736 157.043 214.47 158.324 212.908 158.324C211.346 158.324 210.08 157.043 210.08 155.463C210.08 153.883 211.346 152.602 212.908 152.602Z" fill="#162948"></path><path d="M215.736 174.538C215.736 172.958 214.47 171.677 212.908 171.677C211.346 171.677 210.08 172.958 210.08 174.538C210.08 176.118 211.346 177.399 212.908 177.399C214.47 177.399 215.736 176.118 215.736 174.538Z" fill="#162948"></path><path d="M212.908 190.752C214.47 190.752 215.736 192.033 215.736 193.613C215.736 195.193 214.47 196.474 212.908 196.474C211.346 196.474 210.08 195.193 210.08 193.613C210.08 192.033 211.346 190.752 212.908 190.752Z" fill="#162948"></path><path d="M215.736 212.688C215.736 211.108 214.47 209.827 212.908 209.827C211.346 209.827 210.08 211.108 210.08 212.688C210.08 214.269 211.346 215.55 212.908 215.55C214.47 215.55 215.736 214.269 215.736 212.688Z" fill="#162948"></path><path d="M212.908 228.902C214.47 228.902 215.736 230.183 215.736 231.764C215.736 233.344 214.47 234.625 212.908 234.625C211.346 234.625 210.08 233.344 210.08 231.764C210.08 230.183 211.346 228.902 212.908 228.902Z" fill="#162948"></path><path d="M215.736 250.839C215.736 249.258 214.47 247.977 212.908 247.977C211.346 247.977 210.08 249.258 210.08 250.839C210.08 252.419 211.346 253.7 212.908 253.7C214.47 253.7 215.736 252.419 215.736 250.839Z" fill="#162948"></path><path d="M212.908 267.053C214.47 267.053 215.736 268.334 215.736 269.914C215.736 271.494 214.47 272.775 212.908 272.775C211.346 272.775 210.08 271.494 210.08 269.914C210.08 268.334 211.346 267.053 212.908 267.053Z" fill="#162948"></path><path d="M215.736 288.989C215.736 287.409 214.47 286.128 212.908 286.128C211.346 286.128 210.08 287.409 210.08 288.989C210.08 290.569 211.346 291.85 212.908 291.85C214.47 291.85 215.736 290.569 215.736 288.989Z" fill="#162948"></path><path d="M195.179 21.9369C195.179 20.3567 193.913 19.0756 192.351 19.0756C190.789 19.0756 189.523 20.3567 189.523 21.9369C189.523 23.5172 190.789 24.7982 192.351 24.7982C193.913 24.7982 195.179 23.5172 195.179 21.9369Z" fill="#162948"></path><path d="M192.351 38.1508C193.913 38.1508 195.179 39.4318 195.179 41.0121C195.179 42.5923 193.913 43.8733 192.351 43.8733C190.789 43.8733 189.523 42.5923 189.523 41.0121C189.523 39.4318 190.789 38.1508 192.351 38.1508Z" fill="#162948"></path><path d="M195.179 60.0872C195.179 58.507 193.913 57.2259 192.351 57.2259C190.789 57.2259 189.523 58.507 189.523 60.0872C189.523 61.6674 190.789 62.9485 192.351 62.9485C193.913 62.9485 195.179 61.6674 195.179 60.0872Z" fill="#162948"></path><path d="M192.351 76.3011C193.913 76.3011 195.179 77.5821 195.179 79.1623C195.179 80.7426 193.913 82.0236 192.351 82.0236C190.789 82.0236 189.523 80.7426 189.523 79.1623C189.523 77.5821 190.789 76.3011 192.351 76.3011Z" fill="#162948"></path><path d="M195.179 98.2375C195.179 96.6573 193.913 95.3762 192.351 95.3762C190.789 95.3762 189.523 96.6573 189.523 98.2375C189.523 99.8178 190.789 101.099 192.351 101.099C193.913 101.099 195.179 99.8177 195.179 98.2375Z" fill="#162948"></path><path d="M192.351 114.451C193.913 114.451 195.179 115.732 195.179 117.313C195.179 118.893 193.913 120.174 192.351 120.174C190.789 120.174 189.523 118.893 189.523 117.313C189.523 115.732 190.789 114.451 192.351 114.451Z" fill="#162948"></path><path d="M195.179 136.388C195.179 134.808 193.913 133.527 192.351 133.527C190.789 133.527 189.523 134.808 189.523 136.388C189.523 137.968 190.789 139.249 192.351 139.249C193.913 139.249 195.179 137.968 195.179 136.388Z" fill="#162948"></path><path d="M192.351 152.602C193.913 152.602 195.179 153.883 195.179 155.463C195.179 157.043 193.913 158.324 192.351 158.324C190.789 158.324 189.523 157.043 189.523 155.463C189.523 153.883 190.789 152.602 192.351 152.602Z" fill="#162948"></path><path d="M195.179 174.538C195.179 172.958 193.913 171.677 192.351 171.677C190.789 171.677 189.523 172.958 189.523 174.538C189.523 176.118 190.789 177.399 192.351 177.399C193.913 177.399 195.179 176.118 195.179 174.538Z" fill="#162948"></path><path d="M192.351 190.752C193.913 190.752 195.179 192.033 195.179 193.613C195.179 195.193 193.913 196.474 192.351 196.474C190.789 196.474 189.523 195.193 189.523 193.613C189.523 192.033 190.789 190.752 192.351 190.752Z" fill="#162948"></path><path d="M195.179 212.688C195.179 211.108 193.913 209.827 192.351 209.827C190.789 209.827 189.523 211.108 189.523 212.688C189.523 214.269 190.789 215.55 192.351 215.55C193.913 215.55 195.179 214.269 195.179 212.688Z" fill="#162948"></path><path d="M192.351 228.902C193.913 228.902 195.179 230.183 195.179 231.764C195.179 233.344 193.913 234.625 192.351 234.625C190.789 234.625 189.523 233.344 189.523 231.764C189.523 230.183 190.789 228.902 192.351 228.902Z" fill="#162948"></path><path d="M195.179 250.839C195.179 249.258 193.913 247.977 192.351 247.977C190.789 247.977 189.523 249.258 189.523 250.839C189.523 252.419 190.789 253.7 192.351 253.7C193.913 253.7 195.179 252.419 195.179 250.839Z" fill="#162948"></path><path d="M192.351 267.053C193.913 267.053 195.179 268.334 195.179 269.914C195.179 271.494 193.913 272.775 192.351 272.775C190.789 272.775 189.523 271.494 189.523 269.914C189.523 268.334 190.789 267.053 192.351 267.053Z" fill="#162948"></path><path d="M195.179 288.989C195.179 287.409 193.913 286.128 192.351 286.128C190.789 286.128 189.523 287.409 189.523 288.989C189.523 290.569 190.789 291.85 192.351 291.85C193.913 291.85 195.179 290.569 195.179 288.989Z" fill="#162948"></path><path d="M192.351 305.203C193.913 305.203 195.179 306.484 195.179 308.064C195.179 309.644 193.913 310.925 192.351 310.925C190.789 310.925 189.523 309.644 189.523 308.064C189.523 306.484 190.789 305.203 192.351 305.203Z" fill="#162948"></path><path d="M195.179 327.139C195.179 325.559 193.913 324.278 192.351 324.278C190.789 324.278 189.523 325.559 189.523 327.139C189.523 328.719 190.789 330.001 192.351 330.001C193.913 330.001 195.179 328.719 195.179 327.139Z" fill="#162948"></path><path d="M176.326 21.9369C176.326 20.3567 175.06 19.0756 173.498 19.0756C171.937 19.0756 170.671 20.3567 170.671 21.9369C170.671 23.5172 171.937 24.7982 173.498 24.7982C175.06 24.7982 176.326 23.5172 176.326 21.9369Z" fill="#162948"></path><path d="M173.498 38.1508C175.06 38.1508 176.326 39.4318 176.326 41.0121C176.326 42.5923 175.06 43.8733 173.498 43.8733C171.937 43.8733 170.671 42.5923 170.671 41.0121C170.671 39.4318 171.937 38.1508 173.498 38.1508Z" fill="#162948"></path><path d="M176.326 60.0872C176.326 58.507 175.06 57.2259 173.498 57.2259C171.937 57.2259 170.671 58.507 170.671 60.0872C170.671 61.6674 171.937 62.9485 173.498 62.9485C175.06 62.9485 176.326 61.6674 176.326 60.0872Z" fill="#162948"></path><path d="M173.498 76.3011C175.06 76.3011 176.326 77.5821 176.326 79.1623C176.326 80.7426 175.06 82.0236 173.498 82.0236C171.937 82.0236 170.671 80.7426 170.671 79.1623C170.671 77.5821 171.937 76.3011 173.498 76.3011Z" fill="#162948"></path><path d="M176.326 98.2375C176.326 96.6573 175.06 95.3762 173.498 95.3762C171.937 95.3762 170.671 96.6573 170.671 98.2375C170.671 99.8178 171.937 101.099 173.498 101.099C175.06 101.099 176.326 99.8178 176.326 98.2375Z" fill="#162948"></path><path d="M173.498 114.451C175.06 114.451 176.326 115.732 176.326 117.313C176.326 118.893 175.06 120.174 173.498 120.174C171.937 120.174 170.671 118.893 170.671 117.313C170.671 115.732 171.937 114.451 173.498 114.451Z" fill="#162948"></path><path d="M176.326 136.388C176.326 134.808 175.06 133.527 173.498 133.527C171.937 133.527 170.671 134.808 170.671 136.388C170.671 137.968 171.937 139.249 173.498 139.249C175.06 139.249 176.326 137.968 176.326 136.388Z" fill="#162948"></path><path d="M173.498 152.602C175.06 152.602 176.326 153.883 176.326 155.463C176.326 157.043 175.06 158.324 173.498 158.324C171.937 158.324 170.671 157.043 170.671 155.463C170.671 153.883 171.937 152.602 173.498 152.602Z" fill="#162948"></path><path d="M176.326 174.538C176.326 172.958 175.06 171.677 173.498 171.677C171.937 171.677 170.671 172.958 170.671 174.538C170.671 176.118 171.937 177.399 173.498 177.399C175.06 177.399 176.326 176.118 176.326 174.538Z" fill="#162948"></path><path d="M173.498 190.752C175.06 190.752 176.326 192.033 176.326 193.613C176.326 195.193 175.06 196.474 173.498 196.474C171.937 196.474 170.671 195.193 170.671 193.613C170.671 192.033 171.937 190.752 173.498 190.752Z" fill="#162948"></path><path d="M176.326 212.688C176.326 211.108 175.06 209.827 173.498 209.827C171.937 209.827 170.671 211.108 170.671 212.688C170.671 214.269 171.937 215.55 173.498 215.55C175.06 215.55 176.326 214.269 176.326 212.688Z" fill="#162948"></path><path d="M173.498 228.902C175.06 228.902 176.326 230.183 176.326 231.764C176.326 233.344 175.06 234.625 173.498 234.625C171.937 234.625 170.671 233.344 170.671 231.764C170.671 230.183 171.937 228.902 173.498 228.902Z" fill="#162948"></path><path d="M176.326 250.839C176.326 249.258 175.06 247.977 173.498 247.977C171.937 247.977 170.671 249.258 170.671 250.839C170.671 252.419 171.937 253.7 173.498 253.7C175.06 253.7 176.326 252.419 176.326 250.839Z" fill="#162948"></path><path d="M173.498 267.053C175.06 267.053 176.326 268.334 176.326 269.914C176.326 271.494 175.06 272.775 173.498 272.775C171.937 272.775 170.671 271.494 170.671 269.914C170.671 268.334 171.937 267.053 173.498 267.053Z" fill="#162948"></path><path d="M176.326 288.989C176.326 287.409 175.06 286.128 173.498 286.128C171.937 286.128 170.671 287.409 170.671 288.989C170.671 290.569 171.937 291.85 173.498 291.85C175.06 291.85 176.326 290.569 176.326 288.989Z" fill="#162948"></path><path d="M173.498 305.203C175.06 305.203 176.326 306.484 176.326 308.064C176.326 309.644 175.06 310.925 173.498 310.925C171.937 310.925 170.671 309.644 170.671 308.064C170.671 306.484 171.937 305.203 173.498 305.203Z" fill="#162948"></path><path d="M176.326 327.139C176.326 325.559 175.06 324.278 173.498 324.278C171.937 324.278 170.671 325.559 170.671 327.139C170.671 328.719 171.937 330.001 173.498 330.001C175.06 330.001 176.326 328.719 176.326 327.139Z" fill="#162948"></path><path d="M157.474 21.9369C157.474 20.3567 156.208 19.0756 154.646 19.0756C153.084 19.0756 151.818 20.3567 151.818 21.9369C151.818 23.5172 153.084 24.7982 154.646 24.7982C156.208 24.7982 157.474 23.5172 157.474 21.9369Z" fill="#162948"></path><path d="M154.646 38.1508C156.208 38.1508 157.474 39.4318 157.474 41.0121C157.474 42.5923 156.208 43.8733 154.646 43.8733C153.084 43.8733 151.818 42.5923 151.818 41.0121C151.818 39.4318 153.084 38.1508 154.646 38.1508Z" fill="#162948"></path><path d="M157.474 60.0872C157.474 58.507 156.208 57.2259 154.646 57.2259C153.084 57.2259 151.818 58.507 151.818 60.0872C151.818 61.6674 153.084 62.9485 154.646 62.9485C156.208 62.9485 157.474 61.6674 157.474 60.0872Z" fill="#162948"></path><path d="M154.646 76.3011C156.208 76.3011 157.474 77.5821 157.474 79.1623C157.474 80.7426 156.208 82.0236 154.646 82.0236C153.084 82.0236 151.818 80.7426 151.818 79.1623C151.818 77.5821 153.084 76.3011 154.646 76.3011Z" fill="#162948"></path><path d="M157.474 98.2375C157.474 96.6573 156.208 95.3762 154.646 95.3762C153.084 95.3762 151.818 96.6573 151.818 98.2375C151.818 99.8178 153.084 101.099 154.646 101.099C156.208 101.099 157.474 99.8178 157.474 98.2375Z" fill="#162948"></path><path d="M154.646 114.451C156.208 114.451 157.474 115.732 157.474 117.313C157.474 118.893 156.208 120.174 154.646 120.174C153.084 120.174 151.818 118.893 151.818 117.313C151.818 115.732 153.084 114.451 154.646 114.451Z" fill="#162948"></path><path d="M157.474 136.388C157.474 134.808 156.208 133.527 154.646 133.527C153.084 133.527 151.818 134.808 151.818 136.388C151.818 137.968 153.084 139.249 154.646 139.249C156.208 139.249 157.474 137.968 157.474 136.388Z" fill="#162948"></path><path d="M154.646 152.602C156.208 152.602 157.474 153.883 157.474 155.463C157.474 157.043 156.208 158.324 154.646 158.324C153.084 158.324 151.818 157.043 151.818 155.463C151.818 153.883 153.084 152.602 154.646 152.602Z" fill="#162948"></path><path d="M157.474 174.538C157.474 172.958 156.208 171.677 154.646 171.677C153.084 171.677 151.818 172.958 151.818 174.538C151.818 176.118 153.084 177.399 154.646 177.399C156.208 177.399 157.474 176.118 157.474 174.538Z" fill="#162948"></path><path d="M154.646 190.752C156.208 190.752 157.474 192.033 157.474 193.613C157.474 195.193 156.208 196.474 154.646 196.474C153.084 196.474 151.818 195.193 151.818 193.613C151.818 192.033 153.084 190.752 154.646 190.752Z" fill="#162948"></path><path d="M157.474 212.688C157.474 211.108 156.208 209.827 154.646 209.827C153.084 209.827 151.818 211.108 151.818 212.688C151.818 214.269 153.084 215.55 154.646 215.55C156.208 215.55 157.474 214.269 157.474 212.688Z" fill="#162948"></path><path d="M154.646 228.902C156.208 228.902 157.474 230.183 157.474 231.764C157.474 233.344 156.208 234.625 154.646 234.625C153.084 234.625 151.818 233.344 151.818 231.764C151.818 230.183 153.084 228.902 154.646 228.902Z" fill="#162948"></path><path d="M157.474 250.839C157.474 249.258 156.208 247.977 154.646 247.977C153.084 247.977 151.818 249.258 151.818 250.839C151.818 252.419 153.084 253.7 154.646 253.7C156.208 253.7 157.474 252.419 157.474 250.839Z" fill="#162948"></path><path d="M154.646 267.053C156.208 267.053 157.474 268.334 157.474 269.914C157.474 271.494 156.208 272.775 154.646 272.775C153.084 272.775 151.818 271.494 151.818 269.914C151.818 268.334 153.084 267.053 154.646 267.053Z" fill="#162948"></path><path d="M157.474 288.989C157.474 287.409 156.208 286.128 154.646 286.128C153.084 286.128 151.818 287.409 151.818 288.989C151.818 290.569 153.084 291.85 154.646 291.85C156.208 291.85 157.474 290.569 157.474 288.989Z" fill="#162948"></path><path d="M154.646 305.203C156.208 305.203 157.474 306.484 157.474 308.064C157.474 309.644 156.208 310.925 154.646 310.925C153.084 310.925 151.818 309.644 151.818 308.064C151.818 306.484 153.084 305.203 154.646 305.203Z" fill="#162948"></path><path d="M135.793 0.000489909C137.355 0.00048989 138.621 1.28152 138.621 2.86177C138.621 4.44201 137.355 5.72303 135.793 5.72303C134.232 5.72303 132.966 4.44201 132.966 2.86177C132.966 1.28152 134.232 0.000489928 135.793 0.000489909Z" fill="#162948"></path><path d="M138.621 21.9369C138.621 20.3567 137.355 19.0756 135.793 19.0756C134.232 19.0756 132.966 20.3567 132.966 21.9369C132.966 23.5172 134.232 24.7982 135.793 24.7982C137.355 24.7982 138.621 23.5172 138.621 21.9369Z" fill="#162948"></path><path d="M135.793 38.1508C137.355 38.1508 138.621 39.4318 138.621 41.0121C138.621 42.5923 137.355 43.8733 135.793 43.8733C134.232 43.8733 132.966 42.5923 132.966 41.0121C132.966 39.4318 134.232 38.1508 135.793 38.1508Z" fill="#162948"></path><path d="M138.621 60.0872C138.621 58.507 137.355 57.2259 135.793 57.2259C134.232 57.2259 132.966 58.507 132.966 60.0872C132.966 61.6674 134.232 62.9485 135.793 62.9485C137.355 62.9485 138.621 61.6674 138.621 60.0872Z" fill="#162948"></path><path d="M135.793 76.3011C137.355 76.3011 138.621 77.5821 138.621 79.1623C138.621 80.7426 137.355 82.0236 135.793 82.0236C134.232 82.0236 132.966 80.7426 132.966 79.1623C132.966 77.5821 134.232 76.3011 135.793 76.3011Z" fill="#162948"></path><path d="M138.621 98.2375C138.621 96.6573 137.355 95.3762 135.793 95.3762C134.232 95.3762 132.966 96.6573 132.966 98.2375C132.966 99.8178 134.232 101.099 135.793 101.099C137.355 101.099 138.621 99.8178 138.621 98.2375Z" fill="#162948"></path><path d="M135.793 114.451C137.355 114.451 138.621 115.732 138.621 117.313C138.621 118.893 137.355 120.174 135.793 120.174C134.232 120.174 132.966 118.893 132.966 117.313C132.966 115.732 134.232 114.451 135.793 114.451Z" fill="#162948"></path><path d="M138.621 136.388C138.621 134.808 137.355 133.527 135.793 133.527C134.232 133.527 132.966 134.808 132.966 136.388C132.966 137.968 134.232 139.249 135.793 139.249C137.355 139.249 138.621 137.968 138.621 136.388Z" fill="#162948"></path><path d="M135.793 152.602C137.355 152.602 138.621 153.883 138.621 155.463C138.621 157.043 137.355 158.324 135.793 158.324C134.232 158.324 132.966 157.043 132.966 155.463C132.966 153.883 134.232 152.602 135.793 152.602Z" fill="#162948"></path><path d="M138.621 174.538C138.621 172.958 137.355 171.677 135.793 171.677C134.232 171.677 132.966 172.958 132.966 174.538C132.966 176.118 134.232 177.399 135.793 177.399C137.355 177.399 138.621 176.118 138.621 174.538Z" fill="#162948"></path><path d="M135.793 190.752C137.355 190.752 138.621 192.033 138.621 193.613C138.621 195.193 137.355 196.474 135.793 196.474C134.232 196.474 132.966 195.193 132.966 193.613C132.966 192.033 134.232 190.752 135.793 190.752Z" fill="#162948"></path><path d="M138.621 212.688C138.621 211.108 137.355 209.827 135.793 209.827C134.232 209.827 132.966 211.108 132.966 212.688C132.966 214.269 134.232 215.55 135.793 215.55C137.355 215.55 138.621 214.269 138.621 212.688Z" fill="#162948"></path><path d="M135.793 228.902C137.355 228.902 138.621 230.183 138.621 231.764C138.621 233.344 137.355 234.625 135.793 234.625C134.232 234.625 132.966 233.344 132.966 231.764C132.966 230.183 134.232 228.902 135.793 228.902Z" fill="#162948"></path><path d="M138.621 250.839C138.621 249.258 137.355 247.977 135.793 247.977C134.232 247.977 132.966 249.258 132.966 250.839C132.966 252.419 134.232 253.7 135.793 253.7C137.355 253.7 138.621 252.419 138.621 250.839Z" fill="#162948"></path><path d="M135.793 267.053C137.355 267.053 138.621 268.334 138.621 269.914C138.621 271.494 137.355 272.775 135.793 272.775C134.232 272.775 132.966 271.494 132.966 269.914C132.966 268.334 134.232 267.053 135.793 267.053Z" fill="#162948"></path><path d="M138.621 288.989C138.621 287.409 137.355 286.128 135.793 286.128C134.232 286.128 132.966 287.409 132.966 288.989C132.966 290.569 134.232 291.85 135.793 291.85C137.355 291.85 138.621 290.569 138.621 288.989Z" fill="#162948"></path><path d="M135.793 305.203C137.355 305.203 138.621 306.484 138.621 308.064C138.621 309.644 137.355 310.925 135.793 310.925C134.232 310.925 132.966 309.644 132.966 308.064C132.966 306.484 134.232 305.203 135.793 305.203Z" fill="#162948"></path><path d="M116.941 0.000490134C118.503 0.000490115 119.769 1.28152 119.769 2.86177C119.769 4.44201 118.503 5.72303 116.941 5.72303C115.379 5.72303 114.113 4.44201 114.113 2.86177C114.113 1.28152 115.379 0.000490152 116.941 0.000490134Z" fill="#162948"></path><path d="M119.769 21.9369C119.769 20.3567 118.503 19.0756 116.941 19.0756C115.379 19.0756 114.113 20.3567 114.113 21.9369C114.113 23.5172 115.379 24.7982 116.941 24.7982C118.503 24.7982 119.769 23.5172 119.769 21.9369Z" fill="#162948"></path><path d="M116.941 38.1508C118.503 38.1508 119.769 39.4318 119.769 41.0121C119.769 42.5923 118.503 43.8733 116.941 43.8733C115.379 43.8733 114.113 42.5923 114.113 41.0121C114.113 39.4318 115.379 38.1508 116.941 38.1508Z" fill="#162948"></path><path d="M119.769 60.0872C119.769 58.507 118.503 57.2259 116.941 57.2259C115.379 57.2259 114.113 58.507 114.113 60.0872C114.113 61.6674 115.379 62.9485 116.941 62.9485C118.503 62.9485 119.769 61.6674 119.769 60.0872Z" fill="#162948"></path><path d="M116.941 76.3011C118.503 76.3011 119.769 77.5821 119.769 79.1623C119.769 80.7426 118.503 82.0236 116.941 82.0236C115.379 82.0236 114.113 80.7426 114.113 79.1623C114.113 77.5821 115.379 76.3011 116.941 76.3011Z" fill="#162948"></path><path d="M119.769 98.2375C119.769 96.6573 118.503 95.3762 116.941 95.3762C115.379 95.3762 114.113 96.6573 114.113 98.2375C114.113 99.8178 115.379 101.099 116.941 101.099C118.503 101.099 119.769 99.8178 119.769 98.2375Z" fill="#162948"></path><path d="M116.941 114.451C118.503 114.451 119.769 115.732 119.769 117.313C119.769 118.893 118.503 120.174 116.941 120.174C115.379 120.174 114.113 118.893 114.113 117.313C114.113 115.732 115.379 114.451 116.941 114.451Z" fill="#162948"></path><path d="M119.769 136.388C119.769 134.808 118.503 133.527 116.941 133.527C115.379 133.527 114.113 134.808 114.113 136.388C114.113 137.968 115.379 139.249 116.941 139.249C118.503 139.249 119.769 137.968 119.769 136.388Z" fill="#162948"></path><path d="M116.941 152.602C118.503 152.602 119.769 153.883 119.769 155.463C119.769 157.043 118.503 158.324 116.941 158.324C115.379 158.324 114.113 157.043 114.113 155.463C114.113 153.883 115.379 152.602 116.941 152.602Z" fill="#162948"></path><path d="M119.769 174.538C119.769 172.958 118.503 171.677 116.941 171.677C115.379 171.677 114.113 172.958 114.113 174.538C114.113 176.118 115.379 177.399 116.941 177.399C118.503 177.399 119.769 176.118 119.769 174.538Z" fill="#162948"></path><path d="M116.941 190.752C118.503 190.752 119.769 192.033 119.769 193.613C119.769 195.193 118.503 196.474 116.941 196.474C115.379 196.474 114.113 195.193 114.113 193.613C114.113 192.033 115.379 190.752 116.941 190.752Z" fill="#162948"></path><path d="M119.769 212.688C119.769 211.108 118.503 209.827 116.941 209.827C115.379 209.827 114.113 211.108 114.113 212.688C114.113 214.269 115.379 215.55 116.941 215.55C118.503 215.55 119.769 214.269 119.769 212.688Z" fill="#162948"></path><path d="M116.941 228.902C118.503 228.902 119.769 230.183 119.769 231.764C119.769 233.344 118.503 234.625 116.941 234.625C115.379 234.625 114.113 233.344 114.113 231.764C114.113 230.183 115.379 228.902 116.941 228.902Z" fill="#162948"></path><path d="M119.769 250.839C119.769 249.258 118.503 247.977 116.941 247.977C115.379 247.977 114.113 249.258 114.113 250.839C114.113 252.419 115.379 253.7 116.941 253.7C118.503 253.7 119.769 252.419 119.769 250.839Z" fill="#162948"></path><path d="M116.941 267.053C118.503 267.053 119.769 268.334 119.769 269.914C119.769 271.494 118.503 272.775 116.941 272.775C115.379 272.775 114.113 271.494 114.113 269.914C114.113 268.334 115.379 267.053 116.941 267.053Z" fill="#162948"></path><path d="M119.769 288.989C119.769 287.409 118.503 286.128 116.941 286.128C115.379 286.128 114.113 287.409 114.113 288.989C114.113 290.569 115.379 291.85 116.941 291.85C118.503 291.85 119.769 290.569 119.769 288.989Z" fill="#162948"></path><path d="M98.0886 76.3011C99.6504 76.3011 100.916 77.5821 100.916 79.1623C100.916 80.7426 99.6504 82.0236 98.0886 82.0236C96.5268 82.0236 95.2607 80.7426 95.2607 79.1623C95.2607 77.5821 96.5268 76.3011 98.0886 76.3011Z" fill="#162948"></path><path d="M100.916 98.2375C100.916 96.6573 99.6504 95.3762 98.0886 95.3762C96.5268 95.3762 95.2607 96.6573 95.2607 98.2375C95.2607 99.8178 96.5268 101.099 98.0886 101.099C99.6504 101.099 100.916 99.8178 100.916 98.2375Z" fill="#162948"></path><path d="M98.0886 114.451C99.6504 114.451 100.916 115.732 100.916 117.313C100.916 118.893 99.6504 120.174 98.0886 120.174C96.5268 120.174 95.2607 118.893 95.2607 117.313C95.2607 115.732 96.5268 114.451 98.0886 114.451Z" fill="#162948"></path><path d="M100.916 136.388C100.916 134.808 99.6504 133.527 98.0886 133.527C96.5268 133.527 95.2607 134.808 95.2607 136.388C95.2607 137.968 96.5268 139.249 98.0886 139.249C99.6504 139.249 100.916 137.968 100.916 136.388Z" fill="#162948"></path><path d="M98.0886 152.602C99.6504 152.602 100.916 153.883 100.916 155.463C100.916 157.043 99.6504 158.324 98.0886 158.324C96.5268 158.324 95.2607 157.043 95.2607 155.463C95.2607 153.883 96.5268 152.602 98.0886 152.602Z" fill="#162948"></path><path d="M100.916 174.538C100.916 172.958 99.6504 171.677 98.0886 171.677C96.5268 171.677 95.2607 172.958 95.2607 174.538C95.2607 176.118 96.5268 177.399 98.0886 177.399C99.6504 177.399 100.916 176.118 100.916 174.538Z" fill="#162948"></path><path d="M98.0886 190.752C99.6504 190.752 100.916 192.033 100.916 193.613C100.916 195.193 99.6504 196.474 98.0886 196.474C96.5268 196.474 95.2607 195.193 95.2607 193.613C95.2607 192.033 96.5268 190.752 98.0886 190.752Z" fill="#162948"></path><path d="M100.916 212.688C100.916 211.108 99.6504 209.827 98.0886 209.827C96.5268 209.827 95.2607 211.108 95.2607 212.688C95.2607 214.269 96.5268 215.55 98.0886 215.55C99.6504 215.55 100.916 214.269 100.916 212.688Z" fill="#162948"></path><path d="M98.0886 228.902C99.6504 228.902 100.916 230.183 100.916 231.764C100.916 233.344 99.6504 234.625 98.0886 234.625C96.5268 234.625 95.2607 233.344 95.2607 231.764C95.2607 230.183 96.5268 228.902 98.0886 228.902Z" fill="#162948"></path><path d="M100.916 250.839C100.916 249.258 99.6504 247.977 98.0886 247.977C96.5268 247.977 95.2607 249.258 95.2607 250.839C95.2607 252.419 96.5268 253.7 98.0886 253.7C99.6504 253.7 100.916 252.419 100.916 250.839Z" fill="#162948"></path><path d="M98.0886 267.053C99.6504 267.053 100.916 268.334 100.916 269.914C100.916 271.494 99.6504 272.775 98.0886 272.775C96.5268 272.775 95.2607 271.494 95.2607 269.914C95.2607 268.334 96.5268 267.053 98.0886 267.053Z" fill="#162948"></path><path d="M100.916 288.989C100.916 287.409 99.6504 286.128 98.0886 286.128C96.5268 286.128 95.2607 287.409 95.2607 288.989C95.2607 290.569 96.5268 291.85 98.0886 291.85C99.6504 291.85 100.916 290.569 100.916 288.989Z" fill="#162948"></path><path d="M79.2361 76.3011C80.7979 76.3011 82.064 77.5821 82.064 79.1623C82.064 80.7426 80.7979 82.0236 79.2361 82.0236C77.6743 82.0236 76.4082 80.7426 76.4082 79.1623C76.4082 77.5821 77.6743 76.3011 79.2361 76.3011Z" fill="#162948"></path><path d="M82.064 98.2375C82.064 96.6573 80.7979 95.3762 79.2361 95.3762C77.6743 95.3762 76.4083 96.6573 76.4083 98.2375C76.4083 99.8178 77.6743 101.099 79.2361 101.099C80.7979 101.099 82.064 99.8178 82.064 98.2375Z" fill="#162948"></path><path d="M79.2361 114.451C80.7979 114.451 82.064 115.732 82.064 117.313C82.064 118.893 80.7979 120.174 79.2361 120.174C77.6743 120.174 76.4083 118.893 76.4083 117.313C76.4083 115.732 77.6743 114.451 79.2361 114.451Z" fill="#162948"></path><path d="M82.064 136.388C82.064 134.808 80.7979 133.527 79.2361 133.527C77.6743 133.527 76.4083 134.808 76.4083 136.388C76.4083 137.968 77.6743 139.249 79.2361 139.249C80.7979 139.249 82.064 137.968 82.064 136.388Z" fill="#162948"></path><path d="M79.2361 152.602C80.7979 152.602 82.064 153.883 82.064 155.463C82.064 157.043 80.7979 158.324 79.2361 158.324C77.6743 158.324 76.4083 157.043 76.4083 155.463C76.4083 153.883 77.6743 152.602 79.2361 152.602Z" fill="#162948"></path><path d="M82.064 174.538C82.064 172.958 80.7979 171.677 79.2361 171.677C77.6743 171.677 76.4083 172.958 76.4083 174.538C76.4083 176.118 77.6743 177.399 79.2361 177.399C80.7979 177.399 82.064 176.118 82.064 174.538Z" fill="#162948"></path><path d="M79.2361 190.752C80.7979 190.752 82.064 192.033 82.064 193.613C82.064 195.193 80.7979 196.474 79.2361 196.474C77.6743 196.474 76.4083 195.193 76.4083 193.613C76.4083 192.033 77.6743 190.752 79.2361 190.752Z" fill="#162948"></path><path d="M82.064 212.688C82.064 211.108 80.7979 209.827 79.2361 209.827C77.6743 209.827 76.4083 211.108 76.4083 212.688C76.4083 214.269 77.6743 215.55 79.2361 215.55C80.7979 215.55 82.064 214.269 82.064 212.688Z" fill="#162948"></path><path d="M79.2361 228.902C80.7979 228.902 82.064 230.183 82.064 231.764C82.064 233.344 80.7979 234.625 79.2361 234.625C77.6743 234.625 76.4083 233.344 76.4083 231.764C76.4083 230.183 77.6743 228.902 79.2361 228.902Z" fill="#162948"></path><path d="M82.064 250.839C82.064 249.258 80.7979 247.977 79.2361 247.977C77.6743 247.977 76.4083 249.258 76.4083 250.839C76.4083 252.419 77.6743 253.7 79.2361 253.7C80.7979 253.7 82.064 252.419 82.064 250.839Z" fill="#162948"></path><path d="M60.3837 76.3011C61.9454 76.3011 63.2115 77.5821 63.2115 79.1623C63.2115 80.7426 61.9454 82.0236 60.3837 82.0236C58.8219 82.0236 57.5558 80.7426 57.5558 79.1623C57.5558 77.5821 58.8219 76.3011 60.3837 76.3011Z" fill="#162948"></path><path d="M63.2115 98.2375C63.2115 96.6573 61.9454 95.3762 60.3837 95.3762C58.8219 95.3762 57.5558 96.6573 57.5558 98.2375C57.5558 99.8178 58.8219 101.099 60.3837 101.099C61.9454 101.099 63.2115 99.8178 63.2115 98.2375Z" fill="#162948"></path><path d="M60.3837 114.451C61.9454 114.451 63.2115 115.732 63.2115 117.313C63.2115 118.893 61.9454 120.174 60.3837 120.174C58.8219 120.174 57.5558 118.893 57.5558 117.313C57.5558 115.732 58.8219 114.451 60.3837 114.451Z" fill="#162948"></path><path d="M63.2115 136.388C63.2115 134.808 61.9454 133.527 60.3837 133.527C58.8219 133.527 57.5558 134.808 57.5558 136.388C57.5558 137.968 58.8219 139.249 60.3837 139.249C61.9454 139.249 63.2115 137.968 63.2115 136.388Z" fill="#162948"></path><path d="M60.3837 152.602C61.9454 152.602 63.2115 153.883 63.2115 155.463C63.2115 157.043 61.9454 158.324 60.3837 158.324C58.8219 158.324 57.5558 157.043 57.5558 155.463C57.5558 153.883 58.8219 152.602 60.3837 152.602Z" fill="#162948"></path><path d="M63.2115 174.538C63.2115 172.958 61.9454 171.677 60.3837 171.677C58.8219 171.677 57.5558 172.958 57.5558 174.538C57.5558 176.118 58.8219 177.399 60.3837 177.399C61.9454 177.399 63.2115 176.118 63.2115 174.538Z" fill="#162948"></path><path d="M60.3837 190.752C61.9454 190.752 63.2115 192.033 63.2115 193.613C63.2115 195.193 61.9454 196.474 60.3837 196.474C58.8219 196.474 57.5558 195.193 57.5558 193.613C57.5558 192.033 58.8219 190.752 60.3837 190.752Z" fill="#162948"></path><path d="M63.2115 212.688C63.2115 211.108 61.9454 209.827 60.3837 209.827C58.8219 209.827 57.5558 211.108 57.5558 212.688C57.5558 214.269 58.8219 215.55 60.3837 215.55C61.9454 215.55 63.2115 214.269 63.2115 212.688Z" fill="#162948"></path><path d="M60.3837 228.902C61.9454 228.902 63.2115 230.183 63.2115 231.764C63.2115 233.344 61.9454 234.625 60.3837 234.625C58.8219 234.625 57.5558 233.344 57.5558 231.764C57.5558 230.183 58.8219 228.902 60.3837 228.902Z" fill="#162948"></path><path d="M63.2115 250.839C63.2115 249.258 61.9454 247.977 60.3837 247.977C58.8219 247.977 57.5558 249.258 57.5558 250.839C57.5558 252.419 58.8219 253.7 60.3837 253.7C61.9454 253.7 63.2115 252.419 63.2115 250.839Z" fill="#162948"></path><path d="M41.5312 114.451C43.093 114.451 44.3591 115.732 44.3591 117.313C44.3591 118.893 43.093 120.174 41.5312 120.174C39.9694 120.174 38.7034 118.893 38.7034 117.313C38.7034 115.732 39.9694 114.451 41.5312 114.451Z" fill="#162948"></path><path d="M44.3591 136.388C44.3591 134.808 43.093 133.527 41.5312 133.527C39.9694 133.527 38.7034 134.808 38.7034 136.388C38.7034 137.968 39.9694 139.249 41.5312 139.249C43.093 139.249 44.3591 137.968 44.3591 136.388Z" fill="#162948"></path><path d="M41.5312 152.602C43.093 152.602 44.3591 153.883 44.3591 155.463C44.3591 157.043 43.093 158.324 41.5312 158.324C39.9694 158.324 38.7034 157.043 38.7034 155.463C38.7034 153.883 39.9694 152.602 41.5312 152.602Z" fill="#162948"></path><path d="M44.3591 174.538C44.3591 172.958 43.093 171.677 41.5312 171.677C39.9694 171.677 38.7034 172.958 38.7034 174.538C38.7034 176.118 39.9694 177.399 41.5312 177.399C43.093 177.399 44.3591 176.118 44.3591 174.538Z" fill="#162948"></path><path d="M41.5312 190.752C43.093 190.752 44.3591 192.033 44.3591 193.613C44.3591 195.193 43.093 196.474 41.5312 196.474C39.9694 196.474 38.7034 195.193 38.7034 193.613C38.7034 192.033 39.9694 190.752 41.5312 190.752Z" fill="#162948"></path><path d="M44.3591 212.688C44.3591 211.108 43.093 209.827 41.5312 209.827C39.9694 209.827 38.7034 211.108 38.7034 212.688C38.7034 214.269 39.9694 215.55 41.5312 215.55C43.093 215.55 44.3591 214.269 44.3591 212.688Z" fill="#162948"></path><path d="M41.5312 228.902C43.093 228.902 44.3591 230.183 44.3591 231.764C44.3591 233.344 43.093 234.625 41.5312 234.625C39.9694 234.625 38.7034 233.344 38.7034 231.764C38.7034 230.183 39.9694 228.902 41.5312 228.902Z" fill="#162948"></path><path d="M44.3591 250.839C44.3591 249.258 43.093 247.977 41.5312 247.977C39.9694 247.977 38.7034 249.258 38.7034 250.839C38.7034 252.419 39.9694 253.7 41.5312 253.7C43.093 253.7 44.3591 252.419 44.3591 250.839Z" fill="#162948"></path><path d="M22.6788 114.451C24.2405 114.451 25.5066 115.732 25.5066 117.313C25.5066 118.893 24.2405 120.174 22.6788 120.174C21.117 120.174 19.8509 118.893 19.8509 117.313C19.8509 115.732 21.117 114.451 22.6788 114.451Z" fill="#162948"></path><path d="M25.5066 136.388C25.5066 134.808 24.2405 133.527 22.6788 133.527C21.117 133.527 19.8509 134.808 19.8509 136.388C19.8509 137.968 21.117 139.249 22.6788 139.249C24.2405 139.249 25.5066 137.968 25.5066 136.388Z" fill="#162948"></path><path d="M22.6788 152.602C24.2405 152.602 25.5066 153.883 25.5066 155.463C25.5066 157.043 24.2405 158.324 22.6788 158.324C21.117 158.324 19.8509 157.043 19.8509 155.463C19.8509 153.883 21.117 152.602 22.6788 152.602Z" fill="#162948"></path><path d="M3.8263 114.451C5.38809 114.451 6.65418 115.732 6.65418 117.313C6.65418 118.893 5.38809 120.174 3.8263 120.174C2.2645 120.174 0.998415 118.893 0.998414 117.313C0.998414 115.732 2.2645 114.451 3.8263 114.451Z" fill="#162948"></path><path d="M6.65418 136.388C6.65418 134.808 5.38809 133.527 3.8263 133.527C2.2645 133.527 0.998415 134.808 0.998415 136.388C0.998415 137.968 2.2645 139.249 3.8263 139.249C5.38809 139.249 6.65418 137.968 6.65418 136.388Z" fill="#162948"></path><path d="M3.8263 152.602C5.38809 152.602 6.65418 153.883 6.65418 155.463C6.65418 157.043 5.38809 158.324 3.8263 158.324C2.2645 158.324 0.998415 157.043 0.998415 155.463C0.998415 153.883 2.2645 152.602 3.8263 152.602Z" fill="#162948"></path></g></svg> 