<?xml version="1.0" encoding="UTF-8"?> <svg xmlns="http://www.w3.org/2000/svg" width="614" height="369" fill="none"><path d="M286.736.807c-1.679 0-3.04 1.35-3.04 3.015s1.361 3.014 3.04 3.014 3.04-1.35 3.04-3.014c0-1.665-1.361-3.015-3.04-3.015zm17.224 3.015c0-1.665 1.361-3.015 3.04-3.015s3.04 1.35 3.04 3.015-1.361 3.014-3.04 3.014-3.04-1.35-3.04-3.014zM327.264.807c-1.679 0-3.04 1.35-3.04 3.015s1.361 3.014 3.04 3.014 3.04-1.35 3.04-3.014c0-1.665-1.361-3.015-3.04-3.015zm17.224 3.015c0-1.665 1.361-3.015 3.04-3.015s3.04 1.35 3.04 3.015-1.361 3.014-3.04 3.014-3.04-1.35-3.04-3.014zM367.792.807c-1.679 0-3.039 1.35-3.039 3.015s1.36 3.014 3.039 3.014 3.04-1.35 3.04-3.014c0-1.665-1.361-3.015-3.04-3.015zm17.225 3.015c0-1.665 1.36-3.015 3.039-3.015s3.04 1.35 3.04 3.015-1.361 3.014-3.04 3.014-3.039-1.35-3.039-3.014zM408.32.807c-1.679 0-3.039 1.35-3.039 3.015s1.36 3.014 3.039 3.014 3.04-1.35 3.04-3.014c0-1.665-1.361-3.015-3.04-3.015zm17.225 3.015c0-1.665 1.36-3.015 3.039-3.015s3.04 1.35 3.04 3.015-1.361 3.014-3.04 3.014-3.039-1.35-3.039-3.014zM448.848.807c-1.679 0-3.039 1.35-3.039 3.015s1.36 3.014 3.039 3.014 3.04-1.35 3.04-3.014c0-1.665-1.361-3.015-3.04-3.015zM84.096 20.905c-1.679 0-3.04 1.35-3.04 3.015s1.361 3.014 3.04 3.014c1.678 0 3.04-1.35 3.04-3.014 0-1.665-1.362-3.015-3.04-3.015zm17.224 3.015c0-1.665 1.361-3.015 3.04-3.015 1.678 0 3.039 1.35 3.039 3.015s-1.361 3.014-3.039 3.014c-1.679 0-3.04-1.35-3.04-3.014zm23.304-3.015c-1.679 0-3.04 1.35-3.04 3.015s1.361 3.014 3.04 3.014c1.678 0 3.039-1.35 3.039-3.014 0-1.665-1.361-3.015-3.039-3.015zm17.224 3.015c0-1.665 1.361-3.015 3.04-3.015s3.039 1.35 3.039 3.015-1.36 3.014-3.039 3.014-3.04-1.35-3.04-3.014zm23.304-3.015c-1.679 0-3.04 1.35-3.04 3.015s1.361 3.014 3.04 3.014 3.039-1.35 3.039-3.014c0-1.665-1.36-3.015-3.039-3.015zm17.224 3.015c0-1.665 1.361-3.015 3.04-3.015s3.039 1.35 3.039 3.015-1.36 3.014-3.039 3.014-3.04-1.35-3.04-3.014zm23.304-3.015c-1.679 0-3.04 1.35-3.04 3.015s1.361 3.014 3.04 3.014 3.039-1.35 3.039-3.014c0-1.665-1.36-3.015-3.039-3.015zm17.224 3.015c0-1.665 1.361-3.015 3.04-3.015s3.04 1.35 3.04 3.015-1.361 3.014-3.04 3.014-3.04-1.35-3.04-3.014zm23.304-3.015c-1.679 0-3.04 1.35-3.04 3.015s1.361 3.014 3.04 3.014 3.04-1.35 3.04-3.014c0-1.665-1.361-3.015-3.04-3.015zm17.224 3.015c0-1.665 1.361-3.015 3.04-3.015s3.04 1.35 3.04 3.015-1.361 3.014-3.04 3.014-3.04-1.35-3.04-3.014zm23.304-3.015c-1.679 0-3.04 1.35-3.04 3.015s1.361 3.014 3.04 3.014 3.04-1.35 3.04-3.014c0-1.665-1.361-3.015-3.04-3.015zm17.224 3.015c0-1.665 1.361-3.015 3.04-3.015s3.04 1.35 3.04 3.015-1.361 3.014-3.04 3.014-3.04-1.35-3.04-3.014zm23.304-3.015c-1.679 0-3.04 1.35-3.04 3.015s1.361 3.014 3.04 3.014 3.04-1.35 3.04-3.014c0-1.665-1.361-3.015-3.04-3.015zm17.224 3.015c0-1.665 1.361-3.015 3.04-3.015s3.04 1.35 3.04 3.015-1.361 3.014-3.04 3.014-3.04-1.35-3.04-3.014zm23.304-3.015c-1.679 0-3.039 1.35-3.039 3.015s1.36 3.014 3.039 3.014 3.04-1.35 3.04-3.014c0-1.665-1.361-3.015-3.04-3.015zm17.225 3.015c0-1.665 1.36-3.015 3.039-3.015s3.04 1.35 3.04 3.015-1.361 3.014-3.04 3.014-3.039-1.35-3.039-3.014zm23.303-3.015c-1.679 0-3.039 1.35-3.039 3.015s1.36 3.014 3.039 3.014 3.04-1.35 3.04-3.014c0-1.665-1.361-3.015-3.04-3.015zm17.225 3.015c0-1.665 1.36-3.015 3.039-3.015s3.04 1.35 3.04 3.015-1.361 3.014-3.04 3.014-3.039-1.35-3.039-3.014zm23.303-3.015c-1.679 0-3.039 1.35-3.039 3.015s1.36 3.014 3.039 3.014 3.04-1.35 3.04-3.014c0-1.665-1.361-3.015-3.04-3.015zm17.225 3.015c0-1.665 1.361-3.015 3.039-3.015 1.679 0 3.04 1.35 3.04 3.015s-1.361 3.014-3.04 3.014c-1.678 0-3.039-1.35-3.039-3.014zm23.303-3.015c-1.678 0-3.039 1.35-3.039 3.015s1.361 3.014 3.039 3.014c1.679 0 3.04-1.35 3.04-3.014 0-1.665-1.361-3.015-3.04-3.015zM60.792 44.018c0-1.665 1.361-3.015 3.04-3.015 1.678 0 3.04 1.35 3.04 3.015s-1.362 3.015-3.04 3.015c-1.679 0-3.04-1.35-3.04-3.015zm23.304-3.015c-1.679 0-3.04 1.35-3.04 3.015s1.361 3.015 3.04 3.015c1.678 0 3.04-1.35 3.04-3.015s-1.362-3.015-3.04-3.015zm17.224 3.015c0-1.665 1.361-3.015 3.04-3.015 1.678 0 3.039 1.35 3.039 3.015s-1.361 3.015-3.039 3.015c-1.679 0-3.04-1.35-3.04-3.015zm23.304-3.015c-1.679 0-3.04 1.35-3.04 3.015s1.361 3.015 3.04 3.015c1.678 0 3.039-1.35 3.039-3.015s-1.361-3.015-3.039-3.015zm17.224 3.015c0-1.665 1.361-3.015 3.04-3.015s3.039 1.35 3.039 3.015-1.36 3.015-3.039 3.015-3.04-1.35-3.04-3.015zm23.304-3.015c-1.679 0-3.04 1.35-3.04 3.015s1.361 3.015 3.04 3.015 3.039-1.35 3.039-3.015-1.36-3.015-3.039-3.015zm17.224 3.015c0-1.665 1.361-3.015 3.04-3.015s3.039 1.35 3.039 3.015-1.36 3.015-3.039 3.015-3.04-1.35-3.04-3.015zm23.304-3.015c-1.679 0-3.04 1.35-3.04 3.015s1.361 3.015 3.04 3.015 3.039-1.35 3.039-3.015-1.36-3.015-3.039-3.015zm17.224 3.015c0-1.665 1.361-3.015 3.04-3.015s3.04 1.35 3.04 3.015-1.361 3.015-3.04 3.015-3.04-1.35-3.04-3.015zm23.304-3.015c-1.679 0-3.04 1.35-3.04 3.015s1.361 3.015 3.04 3.015 3.04-1.35 3.04-3.015-1.361-3.015-3.04-3.015zm17.224 3.015c0-1.665 1.361-3.015 3.04-3.015s3.04 1.35 3.04 3.015-1.361 3.015-3.04 3.015-3.04-1.35-3.04-3.015zm23.304-3.015c-1.679 0-3.04 1.35-3.04 3.015s1.361 3.015 3.04 3.015 3.04-1.35 3.04-3.015-1.361-3.015-3.04-3.015zm17.224 3.015c0-1.665 1.361-3.015 3.04-3.015s3.04 1.35 3.04 3.015-1.361 3.015-3.04 3.015-3.04-1.35-3.04-3.015zm23.304-3.015c-1.679 0-3.04 1.35-3.04 3.015s1.361 3.015 3.04 3.015 3.04-1.35 3.04-3.015-1.361-3.015-3.04-3.015zm17.224 3.015c0-1.665 1.361-3.015 3.04-3.015s3.04 1.35 3.04 3.015-1.361 3.015-3.04 3.015-3.04-1.35-3.04-3.015zm23.304-3.015c-1.679 0-3.039 1.35-3.039 3.015s1.36 3.015 3.039 3.015 3.04-1.35 3.04-3.015-1.361-3.015-3.04-3.015zm17.225 3.015c0-1.665 1.36-3.015 3.039-3.015s3.04 1.35 3.04 3.015-1.361 3.015-3.04 3.015-3.039-1.35-3.039-3.015zm23.303-3.015c-1.679 0-3.039 1.35-3.039 3.015s1.36 3.015 3.039 3.015 3.04-1.35 3.04-3.015-1.361-3.015-3.04-3.015zm17.225 3.015c0-1.665 1.36-3.015 3.039-3.015s3.04 1.35 3.04 3.015-1.361 3.015-3.04 3.015-3.039-1.35-3.039-3.015zm23.303-3.015c-1.679 0-3.039 1.35-3.039 3.015s1.36 3.015 3.039 3.015 3.04-1.35 3.04-3.015-1.361-3.015-3.04-3.015zm17.225 3.015c0-1.665 1.361-3.015 3.039-3.015 1.679 0 3.04 1.35 3.04 3.015s-1.361 3.015-3.04 3.015c-1.678 0-3.039-1.35-3.039-3.015zm23.303-3.015c-1.678 0-3.039 1.35-3.039 3.015s1.361 3.015 3.039 3.015c1.679 0 3.04-1.35 3.04-3.015s-1.361-3.015-3.04-3.015zM60.792 64.116c0-1.665 1.361-3.014 3.04-3.014 1.678 0 3.04 1.35 3.04 3.014 0 1.665-1.362 3.015-3.04 3.015-1.679 0-3.04-1.35-3.04-3.015zm23.304-3.014c-1.679 0-3.04 1.35-3.04 3.014 0 1.665 1.361 3.015 3.04 3.015 1.678 0 3.04-1.35 3.04-3.015s-1.362-3.014-3.04-3.014zm17.224 3.014c0-1.665 1.361-3.014 3.04-3.014 1.678 0 3.039 1.35 3.039 3.014 0 1.665-1.361 3.015-3.039 3.015-1.679 0-3.04-1.35-3.04-3.015zm23.304-3.014c-1.679 0-3.04 1.35-3.04 3.014 0 1.665 1.361 3.015 3.04 3.015 1.678 0 3.039-1.35 3.039-3.015s-1.361-3.014-3.039-3.014zm17.224 3.014c0-1.665 1.361-3.014 3.04-3.014s3.039 1.35 3.039 3.014c0 1.665-1.36 3.015-3.039 3.015s-3.04-1.35-3.04-3.015zm23.304-3.014c-1.679 0-3.04 1.35-3.04 3.014 0 1.665 1.361 3.015 3.04 3.015s3.039-1.35 3.039-3.015-1.36-3.014-3.039-3.014zm17.224 3.014c0-1.665 1.361-3.014 3.04-3.014s3.039 1.35 3.039 3.014c0 1.665-1.36 3.015-3.039 3.015s-3.04-1.35-3.04-3.015zm23.304-3.014c-1.679 0-3.04 1.35-3.04 3.014 0 1.665 1.361 3.015 3.04 3.015s3.039-1.35 3.039-3.015-1.36-3.014-3.039-3.014zm17.224 3.014c0-1.665 1.361-3.014 3.04-3.014s3.04 1.35 3.04 3.014c0 1.665-1.361 3.015-3.04 3.015s-3.04-1.35-3.04-3.015zm23.304-3.014c-1.679 0-3.04 1.35-3.04 3.014 0 1.665 1.361 3.015 3.04 3.015s3.04-1.35 3.04-3.015-1.361-3.014-3.04-3.014zm17.224 3.014c0-1.665 1.361-3.014 3.04-3.014s3.04 1.35 3.04 3.014c0 1.665-1.361 3.015-3.04 3.015s-3.04-1.35-3.04-3.015zm23.304-3.014c-1.679 0-3.04 1.35-3.04 3.014 0 1.665 1.361 3.015 3.04 3.015s3.04-1.35 3.04-3.015-1.361-3.014-3.04-3.014zm17.224 3.014c0-1.665 1.361-3.014 3.04-3.014s3.04 1.35 3.04 3.014c0 1.665-1.361 3.015-3.04 3.015s-3.04-1.35-3.04-3.015zm23.304-3.014c-1.679 0-3.04 1.35-3.04 3.014 0 1.665 1.361 3.015 3.04 3.015s3.04-1.35 3.04-3.015-1.361-3.014-3.04-3.014zm17.224 3.014c0-1.665 1.361-3.014 3.04-3.014s3.04 1.35 3.04 3.014c0 1.665-1.361 3.015-3.04 3.015s-3.04-1.35-3.04-3.015zm23.304-3.014c-1.679 0-3.039 1.35-3.039 3.014 0 1.665 1.36 3.015 3.039 3.015s3.04-1.35 3.04-3.015-1.361-3.014-3.04-3.014zm17.225 3.014c0-1.665 1.36-3.014 3.039-3.014s3.04 1.35 3.04 3.014c0 1.665-1.361 3.015-3.04 3.015s-3.039-1.35-3.039-3.015zm23.303-3.014c-1.679 0-3.039 1.35-3.039 3.014 0 1.665 1.36 3.015 3.039 3.015s3.04-1.35 3.04-3.015-1.361-3.014-3.04-3.014zm17.225 3.014c0-1.665 1.36-3.014 3.039-3.014s3.04 1.35 3.04 3.014c0 1.665-1.361 3.015-3.04 3.015s-3.039-1.35-3.039-3.015zm23.303-3.014c-1.679 0-3.039 1.35-3.039 3.014 0 1.665 1.36 3.015 3.039 3.015s3.04-1.35 3.04-3.015-1.361-3.014-3.04-3.014zm17.225 3.014c0-1.665 1.361-3.014 3.039-3.014 1.679 0 3.04 1.35 3.04 3.014 0 1.665-1.361 3.015-3.04 3.015-1.678 0-3.039-1.35-3.039-3.015zm23.303-3.014c-1.678 0-3.039 1.35-3.039 3.014 0 1.665 1.361 3.015 3.039 3.015 1.679 0 3.04-1.35 3.04-3.015s-1.361-3.014-3.04-3.014zm17.225 3.014c0-1.665 1.361-3.014 3.039-3.014 1.679 0 3.04 1.35 3.04 3.014 0 1.665-1.361 3.015-3.04 3.015-1.678 0-3.039-1.35-3.039-3.015zm23.303-3.014c-1.678 0-3.039 1.35-3.039 3.014 0 1.665 1.361 3.015 3.039 3.015 1.679 0 3.04-1.35 3.04-3.015s-1.361-3.014-3.04-3.014zm17.225 3.014c0-1.665 1.361-3.014 3.039-3.014 1.679 0 3.04 1.35 3.04 3.014 0 1.665-1.361 3.015-3.04 3.015-1.678 0-3.039-1.35-3.039-3.015zM60.792 84.214c0-1.665 1.361-3.014 3.04-3.014 1.678 0 3.04 1.35 3.04 3.014 0 1.665-1.362 3.015-3.04 3.015-1.679 0-3.04-1.35-3.04-3.015zM84.096 81.2c-1.679 0-3.04 1.35-3.04 3.014 0 1.665 1.361 3.015 3.04 3.015 1.678 0 3.04-1.35 3.04-3.015s-1.362-3.014-3.04-3.014zm17.224 3.014c0-1.665 1.361-3.014 3.04-3.014 1.678 0 3.039 1.35 3.039 3.014 0 1.665-1.361 3.015-3.039 3.015-1.679 0-3.04-1.35-3.04-3.015zm23.304-3.014c-1.679 0-3.04 1.35-3.04 3.014 0 1.665 1.361 3.015 3.04 3.015 1.678 0 3.039-1.35 3.039-3.015s-1.361-3.014-3.039-3.014zm17.224 3.014c0-1.665 1.361-3.014 3.04-3.014s3.039 1.35 3.039 3.014c0 1.665-1.36 3.015-3.039 3.015s-3.04-1.35-3.04-3.015zm23.304-3.014c-1.679 0-3.04 1.35-3.04 3.014 0 1.665 1.361 3.015 3.04 3.015s3.039-1.35 3.039-3.015-1.36-3.014-3.039-3.014zm17.224 3.014c0-1.665 1.361-3.014 3.04-3.014s3.039 1.35 3.039 3.014c0 1.665-1.36 3.015-3.039 3.015s-3.04-1.35-3.04-3.015zM205.68 81.2c-1.679 0-3.04 1.35-3.04 3.014 0 1.665 1.361 3.015 3.04 3.015s3.039-1.35 3.039-3.015-1.36-3.014-3.039-3.014zm17.224 3.014c0-1.665 1.361-3.014 3.04-3.014s3.04 1.35 3.04 3.014c0 1.665-1.361 3.015-3.04 3.015s-3.04-1.35-3.04-3.015zm23.304-3.014c-1.679 0-3.04 1.35-3.04 3.014 0 1.665 1.361 3.015 3.04 3.015s3.04-1.35 3.04-3.015-1.361-3.014-3.04-3.014zm17.224 3.014c0-1.665 1.361-3.014 3.04-3.014s3.04 1.35 3.04 3.014c0 1.665-1.361 3.015-3.04 3.015s-3.04-1.35-3.04-3.015zm23.304-3.014c-1.679 0-3.04 1.35-3.04 3.014 0 1.665 1.361 3.015 3.04 3.015s3.04-1.35 3.04-3.015-1.361-3.014-3.04-3.014zm17.224 3.014c0-1.665 1.361-3.014 3.04-3.014s3.04 1.35 3.04 3.014c0 1.665-1.361 3.015-3.04 3.015s-3.04-1.35-3.04-3.015zm23.304-3.014c-1.679 0-3.04 1.35-3.04 3.014 0 1.665 1.361 3.015 3.04 3.015s3.04-1.35 3.04-3.015-1.361-3.014-3.04-3.014zm17.224 3.014c0-1.665 1.361-3.014 3.04-3.014s3.04 1.35 3.04 3.014c0 1.665-1.361 3.015-3.04 3.015s-3.04-1.35-3.04-3.015zm23.304-3.014c-1.679 0-3.039 1.35-3.039 3.014 0 1.665 1.36 3.015 3.039 3.015s3.04-1.35 3.04-3.015-1.361-3.014-3.04-3.014zm17.225 3.014c0-1.665 1.36-3.014 3.039-3.014s3.04 1.35 3.04 3.014c0 1.665-1.361 3.015-3.04 3.015s-3.039-1.35-3.039-3.015zM408.32 81.2c-1.679 0-3.039 1.35-3.039 3.014 0 1.665 1.36 3.015 3.039 3.015s3.04-1.35 3.04-3.015-1.361-3.014-3.04-3.014zm17.225 3.014c0-1.665 1.36-3.014 3.039-3.014s3.04 1.35 3.04 3.014c0 1.665-1.361 3.015-3.04 3.015s-3.039-1.35-3.039-3.015zm23.303-3.014c-1.679 0-3.039 1.35-3.039 3.014 0 1.665 1.36 3.015 3.039 3.015s3.04-1.35 3.04-3.015-1.361-3.014-3.04-3.014zm17.225 3.014c0-1.665 1.361-3.014 3.039-3.014 1.679 0 3.04 1.35 3.04 3.014 0 1.665-1.361 3.015-3.04 3.015-1.678 0-3.039-1.35-3.039-3.015zm23.303-3.014c-1.678 0-3.039 1.35-3.039 3.014 0 1.665 1.361 3.015 3.039 3.015 1.679 0 3.04-1.35 3.04-3.015s-1.361-3.014-3.04-3.014zm17.225 3.014c0-1.665 1.361-3.014 3.039-3.014 1.679 0 3.04 1.35 3.04 3.014 0 1.665-1.361 3.015-3.04 3.015-1.678 0-3.039-1.35-3.039-3.015zm23.303-3.014c-1.678 0-3.039 1.35-3.039 3.014 0 1.665 1.361 3.015 3.039 3.015 1.679 0 3.04-1.35 3.04-3.015s-1.361-3.014-3.04-3.014zm17.225 3.014c0-1.665 1.361-3.014 3.039-3.014 1.679 0 3.04 1.35 3.04 3.014 0 1.665-1.361 3.015-3.04 3.015-1.678 0-3.039-1.35-3.039-3.015zM60.792 104.313c0-1.665 1.361-3.015 3.04-3.015 1.678 0 3.04 1.35 3.04 3.015s-1.362 3.014-3.04 3.014c-1.679 0-3.04-1.349-3.04-3.014zm23.304-3.015c-1.679 0-3.04 1.35-3.04 3.015s1.361 3.014 3.04 3.014c1.678 0 3.04-1.349 3.04-3.014 0-1.665-1.362-3.015-3.04-3.015zm17.224 3.015c0-1.665 1.361-3.015 3.04-3.015 1.678 0 3.039 1.35 3.039 3.015s-1.361 3.014-3.039 3.014c-1.679 0-3.04-1.349-3.04-3.014zm23.304-3.015c-1.679 0-3.04 1.35-3.04 3.015s1.361 3.014 3.04 3.014c1.678 0 3.039-1.349 3.039-3.014 0-1.665-1.361-3.015-3.039-3.015zm17.224 3.015c0-1.665 1.361-3.015 3.04-3.015s3.039 1.35 3.039 3.015-1.36 3.014-3.039 3.014-3.04-1.349-3.04-3.014zm23.304-3.015c-1.679 0-3.04 1.35-3.04 3.015s1.361 3.014 3.04 3.014 3.039-1.349 3.039-3.014c0-1.665-1.36-3.015-3.039-3.015zm17.224 3.015c0-1.665 1.361-3.015 3.04-3.015s3.039 1.35 3.039 3.015-1.36 3.014-3.039 3.014-3.04-1.349-3.04-3.014zm23.304-3.015c-1.679 0-3.04 1.35-3.04 3.015s1.361 3.014 3.04 3.014 3.039-1.349 3.039-3.014c0-1.665-1.36-3.015-3.039-3.015zm17.224 3.015c0-1.665 1.361-3.015 3.04-3.015s3.04 1.35 3.04 3.015-1.361 3.014-3.04 3.014-3.04-1.349-3.04-3.014zm23.304-3.015c-1.679 0-3.04 1.35-3.04 3.015s1.361 3.014 3.04 3.014 3.04-1.349 3.04-3.014c0-1.665-1.361-3.015-3.04-3.015zm17.224 3.015c0-1.665 1.361-3.015 3.04-3.015s3.04 1.35 3.04 3.015-1.361 3.014-3.04 3.014-3.04-1.349-3.04-3.014zm23.304-3.015c-1.679 0-3.04 1.35-3.04 3.015s1.361 3.014 3.04 3.014 3.04-1.349 3.04-3.014c0-1.665-1.361-3.015-3.04-3.015zm17.224 3.015c0-1.665 1.361-3.015 3.04-3.015s3.04 1.35 3.04 3.015-1.361 3.014-3.04 3.014-3.04-1.349-3.04-3.014zm23.304-3.015c-1.679 0-3.04 1.35-3.04 3.015s1.361 3.014 3.04 3.014 3.04-1.349 3.04-3.014c0-1.665-1.361-3.015-3.04-3.015zm17.224 3.015c0-1.665 1.361-3.015 3.04-3.015s3.04 1.35 3.04 3.015-1.361 3.014-3.04 3.014-3.04-1.349-3.04-3.014zm23.304-3.015c-1.679 0-3.039 1.35-3.039 3.015s1.36 3.014 3.039 3.014 3.04-1.349 3.04-3.014c0-1.665-1.361-3.015-3.04-3.015zm17.225 3.015c0-1.665 1.36-3.015 3.039-3.015s3.04 1.35 3.04 3.015-1.361 3.014-3.04 3.014-3.039-1.349-3.039-3.014zm23.303-3.015c-1.679 0-3.039 1.35-3.039 3.015s1.36 3.014 3.039 3.014 3.04-1.349 3.04-3.014c0-1.665-1.361-3.015-3.04-3.015zm17.225 3.015c0-1.665 1.36-3.015 3.039-3.015s3.04 1.35 3.04 3.015-1.361 3.014-3.04 3.014-3.039-1.349-3.039-3.014zm23.303-3.015c-1.679 0-3.039 1.35-3.039 3.015s1.36 3.014 3.039 3.014 3.04-1.349 3.04-3.014c0-1.665-1.361-3.015-3.04-3.015zm17.225 3.015c0-1.665 1.361-3.015 3.039-3.015 1.679 0 3.04 1.35 3.04 3.015s-1.361 3.014-3.04 3.014c-1.678 0-3.039-1.349-3.039-3.014zm23.303-3.015c-1.678 0-3.039 1.35-3.039 3.015s1.361 3.014 3.039 3.014c1.679 0 3.04-1.349 3.04-3.014 0-1.665-1.361-3.015-3.04-3.015zm17.225 3.015c0-1.665 1.361-3.015 3.039-3.015 1.679 0 3.04 1.35 3.04 3.015s-1.361 3.014-3.04 3.014c-1.678 0-3.039-1.349-3.039-3.014zm23.303-3.015c-1.678 0-3.039 1.35-3.039 3.015s1.361 3.014 3.039 3.014c1.679 0 3.04-1.349 3.04-3.014 0-1.665-1.361-3.015-3.04-3.015zm17.225 3.015c0-1.665 1.361-3.015 3.039-3.015 1.679 0 3.04 1.35 3.04 3.015s-1.361 3.014-3.04 3.014c-1.678 0-3.039-1.349-3.039-3.014zm23.303-3.015c-1.678 0-3.039 1.35-3.039 3.015s1.361 3.014 3.039 3.014c1.679 0 3.04-1.349 3.04-3.014 0-1.665-1.361-3.015-3.04-3.015zm17.225 3.015c0-1.665 1.361-3.015 3.039-3.015 1.679 0 3.04 1.35 3.04 3.015s-1.361 3.014-3.04 3.014c-1.678 0-3.039-1.349-3.039-3.014zM0 124.411c0-1.665 1.36-3.015 3.04-3.015 1.678 0 3.04 1.35 3.04 3.015s-1.362 3.015-3.04 3.015c-1.68 0-3.04-1.35-3.04-3.015zm20.264 0c0-1.665 1.36-3.015 3.04-3.015 1.678 0 3.04 1.35 3.04 3.015s-1.362 3.015-3.04 3.015c-1.68 0-3.04-1.35-3.04-3.015zm23.304-3.015c-1.68 0-3.04 1.35-3.04 3.015s1.36 3.015 3.04 3.015c1.678 0 3.04-1.35 3.04-3.015s-1.362-3.015-3.04-3.015zm17.224 3.015c0-1.665 1.361-3.015 3.04-3.015 1.678 0 3.04 1.35 3.04 3.015s-1.362 3.015-3.04 3.015c-1.679 0-3.04-1.35-3.04-3.015zm23.304-3.015c-1.679 0-3.04 1.35-3.04 3.015s1.361 3.015 3.04 3.015c1.678 0 3.04-1.35 3.04-3.015s-1.362-3.015-3.04-3.015zm17.224 3.015c0-1.665 1.361-3.015 3.04-3.015 1.678 0 3.039 1.35 3.039 3.015s-1.361 3.015-3.039 3.015c-1.679 0-3.04-1.35-3.04-3.015zm23.304-3.015c-1.679 0-3.04 1.35-3.04 3.015s1.361 3.015 3.04 3.015c1.678 0 3.039-1.35 3.039-3.015s-1.361-3.015-3.039-3.015zm17.224 3.015c0-1.665 1.361-3.015 3.04-3.015s3.039 1.35 3.039 3.015-1.36 3.015-3.039 3.015-3.04-1.35-3.04-3.015zm23.304-3.015c-1.679 0-3.04 1.35-3.04 3.015s1.361 3.015 3.04 3.015 3.039-1.35 3.039-3.015-1.36-3.015-3.039-3.015zm17.224 3.015c0-1.665 1.361-3.015 3.04-3.015s3.039 1.35 3.039 3.015-1.36 3.015-3.039 3.015-3.04-1.35-3.04-3.015zm23.304-3.015c-1.679 0-3.04 1.35-3.04 3.015s1.361 3.015 3.04 3.015 3.039-1.35 3.039-3.015-1.36-3.015-3.039-3.015zm17.224 3.015c0-1.665 1.361-3.015 3.04-3.015s3.04 1.35 3.04 3.015-1.361 3.015-3.04 3.015-3.04-1.35-3.04-3.015zm23.304-3.015c-1.679 0-3.04 1.35-3.04 3.015s1.361 3.015 3.04 3.015 3.04-1.35 3.04-3.015-1.361-3.015-3.04-3.015zm17.224 3.015c0-1.665 1.361-3.015 3.04-3.015s3.04 1.35 3.04 3.015-1.361 3.015-3.04 3.015-3.04-1.35-3.04-3.015zm23.304-3.015c-1.679 0-3.04 1.35-3.04 3.015s1.361 3.015 3.04 3.015 3.04-1.35 3.04-3.015-1.361-3.015-3.04-3.015zm17.224 3.015c0-1.665 1.361-3.015 3.04-3.015s3.04 1.35 3.04 3.015-1.361 3.015-3.04 3.015-3.04-1.35-3.04-3.015zm23.304-3.015c-1.679 0-3.04 1.35-3.04 3.015s1.361 3.015 3.04 3.015 3.04-1.35 3.04-3.015-1.361-3.015-3.04-3.015zm17.224 3.015c0-1.665 1.361-3.015 3.04-3.015s3.04 1.35 3.04 3.015-1.361 3.015-3.04 3.015-3.04-1.35-3.04-3.015zm23.304-3.015c-1.679 0-3.039 1.35-3.039 3.015s1.36 3.015 3.039 3.015 3.04-1.35 3.04-3.015-1.361-3.015-3.04-3.015zm17.225 3.015c0-1.665 1.36-3.015 3.039-3.015s3.04 1.35 3.04 3.015-1.361 3.015-3.04 3.015-3.039-1.35-3.039-3.015zm23.303-3.015c-1.679 0-3.039 1.35-3.039 3.015s1.36 3.015 3.039 3.015 3.04-1.35 3.04-3.015-1.361-3.015-3.04-3.015zm17.225 3.015c0-1.665 1.36-3.015 3.039-3.015s3.04 1.35 3.04 3.015-1.361 3.015-3.04 3.015-3.039-1.35-3.039-3.015zm23.303-3.015c-1.679 0-3.039 1.35-3.039 3.015s1.36 3.015 3.039 3.015 3.04-1.35 3.04-3.015-1.361-3.015-3.04-3.015zm17.225 3.015c0-1.665 1.361-3.015 3.039-3.015 1.679 0 3.04 1.35 3.04 3.015s-1.361 3.015-3.04 3.015c-1.678 0-3.039-1.35-3.039-3.015zm23.303-3.015c-1.678 0-3.039 1.35-3.039 3.015s1.361 3.015 3.039 3.015c1.679 0 3.04-1.35 3.04-3.015s-1.361-3.015-3.04-3.015zm17.225 3.015c0-1.665 1.361-3.015 3.039-3.015 1.679 0 3.04 1.35 3.04 3.015s-1.361 3.015-3.04 3.015c-1.678 0-3.039-1.35-3.039-3.015zm23.303-3.015c-1.678 0-3.039 1.35-3.039 3.015s1.361 3.015 3.039 3.015c1.679 0 3.04-1.35 3.04-3.015s-1.361-3.015-3.04-3.015zm17.225 3.015c0-1.665 1.361-3.015 3.039-3.015 1.679 0 3.04 1.35 3.04 3.015s-1.361 3.015-3.04 3.015c-1.678 0-3.039-1.35-3.039-3.015zm23.303-3.015c-1.678 0-3.039 1.35-3.039 3.015s1.361 3.015 3.039 3.015c1.679 0 3.04-1.35 3.04-3.015s-1.361-3.015-3.04-3.015zm17.225 3.015c0-1.665 1.361-3.015 3.039-3.015 1.679 0 3.04 1.35 3.04 3.015s-1.361 3.015-3.04 3.015c-1.678 0-3.039-1.35-3.039-3.015zm23.303-3.015c-1.678 0-3.039 1.35-3.039 3.015s1.361 3.015 3.039 3.015c1.679 0 3.04-1.35 3.04-3.015s-1.361-3.015-3.04-3.015zM0 144.509c0-1.665 1.36-3.015 3.04-3.015 1.678 0 3.04 1.35 3.04 3.015s-1.362 3.015-3.04 3.015c-1.68 0-3.04-1.35-3.04-3.015zm20.264 0c0-1.665 1.36-3.015 3.04-3.015 1.678 0 3.04 1.35 3.04 3.015s-1.362 3.015-3.04 3.015c-1.68 0-3.04-1.35-3.04-3.015zm23.304-3.015c-1.68 0-3.04 1.35-3.04 3.015s1.36 3.015 3.04 3.015c1.678 0 3.04-1.35 3.04-3.015s-1.362-3.015-3.04-3.015zm17.224 3.015c0-1.665 1.361-3.015 3.04-3.015 1.678 0 3.04 1.35 3.04 3.015s-1.362 3.015-3.04 3.015c-1.679 0-3.04-1.35-3.04-3.015zm23.304-3.015c-1.679 0-3.04 1.35-3.04 3.015s1.361 3.015 3.04 3.015c1.678 0 3.04-1.35 3.04-3.015s-1.362-3.015-3.04-3.015zm17.224 3.015c0-1.665 1.361-3.015 3.04-3.015 1.678 0 3.039 1.35 3.039 3.015s-1.361 3.015-3.039 3.015c-1.679 0-3.04-1.35-3.04-3.015zm23.304-3.015c-1.679 0-3.04 1.35-3.04 3.015s1.361 3.015 3.04 3.015c1.678 0 3.039-1.35 3.039-3.015s-1.361-3.015-3.039-3.015zm17.224 3.015c0-1.665 1.361-3.015 3.04-3.015s3.039 1.35 3.039 3.015-1.36 3.015-3.039 3.015-3.04-1.35-3.04-3.015zm23.304-3.015c-1.679 0-3.04 1.35-3.04 3.015s1.361 3.015 3.04 3.015 3.039-1.35 3.039-3.015-1.36-3.015-3.039-3.015zm17.224 3.015c0-1.665 1.361-3.015 3.04-3.015s3.039 1.35 3.039 3.015-1.36 3.015-3.039 3.015-3.04-1.35-3.04-3.015zm23.304-3.015c-1.679 0-3.04 1.35-3.04 3.015s1.361 3.015 3.04 3.015 3.039-1.35 3.039-3.015-1.36-3.015-3.039-3.015zm17.224 3.015c0-1.665 1.361-3.015 3.04-3.015s3.04 1.35 3.04 3.015-1.361 3.015-3.04 3.015-3.04-1.35-3.04-3.015zm23.304-3.015c-1.679 0-3.04 1.35-3.04 3.015s1.361 3.015 3.04 3.015 3.04-1.35 3.04-3.015-1.361-3.015-3.04-3.015zm17.224 3.015c0-1.665 1.361-3.015 3.04-3.015s3.04 1.35 3.04 3.015-1.361 3.015-3.04 3.015-3.04-1.35-3.04-3.015zm23.304-3.015c-1.679 0-3.04 1.35-3.04 3.015s1.361 3.015 3.04 3.015 3.04-1.35 3.04-3.015-1.361-3.015-3.04-3.015zm17.224 3.015c0-1.665 1.361-3.015 3.04-3.015s3.04 1.35 3.04 3.015-1.361 3.015-3.04 3.015-3.04-1.35-3.04-3.015zm23.304-3.015c-1.679 0-3.04 1.35-3.04 3.015s1.361 3.015 3.04 3.015 3.04-1.35 3.04-3.015-1.361-3.015-3.04-3.015zm17.224 3.015c0-1.665 1.361-3.015 3.04-3.015s3.04 1.35 3.04 3.015-1.361 3.015-3.04 3.015-3.04-1.35-3.04-3.015zm23.304-3.015c-1.679 0-3.039 1.35-3.039 3.015s1.36 3.015 3.039 3.015 3.04-1.35 3.04-3.015-1.361-3.015-3.04-3.015zm17.225 3.015c0-1.665 1.36-3.015 3.039-3.015s3.04 1.35 3.04 3.015-1.361 3.015-3.04 3.015-3.039-1.35-3.039-3.015zm23.303-3.015c-1.679 0-3.039 1.35-3.039 3.015s1.36 3.015 3.039 3.015 3.04-1.35 3.04-3.015-1.361-3.015-3.04-3.015zm17.225 3.015c0-1.665 1.36-3.015 3.039-3.015s3.04 1.35 3.04 3.015-1.361 3.015-3.04 3.015-3.039-1.35-3.039-3.015zm23.303-3.015c-1.679 0-3.039 1.35-3.039 3.015s1.36 3.015 3.039 3.015 3.04-1.35 3.04-3.015-1.361-3.015-3.04-3.015zm17.225 3.015c0-1.665 1.361-3.015 3.039-3.015 1.679 0 3.04 1.35 3.04 3.015s-1.361 3.015-3.04 3.015c-1.678 0-3.039-1.35-3.039-3.015zm23.303-3.015c-1.678 0-3.039 1.35-3.039 3.015s1.361 3.015 3.039 3.015c1.679 0 3.04-1.35 3.04-3.015s-1.361-3.015-3.04-3.015zm17.225 3.015c0-1.665 1.361-3.015 3.039-3.015 1.679 0 3.04 1.35 3.04 3.015s-1.361 3.015-3.04 3.015c-1.678 0-3.039-1.35-3.039-3.015zm23.303-3.015c-1.678 0-3.039 1.35-3.039 3.015s1.361 3.015 3.039 3.015c1.679 0 3.04-1.35 3.04-3.015s-1.361-3.015-3.04-3.015zm17.225 3.015c0-1.665 1.361-3.015 3.039-3.015 1.679 0 3.04 1.35 3.04 3.015s-1.361 3.015-3.04 3.015c-1.678 0-3.039-1.35-3.039-3.015zm23.303-3.015c-1.678 0-3.039 1.35-3.039 3.015s1.361 3.015 3.039 3.015c1.679 0 3.04-1.35 3.04-3.015s-1.361-3.015-3.04-3.015zm17.225 3.015c0-1.665 1.361-3.015 3.039-3.015 1.679 0 3.04 1.35 3.04 3.015s-1.361 3.015-3.04 3.015c-1.678 0-3.039-1.35-3.039-3.015zm23.303-3.015c-1.678 0-3.039 1.35-3.039 3.015s1.361 3.015 3.039 3.015c1.679 0 3.04-1.35 3.04-3.015s-1.361-3.015-3.04-3.015zM0 164.607c0-1.665 1.36-3.015 3.04-3.015 1.678 0 3.04 1.35 3.04 3.015s-1.362 3.015-3.04 3.015c-1.68 0-3.04-1.35-3.04-3.015zm20.264 0c0-1.665 1.36-3.015 3.04-3.015 1.678 0 3.04 1.35 3.04 3.015s-1.362 3.015-3.04 3.015c-1.68 0-3.04-1.35-3.04-3.015zm23.304-3.015c-1.68 0-3.04 1.35-3.04 3.015s1.36 3.015 3.04 3.015c1.678 0 3.04-1.35 3.04-3.015s-1.362-3.015-3.04-3.015zm17.224 3.015c0-1.665 1.361-3.015 3.04-3.015 1.678 0 3.04 1.35 3.04 3.015s-1.362 3.015-3.04 3.015c-1.679 0-3.04-1.35-3.04-3.015zm23.304-3.015c-1.679 0-3.04 1.35-3.04 3.015s1.361 3.015 3.04 3.015c1.678 0 3.04-1.35 3.04-3.015s-1.362-3.015-3.04-3.015zm17.224 3.015c0-1.665 1.361-3.015 3.04-3.015 1.678 0 3.039 1.35 3.039 3.015s-1.361 3.015-3.039 3.015c-1.679 0-3.04-1.35-3.04-3.015zm23.304-3.015c-1.679 0-3.04 1.35-3.04 3.015s1.361 3.015 3.04 3.015c1.678 0 3.039-1.35 3.039-3.015s-1.361-3.015-3.039-3.015zm17.224 3.015c0-1.665 1.361-3.015 3.04-3.015s3.039 1.35 3.039 3.015-1.36 3.015-3.039 3.015-3.04-1.35-3.04-3.015zm23.304-3.015c-1.679 0-3.04 1.35-3.04 3.015s1.361 3.015 3.04 3.015 3.039-1.35 3.039-3.015-1.36-3.015-3.039-3.015zm17.224 3.015c0-1.665 1.361-3.015 3.04-3.015s3.039 1.35 3.039 3.015-1.36 3.015-3.039 3.015-3.04-1.35-3.04-3.015zm23.304-3.015c-1.679 0-3.04 1.35-3.04 3.015s1.361 3.015 3.04 3.015 3.039-1.35 3.039-3.015-1.36-3.015-3.039-3.015zm17.224 3.015c0-1.665 1.361-3.015 3.04-3.015s3.04 1.35 3.04 3.015-1.361 3.015-3.04 3.015-3.04-1.35-3.04-3.015zm23.304-3.015c-1.679 0-3.04 1.35-3.04 3.015s1.361 3.015 3.04 3.015 3.04-1.35 3.04-3.015-1.361-3.015-3.04-3.015zm17.224 3.015c0-1.665 1.361-3.015 3.04-3.015s3.04 1.35 3.04 3.015-1.361 3.015-3.04 3.015-3.04-1.35-3.04-3.015zm23.304-3.015c-1.679 0-3.04 1.35-3.04 3.015s1.361 3.015 3.04 3.015 3.04-1.35 3.04-3.015-1.361-3.015-3.04-3.015zm17.224 3.015c0-1.665 1.361-3.015 3.04-3.015s3.04 1.35 3.04 3.015-1.361 3.015-3.04 3.015-3.04-1.35-3.04-3.015zm23.304-3.015c-1.679 0-3.04 1.35-3.04 3.015s1.361 3.015 3.04 3.015 3.04-1.35 3.04-3.015-1.361-3.015-3.04-3.015zm17.224 3.015c0-1.665 1.361-3.015 3.04-3.015s3.04 1.35 3.04 3.015-1.361 3.015-3.04 3.015-3.04-1.35-3.04-3.015zm23.304-3.015c-1.679 0-3.039 1.35-3.039 3.015s1.36 3.015 3.039 3.015 3.04-1.35 3.04-3.015-1.361-3.015-3.04-3.015zm17.225 3.015c0-1.665 1.36-3.015 3.039-3.015s3.04 1.35 3.04 3.015-1.361 3.015-3.04 3.015-3.039-1.35-3.039-3.015zm23.303-3.015c-1.679 0-3.039 1.35-3.039 3.015s1.36 3.015 3.039 3.015 3.04-1.35 3.04-3.015-1.361-3.015-3.04-3.015zm17.225 3.015c0-1.665 1.36-3.015 3.039-3.015s3.04 1.35 3.04 3.015-1.361 3.015-3.04 3.015-3.039-1.35-3.039-3.015zm23.303-3.015c-1.679 0-3.039 1.35-3.039 3.015s1.36 3.015 3.039 3.015 3.04-1.35 3.04-3.015-1.361-3.015-3.04-3.015zm17.225 3.015c0-1.665 1.361-3.015 3.039-3.015 1.679 0 3.04 1.35 3.04 3.015s-1.361 3.015-3.04 3.015c-1.678 0-3.039-1.35-3.039-3.015zm23.303-3.015c-1.678 0-3.039 1.35-3.039 3.015s1.361 3.015 3.039 3.015c1.679 0 3.04-1.35 3.04-3.015s-1.361-3.015-3.04-3.015zm17.225 3.015c0-1.665 1.361-3.015 3.039-3.015 1.679 0 3.04 1.35 3.04 3.015s-1.361 3.015-3.04 3.015c-1.678 0-3.039-1.35-3.039-3.015zm23.303-3.015c-1.678 0-3.039 1.35-3.039 3.015s1.361 3.015 3.039 3.015c1.679 0 3.04-1.35 3.04-3.015s-1.361-3.015-3.04-3.015zm17.225 3.015c0-1.665 1.361-3.015 3.039-3.015 1.679 0 3.04 1.35 3.04 3.015s-1.361 3.015-3.04 3.015c-1.678 0-3.039-1.35-3.039-3.015zm23.303-3.015c-1.678 0-3.039 1.35-3.039 3.015s1.361 3.015 3.039 3.015c1.679 0 3.04-1.35 3.04-3.015s-1.361-3.015-3.04-3.015zm17.225 3.015c0-1.665 1.361-3.015 3.039-3.015 1.679 0 3.04 1.35 3.04 3.015s-1.361 3.015-3.04 3.015c-1.678 0-3.039-1.35-3.039-3.015zm23.303-3.015c-1.678 0-3.039 1.35-3.039 3.015s1.361 3.015 3.039 3.015c1.679 0 3.04-1.35 3.04-3.015s-1.361-3.015-3.04-3.015zM0 184.705c0-1.665 1.36-3.014 3.04-3.014 1.678 0 3.04 1.349 3.04 3.014 0 1.665-1.362 3.015-3.04 3.015-1.68 0-3.04-1.35-3.04-3.015zm20.264 0c0-1.665 1.36-3.014 3.04-3.014 1.678 0 3.04 1.349 3.04 3.014 0 1.665-1.362 3.015-3.04 3.015-1.68 0-3.04-1.35-3.04-3.015zm23.304-3.014c-1.68 0-3.04 1.349-3.04 3.014 0 1.665 1.36 3.015 3.04 3.015 1.678 0 3.04-1.35 3.04-3.015s-1.362-3.014-3.04-3.014zm17.224 3.014c0-1.665 1.361-3.014 3.04-3.014 1.678 0 3.04 1.349 3.04 3.014 0 1.665-1.362 3.015-3.04 3.015-1.679 0-3.04-1.35-3.04-3.015zm23.304-3.014c-1.679 0-3.04 1.349-3.04 3.014 0 1.665 1.361 3.015 3.04 3.015 1.678 0 3.04-1.35 3.04-3.015s-1.362-3.014-3.04-3.014zm17.224 3.014c0-1.665 1.361-3.014 3.04-3.014 1.678 0 3.039 1.349 3.039 3.014 0 1.665-1.361 3.015-3.039 3.015-1.679 0-3.04-1.35-3.04-3.015zm23.304-3.014c-1.679 0-3.04 1.349-3.04 3.014 0 1.665 1.361 3.015 3.04 3.015 1.678 0 3.039-1.35 3.039-3.015s-1.361-3.014-3.039-3.014zm17.224 3.014c0-1.665 1.361-3.014 3.04-3.014s3.039 1.349 3.039 3.014c0 1.665-1.36 3.015-3.039 3.015s-3.04-1.35-3.04-3.015zm23.304-3.014c-1.679 0-3.04 1.349-3.04 3.014 0 1.665 1.361 3.015 3.04 3.015s3.039-1.35 3.039-3.015-1.36-3.014-3.039-3.014zm17.224 3.014c0-1.665 1.361-3.014 3.04-3.014s3.039 1.349 3.039 3.014c0 1.665-1.36 3.015-3.039 3.015s-3.04-1.35-3.04-3.015zm23.304-3.014c-1.679 0-3.04 1.349-3.04 3.014 0 1.665 1.361 3.015 3.04 3.015s3.039-1.35 3.039-3.015-1.36-3.014-3.039-3.014zm17.224 3.014c0-1.665 1.361-3.014 3.04-3.014s3.04 1.349 3.04 3.014c0 1.665-1.361 3.015-3.04 3.015s-3.04-1.35-3.04-3.015zm23.304-3.014c-1.679 0-3.04 1.349-3.04 3.014 0 1.665 1.361 3.015 3.04 3.015s3.04-1.35 3.04-3.015-1.361-3.014-3.04-3.014zm17.224 3.014c0-1.665 1.361-3.014 3.04-3.014s3.04 1.349 3.04 3.014c0 1.665-1.361 3.015-3.04 3.015s-3.04-1.35-3.04-3.015zm23.304-3.014c-1.679 0-3.04 1.349-3.04 3.014 0 1.665 1.361 3.015 3.04 3.015s3.04-1.35 3.04-3.015-1.361-3.014-3.04-3.014zm17.224 3.014c0-1.665 1.361-3.014 3.04-3.014s3.04 1.349 3.04 3.014c0 1.665-1.361 3.015-3.04 3.015s-3.04-1.35-3.04-3.015zm23.304-3.014c-1.679 0-3.04 1.349-3.04 3.014 0 1.665 1.361 3.015 3.04 3.015s3.04-1.35 3.04-3.015-1.361-3.014-3.04-3.014zm17.224 3.014c0-1.665 1.361-3.014 3.04-3.014s3.04 1.349 3.04 3.014c0 1.665-1.361 3.015-3.04 3.015s-3.04-1.35-3.04-3.015zm23.304-3.014c-1.679 0-3.039 1.349-3.039 3.014 0 1.665 1.36 3.015 3.039 3.015s3.04-1.35 3.04-3.015-1.361-3.014-3.04-3.014zm17.225 3.014c0-1.665 1.36-3.014 3.039-3.014s3.04 1.349 3.04 3.014c0 1.665-1.361 3.015-3.04 3.015s-3.039-1.35-3.039-3.015zm23.303-3.014c-1.679 0-3.039 1.349-3.039 3.014 0 1.665 1.36 3.015 3.039 3.015s3.04-1.35 3.04-3.015-1.361-3.014-3.04-3.014zm17.225 3.014c0-1.665 1.36-3.014 3.039-3.014s3.04 1.349 3.04 3.014c0 1.665-1.361 3.015-3.04 3.015s-3.039-1.35-3.039-3.015zm23.303-3.014c-1.679 0-3.039 1.349-3.039 3.014 0 1.665 1.36 3.015 3.039 3.015s3.04-1.35 3.04-3.015-1.361-3.014-3.04-3.014zm17.225 3.014c0-1.665 1.361-3.014 3.039-3.014 1.679 0 3.04 1.349 3.04 3.014 0 1.665-1.361 3.015-3.04 3.015-1.678 0-3.039-1.35-3.039-3.015zm23.303-3.014c-1.678 0-3.039 1.349-3.039 3.014 0 1.665 1.361 3.015 3.039 3.015 1.679 0 3.04-1.35 3.04-3.015s-1.361-3.014-3.04-3.014zm17.225 3.014c0-1.665 1.361-3.014 3.039-3.014 1.679 0 3.04 1.349 3.04 3.014 0 1.665-1.361 3.015-3.04 3.015-1.678 0-3.039-1.35-3.039-3.015zm23.303-3.014c-1.678 0-3.039 1.349-3.039 3.014 0 1.665 1.361 3.015 3.039 3.015 1.679 0 3.04-1.35 3.04-3.015s-1.361-3.014-3.04-3.014zm17.225 3.014c0-1.665 1.361-3.014 3.039-3.014 1.679 0 3.04 1.349 3.04 3.014 0 1.665-1.361 3.015-3.04 3.015-1.678 0-3.039-1.35-3.039-3.015zm23.303-3.014c-1.678 0-3.039 1.349-3.039 3.014 0 1.665 1.361 3.015 3.039 3.015 1.679 0 3.04-1.35 3.04-3.015s-1.361-3.014-3.04-3.014zm17.225 3.014c0-1.665 1.361-3.014 3.039-3.014 1.679 0 3.04 1.349 3.04 3.014 0 1.665-1.361 3.015-3.04 3.015-1.678 0-3.039-1.35-3.039-3.015zm23.303-3.014c-1.678 0-3.039 1.349-3.039 3.014 0 1.665 1.361 3.015 3.039 3.015 1.679 0 3.04-1.35 3.04-3.015s-1.361-3.014-3.04-3.014zM0 204.804c0-1.665 1.36-3.015 3.04-3.015 1.678 0 3.04 1.35 3.04 3.015s-1.362 3.014-3.04 3.014c-1.68 0-3.04-1.349-3.04-3.014zm20.264 0c0-1.665 1.36-3.015 3.04-3.015 1.678 0 3.04 1.35 3.04 3.015s-1.362 3.014-3.04 3.014c-1.68 0-3.04-1.349-3.04-3.014zm23.304-3.015c-1.68 0-3.04 1.35-3.04 3.015s1.36 3.014 3.04 3.014c1.678 0 3.04-1.349 3.04-3.014 0-1.665-1.362-3.015-3.04-3.015zm17.224 3.015c0-1.665 1.361-3.015 3.04-3.015 1.678 0 3.04 1.35 3.04 3.015s-1.362 3.014-3.04 3.014c-1.679 0-3.04-1.349-3.04-3.014zm23.304-3.015c-1.679 0-3.04 1.35-3.04 3.015s1.361 3.014 3.04 3.014c1.678 0 3.04-1.349 3.04-3.014 0-1.665-1.362-3.015-3.04-3.015zm17.224 3.015c0-1.665 1.361-3.015 3.04-3.015 1.678 0 3.039 1.35 3.039 3.015s-1.361 3.014-3.039 3.014c-1.679 0-3.04-1.349-3.04-3.014zm23.304-3.015c-1.679 0-3.04 1.35-3.04 3.015s1.361 3.014 3.04 3.014c1.678 0 3.039-1.349 3.039-3.014 0-1.665-1.361-3.015-3.039-3.015zm17.224 3.015c0-1.665 1.361-3.015 3.04-3.015s3.039 1.35 3.039 3.015-1.36 3.014-3.039 3.014-3.04-1.349-3.04-3.014zm23.304-3.015c-1.679 0-3.04 1.35-3.04 3.015s1.361 3.014 3.04 3.014 3.039-1.349 3.039-3.014c0-1.665-1.36-3.015-3.039-3.015zm17.224 3.015c0-1.665 1.361-3.015 3.04-3.015s3.039 1.35 3.039 3.015-1.36 3.014-3.039 3.014-3.04-1.349-3.04-3.014zm23.304-3.015c-1.679 0-3.04 1.35-3.04 3.015s1.361 3.014 3.04 3.014 3.039-1.349 3.039-3.014c0-1.665-1.36-3.015-3.039-3.015zm17.224 3.015c0-1.665 1.361-3.015 3.04-3.015s3.04 1.35 3.04 3.015-1.361 3.014-3.04 3.014-3.04-1.349-3.04-3.014zm23.304-3.015c-1.679 0-3.04 1.35-3.04 3.015s1.361 3.014 3.04 3.014 3.04-1.349 3.04-3.014c0-1.665-1.361-3.015-3.04-3.015zm17.224 3.015c0-1.665 1.361-3.015 3.04-3.015s3.04 1.35 3.04 3.015-1.361 3.014-3.04 3.014-3.04-1.349-3.04-3.014zm23.304-3.015c-1.679 0-3.04 1.35-3.04 3.015s1.361 3.014 3.04 3.014 3.04-1.349 3.04-3.014c0-1.665-1.361-3.015-3.04-3.015zm17.224 3.015c0-1.665 1.361-3.015 3.04-3.015s3.04 1.35 3.04 3.015-1.361 3.014-3.04 3.014-3.04-1.349-3.04-3.014zm23.304-3.015c-1.679 0-3.04 1.35-3.04 3.015s1.361 3.014 3.04 3.014 3.04-1.349 3.04-3.014c0-1.665-1.361-3.015-3.04-3.015zm17.224 3.015c0-1.665 1.361-3.015 3.04-3.015s3.04 1.35 3.04 3.015-1.361 3.014-3.04 3.014-3.04-1.349-3.04-3.014zm23.304-3.015c-1.679 0-3.039 1.35-3.039 3.015s1.36 3.014 3.039 3.014 3.04-1.349 3.04-3.014c0-1.665-1.361-3.015-3.04-3.015zm17.225 3.015c0-1.665 1.36-3.015 3.039-3.015s3.04 1.35 3.04 3.015-1.361 3.014-3.04 3.014-3.039-1.349-3.039-3.014zm23.303-3.015c-1.679 0-3.039 1.35-3.039 3.015s1.36 3.014 3.039 3.014 3.04-1.349 3.04-3.014c0-1.665-1.361-3.015-3.04-3.015zm17.225 3.015c0-1.665 1.36-3.015 3.039-3.015s3.04 1.35 3.04 3.015-1.361 3.014-3.04 3.014-3.039-1.349-3.039-3.014zm23.303-3.015c-1.679 0-3.039 1.35-3.039 3.015s1.36 3.014 3.039 3.014 3.04-1.349 3.04-3.014c0-1.665-1.361-3.015-3.04-3.015zm17.225 3.015c0-1.665 1.361-3.015 3.039-3.015 1.679 0 3.04 1.35 3.04 3.015s-1.361 3.014-3.04 3.014c-1.678 0-3.039-1.349-3.039-3.014zm23.303-3.015c-1.678 0-3.039 1.35-3.039 3.015s1.361 3.014 3.039 3.014c1.679 0 3.04-1.349 3.04-3.014 0-1.665-1.361-3.015-3.04-3.015zm17.225 3.015c0-1.665 1.361-3.015 3.039-3.015 1.679 0 3.04 1.35 3.04 3.015s-1.361 3.014-3.04 3.014c-1.678 0-3.039-1.349-3.039-3.014zm23.303-3.015c-1.678 0-3.039 1.35-3.039 3.015s1.361 3.014 3.039 3.014c1.679 0 3.04-1.349 3.04-3.014 0-1.665-1.361-3.015-3.04-3.015zm17.225 3.015c0-1.665 1.361-3.015 3.039-3.015 1.679 0 3.04 1.35 3.04 3.015s-1.361 3.014-3.04 3.014c-1.678 0-3.039-1.349-3.039-3.014zm23.303-3.015c-1.678 0-3.039 1.35-3.039 3.015s1.361 3.014 3.039 3.014c1.679 0 3.04-1.349 3.04-3.014 0-1.665-1.361-3.015-3.04-3.015zm17.225 3.015c0-1.665 1.361-3.015 3.039-3.015 1.679 0 3.04 1.35 3.04 3.015s-1.361 3.014-3.04 3.014c-1.678 0-3.039-1.349-3.039-3.014zm23.303-3.015c-1.678 0-3.039 1.35-3.039 3.015s1.361 3.014 3.039 3.014c1.679 0 3.04-1.349 3.04-3.014 0-1.665-1.361-3.015-3.04-3.015zM0 224.902c0-1.665 1.36-3.015 3.04-3.015 1.678 0 3.04 1.35 3.04 3.015s-1.362 3.015-3.04 3.015c-1.68 0-3.04-1.35-3.04-3.015zm20.264 0c0-1.665 1.36-3.015 3.04-3.015 1.678 0 3.04 1.35 3.04 3.015s-1.362 3.015-3.04 3.015c-1.68 0-3.04-1.35-3.04-3.015zm23.304-3.015c-1.68 0-3.04 1.35-3.04 3.015s1.36 3.015 3.04 3.015c1.678 0 3.04-1.35 3.04-3.015s-1.362-3.015-3.04-3.015zm17.224 3.015c0-1.665 1.361-3.015 3.04-3.015 1.678 0 3.04 1.35 3.04 3.015s-1.362 3.015-3.04 3.015c-1.679 0-3.04-1.35-3.04-3.015zm23.304-3.015c-1.679 0-3.04 1.35-3.04 3.015s1.361 3.015 3.04 3.015c1.678 0 3.04-1.35 3.04-3.015s-1.362-3.015-3.04-3.015zm17.224 3.015c0-1.665 1.361-3.015 3.04-3.015 1.678 0 3.039 1.35 3.039 3.015s-1.361 3.015-3.039 3.015c-1.679 0-3.04-1.35-3.04-3.015zm23.304-3.015c-1.679 0-3.04 1.35-3.04 3.015s1.361 3.015 3.04 3.015c1.678 0 3.039-1.35 3.039-3.015s-1.361-3.015-3.039-3.015zm17.224 3.015c0-1.665 1.361-3.015 3.04-3.015s3.039 1.35 3.039 3.015-1.36 3.015-3.039 3.015-3.04-1.35-3.04-3.015zm23.304-3.015c-1.679 0-3.04 1.35-3.04 3.015s1.361 3.015 3.04 3.015 3.039-1.35 3.039-3.015-1.36-3.015-3.039-3.015zm17.224 3.015c0-1.665 1.361-3.015 3.04-3.015s3.039 1.35 3.039 3.015-1.36 3.015-3.039 3.015-3.04-1.35-3.04-3.015zm23.304-3.015c-1.679 0-3.04 1.35-3.04 3.015s1.361 3.015 3.04 3.015 3.039-1.35 3.039-3.015-1.36-3.015-3.039-3.015zm17.224 3.015c0-1.665 1.361-3.015 3.04-3.015s3.04 1.35 3.04 3.015-1.361 3.015-3.04 3.015-3.04-1.35-3.04-3.015zm23.304-3.015c-1.679 0-3.04 1.35-3.04 3.015s1.361 3.015 3.04 3.015 3.04-1.35 3.04-3.015-1.361-3.015-3.04-3.015zm17.224 3.015c0-1.665 1.361-3.015 3.04-3.015s3.04 1.35 3.04 3.015-1.361 3.015-3.04 3.015-3.04-1.35-3.04-3.015zm23.304-3.015c-1.679 0-3.04 1.35-3.04 3.015s1.361 3.015 3.04 3.015 3.04-1.35 3.04-3.015-1.361-3.015-3.04-3.015zm17.224 3.015c0-1.665 1.361-3.015 3.04-3.015s3.04 1.35 3.04 3.015-1.361 3.015-3.04 3.015-3.04-1.35-3.04-3.015zm23.304-3.015c-1.679 0-3.04 1.35-3.04 3.015s1.361 3.015 3.04 3.015 3.04-1.35 3.04-3.015-1.361-3.015-3.04-3.015zm17.224 3.015c0-1.665 1.361-3.015 3.04-3.015s3.04 1.35 3.04 3.015-1.361 3.015-3.04 3.015-3.04-1.35-3.04-3.015zm23.304-3.015c-1.679 0-3.039 1.35-3.039 3.015s1.36 3.015 3.039 3.015 3.04-1.35 3.04-3.015-1.361-3.015-3.04-3.015zm17.225 3.015c0-1.665 1.36-3.015 3.039-3.015s3.04 1.35 3.04 3.015-1.361 3.015-3.04 3.015-3.039-1.35-3.039-3.015zm23.303-3.015c-1.679 0-3.039 1.35-3.039 3.015s1.36 3.015 3.039 3.015 3.04-1.35 3.04-3.015-1.361-3.015-3.04-3.015zm17.225 3.015c0-1.665 1.36-3.015 3.039-3.015s3.04 1.35 3.04 3.015-1.361 3.015-3.04 3.015-3.039-1.35-3.039-3.015zm23.303-3.015c-1.679 0-3.039 1.35-3.039 3.015s1.36 3.015 3.039 3.015 3.04-1.35 3.04-3.015-1.361-3.015-3.04-3.015zm17.225 3.015c0-1.665 1.361-3.015 3.039-3.015 1.679 0 3.04 1.35 3.04 3.015s-1.361 3.015-3.04 3.015c-1.678 0-3.039-1.35-3.039-3.015zm23.303-3.015c-1.678 0-3.039 1.35-3.039 3.015s1.361 3.015 3.039 3.015c1.679 0 3.04-1.35 3.04-3.015s-1.361-3.015-3.04-3.015zm17.225 3.015c0-1.665 1.361-3.015 3.039-3.015 1.679 0 3.04 1.35 3.04 3.015s-1.361 3.015-3.04 3.015c-1.678 0-3.039-1.35-3.039-3.015zm23.303-3.015c-1.678 0-3.039 1.35-3.039 3.015s1.361 3.015 3.039 3.015c1.679 0 3.04-1.35 3.04-3.015s-1.361-3.015-3.04-3.015zm17.225 3.015c0-1.665 1.361-3.015 3.039-3.015 1.679 0 3.04 1.35 3.04 3.015s-1.361 3.015-3.04 3.015c-1.678 0-3.039-1.35-3.039-3.015zm23.303-3.015c-1.678 0-3.039 1.35-3.039 3.015s1.361 3.015 3.039 3.015c1.679 0 3.04-1.35 3.04-3.015s-1.361-3.015-3.04-3.015zm17.225 3.015c0-1.665 1.361-3.015 3.039-3.015 1.679 0 3.04 1.35 3.04 3.015s-1.361 3.015-3.04 3.015c-1.678 0-3.039-1.35-3.039-3.015zM0 245c0-1.665 1.36-3.015 3.04-3.015 1.678 0 3.04 1.35 3.04 3.015s-1.362 3.015-3.04 3.015c-1.68 0-3.04-1.35-3.04-3.015zm20.264 0c0-1.665 1.36-3.015 3.04-3.015 1.678 0 3.04 1.35 3.04 3.015s-1.362 3.015-3.04 3.015c-1.68 0-3.04-1.35-3.04-3.015zm23.304-3.015c-1.68 0-3.04 1.35-3.04 3.015s1.36 3.015 3.04 3.015c1.678 0 3.04-1.35 3.04-3.015s-1.362-3.015-3.04-3.015zM60.792 245c0-1.665 1.361-3.015 3.04-3.015 1.678 0 3.04 1.35 3.04 3.015s-1.362 3.015-3.04 3.015c-1.679 0-3.04-1.35-3.04-3.015zm23.304-3.015c-1.679 0-3.04 1.35-3.04 3.015s1.361 3.015 3.04 3.015c1.678 0 3.04-1.35 3.04-3.015s-1.362-3.015-3.04-3.015zM101.32 245c0-1.665 1.361-3.015 3.04-3.015 1.678 0 3.039 1.35 3.039 3.015s-1.361 3.015-3.039 3.015c-1.679 0-3.04-1.35-3.04-3.015zm23.304-3.015c-1.679 0-3.04 1.35-3.04 3.015s1.361 3.015 3.04 3.015c1.678 0 3.039-1.35 3.039-3.015s-1.361-3.015-3.039-3.015zM141.848 245c0-1.665 1.361-3.015 3.04-3.015s3.039 1.35 3.039 3.015-1.36 3.015-3.039 3.015-3.04-1.35-3.04-3.015zm23.304-3.015c-1.679 0-3.04 1.35-3.04 3.015s1.361 3.015 3.04 3.015 3.039-1.35 3.039-3.015-1.36-3.015-3.039-3.015zM182.376 245c0-1.665 1.361-3.015 3.04-3.015s3.039 1.35 3.039 3.015-1.36 3.015-3.039 3.015-3.04-1.35-3.04-3.015zm23.304-3.015c-1.679 0-3.04 1.35-3.04 3.015s1.361 3.015 3.04 3.015 3.039-1.35 3.039-3.015-1.36-3.015-3.039-3.015zM222.904 245c0-1.665 1.361-3.015 3.04-3.015s3.04 1.35 3.04 3.015-1.361 3.015-3.04 3.015-3.04-1.35-3.04-3.015zm23.304-3.015c-1.679 0-3.04 1.35-3.04 3.015s1.361 3.015 3.04 3.015 3.04-1.35 3.04-3.015-1.361-3.015-3.04-3.015zM263.432 245c0-1.665 1.361-3.015 3.04-3.015s3.04 1.35 3.04 3.015-1.361 3.015-3.04 3.015-3.04-1.35-3.04-3.015zm23.304-3.015c-1.679 0-3.04 1.35-3.04 3.015s1.361 3.015 3.04 3.015 3.04-1.35 3.04-3.015-1.361-3.015-3.04-3.015zM303.96 245c0-1.665 1.361-3.015 3.04-3.015s3.04 1.35 3.04 3.015-1.361 3.015-3.04 3.015-3.04-1.35-3.04-3.015zm23.304-3.015c-1.679 0-3.04 1.35-3.04 3.015s1.361 3.015 3.04 3.015 3.04-1.35 3.04-3.015-1.361-3.015-3.04-3.015zM344.488 245c0-1.665 1.361-3.015 3.04-3.015s3.04 1.35 3.04 3.015-1.361 3.015-3.04 3.015-3.04-1.35-3.04-3.015zm23.304-3.015c-1.679 0-3.039 1.35-3.039 3.015s1.36 3.015 3.039 3.015 3.04-1.35 3.04-3.015-1.361-3.015-3.04-3.015zM385.017 245c0-1.665 1.36-3.015 3.039-3.015s3.04 1.35 3.04 3.015-1.361 3.015-3.04 3.015-3.039-1.35-3.039-3.015zm23.303-3.015c-1.679 0-3.039 1.35-3.039 3.015s1.36 3.015 3.039 3.015 3.04-1.35 3.04-3.015-1.361-3.015-3.04-3.015zM425.545 245c0-1.665 1.36-3.015 3.039-3.015s3.04 1.35 3.04 3.015-1.361 3.015-3.04 3.015-3.039-1.35-3.039-3.015zm23.303-3.015c-1.679 0-3.039 1.35-3.039 3.015s1.36 3.015 3.039 3.015 3.04-1.35 3.04-3.015-1.361-3.015-3.04-3.015zM466.073 245c0-1.665 1.361-3.015 3.039-3.015 1.679 0 3.04 1.35 3.04 3.015s-1.361 3.015-3.04 3.015c-1.678 0-3.039-1.35-3.039-3.015zm23.303-3.015c-1.678 0-3.039 1.35-3.039 3.015s1.361 3.015 3.039 3.015c1.679 0 3.04-1.35 3.04-3.015s-1.361-3.015-3.04-3.015zM506.601 245c0-1.665 1.361-3.015 3.039-3.015 1.679 0 3.04 1.35 3.04 3.015s-1.361 3.015-3.04 3.015c-1.678 0-3.039-1.35-3.039-3.015zm23.303-3.015c-1.678 0-3.039 1.35-3.039 3.015s1.361 3.015 3.039 3.015c1.679 0 3.04-1.35 3.04-3.015s-1.361-3.015-3.04-3.015zM547.129 245c0-1.665 1.361-3.015 3.039-3.015 1.679 0 3.04 1.35 3.04 3.015s-1.361 3.015-3.04 3.015c-1.678 0-3.039-1.35-3.039-3.015zm23.303-3.015c-1.678 0-3.039 1.35-3.039 3.015s1.361 3.015 3.039 3.015c1.679 0 3.04-1.35 3.04-3.015s-1.361-3.015-3.04-3.015zM587.657 245c0-1.665 1.361-3.015 3.039-3.015 1.679 0 3.04 1.35 3.04 3.015s-1.361 3.015-3.04 3.015c-1.678 0-3.039-1.35-3.039-3.015zM60.792 265.098c0-1.665 1.361-3.015 3.04-3.015 1.678 0 3.04 1.35 3.04 3.015s-1.362 3.015-3.04 3.015c-1.679 0-3.04-1.35-3.04-3.015zm23.304-3.015c-1.679 0-3.04 1.35-3.04 3.015s1.361 3.015 3.04 3.015c1.678 0 3.04-1.35 3.04-3.015s-1.362-3.015-3.04-3.015zm17.224 3.015c0-1.665 1.361-3.015 3.04-3.015 1.678 0 3.039 1.35 3.039 3.015s-1.361 3.015-3.039 3.015c-1.679 0-3.04-1.35-3.04-3.015zm23.304-3.015c-1.679 0-3.04 1.35-3.04 3.015s1.361 3.015 3.04 3.015c1.678 0 3.039-1.35 3.039-3.015s-1.361-3.015-3.039-3.015zm57.752 3.015c0-1.665 1.361-3.015 3.04-3.015s3.039 1.35 3.039 3.015-1.36 3.015-3.039 3.015-3.04-1.35-3.04-3.015zm23.304-3.015c-1.679 0-3.04 1.35-3.04 3.015s1.361 3.015 3.04 3.015 3.039-1.35 3.039-3.015-1.36-3.015-3.039-3.015zm17.224 3.015c0-1.665 1.361-3.015 3.04-3.015s3.04 1.35 3.04 3.015-1.361 3.015-3.04 3.015-3.04-1.35-3.04-3.015zm23.304-3.015c-1.679 0-3.04 1.35-3.04 3.015s1.361 3.015 3.04 3.015 3.04-1.35 3.04-3.015-1.361-3.015-3.04-3.015zm17.224 3.015c0-1.665 1.361-3.015 3.04-3.015s3.04 1.35 3.04 3.015-1.361 3.015-3.04 3.015-3.04-1.35-3.04-3.015zm23.304-3.015c-1.679 0-3.04 1.35-3.04 3.015s1.361 3.015 3.04 3.015 3.04-1.35 3.04-3.015-1.361-3.015-3.04-3.015zm17.224 3.015c0-1.665 1.361-3.015 3.04-3.015s3.04 1.35 3.04 3.015-1.361 3.015-3.04 3.015-3.04-1.35-3.04-3.015zm23.304-3.015c-1.679 0-3.04 1.35-3.04 3.015s1.361 3.015 3.04 3.015 3.04-1.35 3.04-3.015-1.361-3.015-3.04-3.015zm17.224 3.015c0-1.665 1.361-3.015 3.04-3.015s3.04 1.35 3.04 3.015-1.361 3.015-3.04 3.015-3.04-1.35-3.04-3.015zm23.304-3.015c-1.679 0-3.039 1.35-3.039 3.015s1.36 3.015 3.039 3.015 3.04-1.35 3.04-3.015-1.361-3.015-3.04-3.015zm17.225 3.015c0-1.665 1.36-3.015 3.039-3.015s3.04 1.35 3.04 3.015-1.361 3.015-3.04 3.015-3.039-1.35-3.039-3.015zm23.303-3.015c-1.679 0-3.039 1.35-3.039 3.015s1.36 3.015 3.039 3.015 3.04-1.35 3.04-3.015-1.361-3.015-3.04-3.015zm17.225 3.015c0-1.665 1.36-3.015 3.039-3.015s3.04 1.35 3.04 3.015-1.361 3.015-3.04 3.015-3.039-1.35-3.039-3.015zm23.303-3.015c-1.679 0-3.039 1.35-3.039 3.015s1.36 3.015 3.039 3.015 3.04-1.35 3.04-3.015-1.361-3.015-3.04-3.015zm17.225 3.015c0-1.665 1.361-3.015 3.039-3.015 1.679 0 3.04 1.35 3.04 3.015s-1.361 3.015-3.04 3.015c-1.678 0-3.039-1.35-3.039-3.015zm23.303-3.015c-1.678 0-3.039 1.35-3.039 3.015s1.361 3.015 3.039 3.015c1.679 0 3.04-1.35 3.04-3.015s-1.361-3.015-3.04-3.015zm17.225 3.015c0-1.665 1.361-3.015 3.039-3.015 1.679 0 3.04 1.35 3.04 3.015s-1.361 3.015-3.04 3.015c-1.678 0-3.039-1.35-3.039-3.015zm23.303-3.015c-1.678 0-3.039 1.35-3.039 3.015s1.361 3.015 3.039 3.015c1.679 0 3.04-1.35 3.04-3.015s-1.361-3.015-3.04-3.015zm17.225 3.015c0-1.665 1.361-3.015 3.039-3.015 1.679 0 3.04 1.35 3.04 3.015s-1.361 3.015-3.04 3.015c-1.678 0-3.039-1.35-3.039-3.015zm23.303-3.015c-1.678 0-3.039 1.35-3.039 3.015s1.361 3.015 3.039 3.015c1.679 0 3.04-1.35 3.04-3.015s-1.361-3.015-3.04-3.015zm17.225 3.015c0-1.665 1.361-3.015 3.039-3.015 1.679 0 3.04 1.35 3.04 3.015s-1.361 3.015-3.04 3.015c-1.678 0-3.039-1.35-3.039-3.015zM60.792 285.196c0-1.665 1.361-3.014 3.04-3.014 1.678 0 3.04 1.349 3.04 3.014 0 1.665-1.362 3.015-3.04 3.015-1.679 0-3.04-1.35-3.04-3.015zm23.304-3.014c-1.679 0-3.04 1.349-3.04 3.014 0 1.665 1.361 3.015 3.04 3.015 1.678 0 3.04-1.35 3.04-3.015s-1.362-3.014-3.04-3.014zm17.224 3.014c0-1.665 1.361-3.014 3.04-3.014 1.678 0 3.039 1.349 3.039 3.014 0 1.665-1.361 3.015-3.039 3.015-1.679 0-3.04-1.35-3.04-3.015zm23.304-3.014c-1.679 0-3.04 1.349-3.04 3.014 0 1.665 1.361 3.015 3.04 3.015 1.678 0 3.039-1.35 3.039-3.015s-1.361-3.014-3.039-3.014zm57.752 3.014c0-1.665 1.361-3.014 3.04-3.014s3.039 1.349 3.039 3.014c0 1.665-1.36 3.015-3.039 3.015s-3.04-1.35-3.04-3.015zm23.304-3.014c-1.679 0-3.04 1.349-3.04 3.014 0 1.665 1.361 3.015 3.04 3.015s3.039-1.35 3.039-3.015-1.36-3.014-3.039-3.014zm17.224 3.014c0-1.665 1.361-3.014 3.04-3.014s3.04 1.349 3.04 3.014c0 1.665-1.361 3.015-3.04 3.015s-3.04-1.35-3.04-3.015zm23.304-3.014c-1.679 0-3.04 1.349-3.04 3.014 0 1.665 1.361 3.015 3.04 3.015s3.04-1.35 3.04-3.015-1.361-3.014-3.04-3.014zm17.224 3.014c0-1.665 1.361-3.014 3.04-3.014s3.04 1.349 3.04 3.014c0 1.665-1.361 3.015-3.04 3.015s-3.04-1.35-3.04-3.015zm23.304-3.014c-1.679 0-3.04 1.349-3.04 3.014 0 1.665 1.361 3.015 3.04 3.015s3.04-1.35 3.04-3.015-1.361-3.014-3.04-3.014zm17.224 3.014c0-1.665 1.361-3.014 3.04-3.014s3.04 1.349 3.04 3.014c0 1.665-1.361 3.015-3.04 3.015s-3.04-1.35-3.04-3.015zm23.304-3.014c-1.679 0-3.04 1.349-3.04 3.014 0 1.665 1.361 3.015 3.04 3.015s3.04-1.35 3.04-3.015-1.361-3.014-3.04-3.014zm17.224 3.014c0-1.665 1.361-3.014 3.04-3.014s3.04 1.349 3.04 3.014c0 1.665-1.361 3.015-3.04 3.015s-3.04-1.35-3.04-3.015zm23.304-3.014c-1.679 0-3.039 1.349-3.039 3.014 0 1.665 1.36 3.015 3.039 3.015s3.04-1.35 3.04-3.015-1.361-3.014-3.04-3.014zm17.225 3.014c0-1.665 1.36-3.014 3.039-3.014s3.04 1.349 3.04 3.014c0 1.665-1.361 3.015-3.04 3.015s-3.039-1.35-3.039-3.015zm23.303-3.014c-1.679 0-3.039 1.349-3.039 3.014 0 1.665 1.36 3.015 3.039 3.015s3.04-1.35 3.04-3.015-1.361-3.014-3.04-3.014zm17.225 3.014c0-1.665 1.36-3.014 3.039-3.014s3.04 1.349 3.04 3.014c0 1.665-1.361 3.015-3.04 3.015s-3.039-1.35-3.039-3.015zm23.303-3.014c-1.679 0-3.039 1.349-3.039 3.014 0 1.665 1.36 3.015 3.039 3.015s3.04-1.35 3.04-3.015-1.361-3.014-3.04-3.014zm17.225 3.014c0-1.665 1.361-3.014 3.039-3.014 1.679 0 3.04 1.349 3.04 3.014 0 1.665-1.361 3.015-3.04 3.015-1.678 0-3.039-1.35-3.039-3.015zm23.303-3.014c-1.678 0-3.039 1.349-3.039 3.014 0 1.665 1.361 3.015 3.039 3.015 1.679 0 3.04-1.35 3.04-3.015s-1.361-3.014-3.04-3.014zm17.225 3.014c0-1.665 1.361-3.014 3.039-3.014 1.679 0 3.04 1.349 3.04 3.014 0 1.665-1.361 3.015-3.04 3.015-1.678 0-3.039-1.35-3.039-3.015zm23.303-3.014c-1.678 0-3.039 1.349-3.039 3.014 0 1.665 1.361 3.015 3.039 3.015 1.679 0 3.04-1.35 3.04-3.015s-1.361-3.014-3.04-3.014zm17.225 3.014c0-1.665 1.361-3.014 3.039-3.014 1.679 0 3.04 1.349 3.04 3.014 0 1.665-1.361 3.015-3.04 3.015-1.678 0-3.039-1.35-3.039-3.015zm23.303-3.014c-1.678 0-3.039 1.349-3.039 3.014 0 1.665 1.361 3.015 3.039 3.015 1.679 0 3.04-1.35 3.04-3.015s-1.361-3.014-3.04-3.014zm17.225 3.014c0-1.665 1.361-3.014 3.039-3.014 1.679 0 3.04 1.349 3.04 3.014 0 1.665-1.361 3.015-3.04 3.015-1.678 0-3.039-1.35-3.039-3.015zm-405.281 20.099c0-1.665 1.361-3.015 3.04-3.015s3.039 1.35 3.039 3.015-1.36 3.014-3.039 3.014-3.04-1.349-3.04-3.014zm23.304-3.015c-1.679 0-3.04 1.35-3.04 3.015s1.361 3.014 3.04 3.014 3.039-1.349 3.039-3.014c0-1.665-1.36-3.015-3.039-3.015zm17.224 3.015c0-1.665 1.361-3.015 3.04-3.015s3.04 1.35 3.04 3.015-1.361 3.014-3.04 3.014-3.04-1.349-3.04-3.014zm23.304-3.015c-1.679 0-3.04 1.35-3.04 3.015s1.361 3.014 3.04 3.014 3.04-1.349 3.04-3.014c0-1.665-1.361-3.015-3.04-3.015zm17.224 3.015c0-1.665 1.361-3.015 3.04-3.015s3.04 1.35 3.04 3.015-1.361 3.014-3.04 3.014-3.04-1.349-3.04-3.014zm23.304-3.015c-1.679 0-3.04 1.35-3.04 3.015s1.361 3.014 3.04 3.014 3.04-1.349 3.04-3.014c0-1.665-1.361-3.015-3.04-3.015zm17.224 3.015c0-1.665 1.361-3.015 3.04-3.015s3.04 1.35 3.04 3.015-1.361 3.014-3.04 3.014-3.04-1.349-3.04-3.014zm23.304-3.015c-1.679 0-3.04 1.35-3.04 3.015s1.361 3.014 3.04 3.014 3.04-1.349 3.04-3.014c0-1.665-1.361-3.015-3.04-3.015zm17.224 3.015c0-1.665 1.361-3.015 3.04-3.015s3.04 1.35 3.04 3.015-1.361 3.014-3.04 3.014-3.04-1.349-3.04-3.014zm23.304-3.015c-1.679 0-3.039 1.35-3.039 3.015s1.36 3.014 3.039 3.014 3.04-1.349 3.04-3.014c0-1.665-1.361-3.015-3.04-3.015zm17.225 3.015c0-1.665 1.36-3.015 3.039-3.015s3.04 1.35 3.04 3.015-1.361 3.014-3.04 3.014-3.039-1.349-3.039-3.014zm23.303-3.015c-1.679 0-3.039 1.35-3.039 3.015s1.36 3.014 3.039 3.014 3.04-1.349 3.04-3.014c0-1.665-1.361-3.015-3.04-3.015zm17.225 3.015c0-1.665 1.36-3.015 3.039-3.015s3.04 1.35 3.04 3.015-1.361 3.014-3.04 3.014-3.039-1.349-3.039-3.014zm23.303-3.015c-1.679 0-3.039 1.35-3.039 3.015s1.36 3.014 3.039 3.014 3.04-1.349 3.04-3.014c0-1.665-1.361-3.015-3.04-3.015zm17.225 3.015c0-1.665 1.361-3.015 3.039-3.015 1.679 0 3.04 1.35 3.04 3.015s-1.361 3.014-3.04 3.014c-1.678 0-3.039-1.349-3.039-3.014zm23.303-3.015c-1.678 0-3.039 1.35-3.039 3.015s1.361 3.014 3.039 3.014c1.679 0 3.04-1.349 3.04-3.014 0-1.665-1.361-3.015-3.04-3.015zm17.225 3.015c0-1.665 1.361-3.015 3.039-3.015 1.679 0 3.04 1.35 3.04 3.015s-1.361 3.014-3.04 3.014c-1.678 0-3.039-1.349-3.039-3.014zm23.303-3.015c-1.678 0-3.039 1.35-3.039 3.015s1.361 3.014 3.039 3.014c1.679 0 3.04-1.349 3.04-3.014 0-1.665-1.361-3.015-3.04-3.015zm-347.528 23.113c0-1.665 1.361-3.015 3.04-3.015s3.039 1.35 3.039 3.015-1.36 3.015-3.039 3.015-3.04-1.35-3.04-3.015zm23.304-3.015c-1.679 0-3.04 1.35-3.04 3.015s1.361 3.015 3.04 3.015 3.039-1.35 3.039-3.015-1.36-3.015-3.039-3.015zm17.224 3.015c0-1.665 1.361-3.015 3.04-3.015s3.04 1.35 3.04 3.015-1.361 3.015-3.04 3.015-3.04-1.35-3.04-3.015zm23.304-3.015c-1.679 0-3.04 1.35-3.04 3.015s1.361 3.015 3.04 3.015 3.04-1.35 3.04-3.015-1.361-3.015-3.04-3.015zm57.752 3.015c0-1.665 1.361-3.015 3.04-3.015s3.04 1.35 3.04 3.015-1.361 3.015-3.04 3.015-3.04-1.35-3.04-3.015zm23.304-3.015c-1.679 0-3.04 1.35-3.04 3.015s1.361 3.015 3.04 3.015 3.04-1.35 3.04-3.015-1.361-3.015-3.04-3.015zm17.224 3.015c0-1.665 1.361-3.015 3.04-3.015s3.04 1.35 3.04 3.015-1.361 3.015-3.04 3.015-3.04-1.35-3.04-3.015zm23.304-3.015c-1.679 0-3.039 1.35-3.039 3.015s1.36 3.015 3.039 3.015 3.04-1.35 3.04-3.015-1.361-3.015-3.04-3.015zm17.225 3.015c0-1.665 1.36-3.015 3.039-3.015s3.04 1.35 3.04 3.015-1.361 3.015-3.04 3.015-3.039-1.35-3.039-3.015zm23.303-3.015c-1.679 0-3.039 1.35-3.039 3.015s1.36 3.015 3.039 3.015 3.04-1.35 3.04-3.015-1.361-3.015-3.04-3.015zm17.225 3.015c0-1.665 1.36-3.015 3.039-3.015s3.04 1.35 3.04 3.015-1.361 3.015-3.04 3.015-3.039-1.35-3.039-3.015zm23.303-3.015c-1.679 0-3.039 1.35-3.039 3.015s1.36 3.015 3.039 3.015 3.04-1.35 3.04-3.015-1.361-3.015-3.04-3.015zm17.225 3.015c0-1.665 1.361-3.015 3.039-3.015 1.679 0 3.04 1.35 3.04 3.015s-1.361 3.015-3.04 3.015c-1.678 0-3.039-1.35-3.039-3.015zm23.303-3.015c-1.678 0-3.039 1.35-3.039 3.015s1.361 3.015 3.039 3.015c1.679 0 3.04-1.35 3.04-3.015s-1.361-3.015-3.04-3.015zm17.225 3.015c0-1.665 1.361-3.015 3.039-3.015 1.679 0 3.04 1.35 3.04 3.015s-1.361 3.015-3.04 3.015c-1.678 0-3.039-1.35-3.039-3.015zm23.303-3.015c-1.678 0-3.039 1.35-3.039 3.015s1.361 3.015 3.039 3.015c1.679 0 3.04-1.35 3.04-3.015s-1.361-3.015-3.04-3.015zm-307 23.113c0-1.665 1.361-3.015 3.04-3.015s3.04 1.35 3.04 3.015-1.361 3.015-3.04 3.015-3.04-1.35-3.04-3.015zm23.304-3.015c-1.679 0-3.04 1.35-3.04 3.015s1.361 3.015 3.04 3.015 3.04-1.35 3.04-3.015-1.361-3.015-3.04-3.015zm57.752 3.015c0-1.665 1.361-3.015 3.04-3.015s3.04 1.35 3.04 3.015-1.361 3.015-3.04 3.015-3.04-1.35-3.04-3.015zm23.304-3.015c-1.679 0-3.04 1.35-3.04 3.015s1.361 3.015 3.04 3.015 3.04-1.35 3.04-3.015-1.361-3.015-3.04-3.015zm17.224 3.015c0-1.665 1.361-3.015 3.04-3.015s3.04 1.35 3.04 3.015-1.361 3.015-3.04 3.015-3.04-1.35-3.04-3.015zm23.304-3.015c-1.679 0-3.039 1.35-3.039 3.015s1.36 3.015 3.039 3.015 3.04-1.35 3.04-3.015-1.361-3.015-3.04-3.015zm17.225 3.015c0-1.665 1.36-3.015 3.039-3.015s3.04 1.35 3.04 3.015-1.361 3.015-3.04 3.015-3.039-1.35-3.039-3.015zm23.303-3.015c-1.679 0-3.039 1.35-3.039 3.015s1.36 3.015 3.039 3.015 3.04-1.35 3.04-3.015-1.361-3.015-3.04-3.015zm17.225 3.015c0-1.665 1.36-3.015 3.039-3.015s3.04 1.35 3.04 3.015-1.361 3.015-3.04 3.015-3.039-1.35-3.039-3.015zm23.303-3.015c-1.679 0-3.039 1.35-3.039 3.015s1.36 3.015 3.039 3.015 3.04-1.35 3.04-3.015-1.361-3.015-3.04-3.015zm-225.944 23.113c0-1.665 1.361-3.015 3.04-3.015s3.04 1.35 3.04 3.015-1.361 3.015-3.04 3.015-3.04-1.35-3.04-3.015zm23.304-3.015c-1.679 0-3.04 1.35-3.04 3.015s1.361 3.015 3.04 3.015 3.04-1.35 3.04-3.015-1.361-3.015-3.04-3.015zm57.752 3.015c0-1.665 1.361-3.015 3.04-3.015s3.04 1.35 3.04 3.015-1.361 3.015-3.04 3.015-3.04-1.35-3.04-3.015zm23.304-3.015c-1.679 0-3.04 1.35-3.04 3.015s1.361 3.015 3.04 3.015 3.04-1.35 3.04-3.015-1.361-3.015-3.04-3.015zm17.224 3.015c0-1.665 1.361-3.015 3.04-3.015s3.04 1.35 3.04 3.015-1.361 3.015-3.04 3.015-3.04-1.35-3.04-3.015zm23.304-3.015c-1.679 0-3.039 1.35-3.039 3.015s1.36 3.015 3.039 3.015 3.04-1.35 3.04-3.015-1.361-3.015-3.04-3.015zm17.225 3.015c0-1.665 1.36-3.015 3.039-3.015s3.04 1.35 3.04 3.015-1.361 3.015-3.04 3.015-3.039-1.35-3.039-3.015zm23.303-3.015c-1.679 0-3.039 1.35-3.039 3.015s1.36 3.015 3.039 3.015 3.04-1.35 3.04-3.015-1.361-3.015-3.04-3.015zm17.225 3.015c0-1.665 1.36-3.015 3.039-3.015s3.04 1.35 3.04 3.015-1.361 3.015-3.04 3.015-3.039-1.35-3.039-3.015zm23.303-3.015c-1.679 0-3.039 1.35-3.039 3.015s1.36 3.015 3.039 3.015 3.04-1.35 3.04-3.015-1.361-3.015-3.04-3.015z" opacity=".1" fill="#162948"></path><path d="M243.432 184.696c0-1.665 1.361-3.015 3.04-3.015s3.04 1.35 3.04 3.015-1.361 3.015-3.04 3.015-3.04-1.35-3.04-3.015zm23.304 17.083c-1.679 0-3.04 1.35-3.04 3.015s1.361 3.015 3.04 3.015 3.04-1.35 3.04-3.015-1.361-3.015-3.04-3.015zm-104.36 23.113c0-1.665 1.361-3.014 3.04-3.014s3.04 1.349 3.04 3.014c0 1.665-1.361 3.015-3.04 3.015s-3.04-1.35-3.04-3.015zm23.304-3.014c-1.679 0-3.04 1.349-3.04 3.014 0 1.665 1.361 3.015 3.04 3.015s3.04-1.35 3.04-3.015-1.361-3.014-3.04-3.014zm17.224 3.014c0-1.665 1.361-3.014 3.04-3.014s3.04 1.349 3.04 3.014c0 1.665-1.361 3.015-3.04 3.015s-3.04-1.35-3.04-3.015zm23.304-3.014c-1.679 0-3.04 1.349-3.04 3.014 0 1.665 1.361 3.015 3.04 3.015s3.04-1.35 3.04-3.015-1.361-3.014-3.04-3.014zm17.224 3.014c0-1.665 1.361-3.014 3.04-3.014s3.04 1.349 3.04 3.014c0 1.665-1.361 3.015-3.04 3.015s-3.04-1.35-3.04-3.015zm23.304-3.014c-1.679 0-3.04 1.349-3.04 3.014 0 1.665 1.361 3.015 3.04 3.015s3.04-1.35 3.04-3.015-1.361-3.014-3.04-3.014zm17.224 3.014c0-1.665 1.361-3.014 3.04-3.014s3.04 1.349 3.04 3.014c0 1.665-1.361 3.015-3.04 3.015s-3.04-1.35-3.04-3.015zm-17.224 17.084c-1.679 0-3.04 1.349-3.04 3.014 0 1.665 1.361 3.015 3.04 3.015s3.04-1.35 3.04-3.015-1.361-3.014-3.04-3.014zm-23.304 23.113c0-1.665 1.361-3.015 3.04-3.015s3.04 1.35 3.04 3.015-1.361 3.014-3.04 3.014-3.04-1.349-3.04-3.014zm-98.274-43.196c-1.678 0-3.039 1.35-3.039 3.015s1.361 3.014 3.039 3.014c1.679 0 3.04-1.349 3.04-3.014 0-1.665-1.361-3.015-3.04-3.015z" fill="#74E6C1"></path></svg> 