<?xml version="1.0" encoding="UTF-8"?> <svg xmlns="http://www.w3.org/2000/svg" width="312" height="254" viewBox="0 0 312 254" fill="none"><g opacity="0.1"><path d="M174.615 253.295C176.195 253.295 177.476 252.029 177.476 250.467C177.476 248.905 176.195 247.639 174.615 247.639C173.034 247.639 171.753 248.905 171.753 250.467C171.753 252.029 173.034 253.295 174.615 253.295Z" fill="#162948"></path><path d="M158.401 250.467C158.401 252.029 157.12 253.295 155.54 253.295C153.959 253.295 152.678 252.029 152.678 250.467C152.678 248.905 153.959 247.639 155.54 247.639C157.12 247.639 158.401 248.905 158.401 250.467Z" fill="#162948"></path><path d="M136.464 253.295C138.045 253.295 139.326 252.029 139.326 250.467C139.326 248.905 138.045 247.639 136.464 247.639C134.884 247.639 133.603 248.905 133.603 250.467C133.603 252.029 134.884 253.295 136.464 253.295Z" fill="#162948"></path><path d="M120.251 250.467C120.251 252.029 118.969 253.295 117.389 253.295C115.809 253.295 114.528 252.029 114.528 250.467C114.528 248.905 115.809 247.639 117.389 247.639C118.969 247.639 120.251 248.905 120.251 250.467Z" fill="#162948"></path><path d="M98.3141 253.295C99.8943 253.295 101.175 252.029 101.175 250.467C101.175 248.905 99.8943 247.639 98.3141 247.639C96.7338 247.639 95.4528 248.905 95.4528 250.467C95.4528 252.029 96.7338 253.295 98.3141 253.295Z" fill="#162948"></path><path d="M82.1002 250.467C82.1002 252.029 80.8192 253.295 79.2389 253.295C77.6587 253.295 76.3777 252.029 76.3777 250.467C76.3777 248.905 77.6587 247.639 79.2389 247.639C80.8192 247.639 82.1002 248.905 82.1002 250.467Z" fill="#162948"></path><path d="M60.1638 253.295C61.744 253.295 63.0251 252.029 63.0251 250.467C63.0251 248.905 61.744 247.639 60.1638 247.639C58.5835 247.639 57.3025 248.905 57.3025 250.467C57.3025 252.029 58.5835 253.295 60.1638 253.295Z" fill="#162948"></path><path d="M174.615 234.443C176.195 234.443 177.476 233.177 177.476 231.615C177.476 230.053 176.195 228.787 174.615 228.787C173.034 228.787 171.753 230.053 171.753 231.615C171.753 233.177 173.034 234.443 174.615 234.443Z" fill="#162948"></path><path d="M158.401 231.615C158.401 233.177 157.12 234.443 155.54 234.443C153.959 234.443 152.678 233.177 152.678 231.615C152.678 230.053 153.959 228.787 155.54 228.787C157.12 228.787 158.401 230.053 158.401 231.615Z" fill="#162948"></path><path d="M136.464 234.443C138.045 234.443 139.326 233.177 139.326 231.615C139.326 230.053 138.045 228.787 136.464 228.787C134.884 228.787 133.603 230.053 133.603 231.615C133.603 233.177 134.884 234.443 136.464 234.443Z" fill="#162948"></path><path d="M120.251 231.615C120.251 233.177 118.969 234.443 117.389 234.443C115.809 234.443 114.528 233.177 114.528 231.615C114.528 230.053 115.809 228.787 117.389 228.787C118.969 228.787 120.251 230.053 120.251 231.615Z" fill="#162948"></path><path d="M98.3141 234.443C99.8943 234.443 101.175 233.177 101.175 231.615C101.175 230.053 99.8943 228.787 98.3141 228.787C96.7338 228.787 95.4528 230.053 95.4528 231.615C95.4528 233.177 96.7338 234.443 98.3141 234.443Z" fill="#162948"></path><path d="M82.1002 231.615C82.1002 233.177 80.8192 234.443 79.2389 234.443C77.6587 234.443 76.3777 233.177 76.3777 231.615C76.3777 230.053 77.6587 228.787 79.2389 228.787C80.8192 228.787 82.1002 230.053 82.1002 231.615Z" fill="#162948"></path><path d="M60.1638 234.443C61.744 234.443 63.0251 233.177 63.0251 231.615C63.0251 230.053 61.744 228.787 60.1638 228.787C58.5835 228.787 57.3025 230.053 57.3025 231.615C57.3025 233.177 58.5835 234.443 60.1638 234.443Z" fill="#162948"></path><path d="M43.9499 231.615C43.9499 233.177 42.6689 234.443 41.0887 234.443C39.5084 234.443 38.2274 233.177 38.2274 231.615C38.2274 230.053 39.5084 228.787 41.0887 228.787C42.6689 228.787 43.9499 230.053 43.9499 231.615Z" fill="#162948"></path><path d="M234.701 212.762C234.701 214.324 233.42 215.59 231.84 215.59C230.26 215.59 228.979 214.324 228.979 212.762C228.979 211.201 230.26 209.935 231.84 209.935C233.42 209.935 234.701 211.201 234.701 212.762Z" fill="#162948"></path><path d="M212.765 215.59C214.345 215.59 215.626 214.324 215.626 212.762C215.626 211.201 214.345 209.935 212.765 209.935C211.185 209.935 209.904 211.201 209.904 212.762C209.904 214.324 211.185 215.59 212.765 215.59Z" fill="#162948"></path><path d="M196.551 212.762C196.551 214.324 195.27 215.59 193.69 215.59C192.11 215.59 190.829 214.324 190.829 212.762C190.829 211.201 192.11 209.935 193.69 209.935C195.27 209.935 196.551 211.201 196.551 212.762Z" fill="#162948"></path><path d="M174.615 215.59C176.195 215.59 177.476 214.324 177.476 212.762C177.476 211.201 176.195 209.935 174.615 209.935C173.034 209.935 171.753 211.201 171.753 212.762C171.753 214.324 173.034 215.59 174.615 215.59Z" fill="#162948"></path><path d="M158.401 212.762C158.401 214.324 157.12 215.59 155.54 215.59C153.959 215.59 152.678 214.324 152.678 212.762C152.678 211.201 153.959 209.935 155.54 209.935C157.12 209.935 158.401 211.201 158.401 212.762Z" fill="#162948"></path><path d="M136.464 215.59C138.045 215.59 139.326 214.324 139.326 212.762C139.326 211.201 138.045 209.935 136.464 209.935C134.884 209.935 133.603 211.201 133.603 212.762C133.603 214.324 134.884 215.59 136.464 215.59Z" fill="#162948"></path><path d="M120.251 212.762C120.251 214.324 118.969 215.59 117.389 215.59C115.809 215.59 114.528 214.324 114.528 212.762C114.528 211.201 115.809 209.934 117.389 209.934C118.969 209.935 120.251 211.201 120.251 212.762Z" fill="#162948"></path><path d="M98.3141 215.59C99.8943 215.59 101.175 214.324 101.175 212.762C101.175 211.201 99.8943 209.934 98.3141 209.934C96.7338 209.934 95.4528 211.201 95.4528 212.762C95.4528 214.324 96.7338 215.59 98.3141 215.59Z" fill="#162948"></path><path d="M82.1002 212.762C82.1002 214.324 80.8192 215.59 79.2389 215.59C77.6587 215.59 76.3777 214.324 76.3777 212.762C76.3777 211.201 77.6587 209.934 79.2389 209.934C80.8192 209.934 82.1002 211.201 82.1002 212.762Z" fill="#162948"></path><path d="M60.1638 215.59C61.744 215.59 63.0251 214.324 63.0251 212.762C63.0251 211.201 61.744 209.934 60.1638 209.934C58.5835 209.934 57.3025 211.201 57.3025 212.762C57.3025 214.324 58.5835 215.59 60.1638 215.59Z" fill="#162948"></path><path d="M43.9499 212.762C43.9499 214.324 42.6689 215.59 41.0887 215.59C39.5084 215.59 38.2274 214.324 38.2274 212.762C38.2274 211.201 39.5084 209.934 41.0887 209.934C42.6689 209.934 43.9499 211.201 43.9499 212.762Z" fill="#162948"></path><path d="M234.701 193.91C234.701 195.472 233.42 196.738 231.84 196.738C230.26 196.738 228.979 195.472 228.979 193.91C228.979 192.348 230.26 191.082 231.84 191.082C233.42 191.082 234.701 192.348 234.701 193.91Z" fill="#162948"></path><path d="M212.765 196.738C214.345 196.738 215.626 195.472 215.626 193.91C215.626 192.348 214.345 191.082 212.765 191.082C211.185 191.082 209.904 192.348 209.904 193.91C209.904 195.472 211.185 196.738 212.765 196.738Z" fill="#162948"></path><path d="M196.551 193.91C196.551 195.472 195.27 196.738 193.69 196.738C192.11 196.738 190.829 195.472 190.829 193.91C190.829 192.348 192.11 191.082 193.69 191.082C195.27 191.082 196.551 192.348 196.551 193.91Z" fill="#162948"></path><path d="M174.615 196.738C176.195 196.738 177.476 195.472 177.476 193.91C177.476 192.348 176.195 191.082 174.615 191.082C173.034 191.082 171.753 192.348 171.753 193.91C171.753 195.472 173.034 196.738 174.615 196.738Z" fill="#162948"></path><path d="M158.401 193.91C158.401 195.472 157.12 196.738 155.54 196.738C153.959 196.738 152.678 195.472 152.678 193.91C152.678 192.348 153.959 191.082 155.54 191.082C157.12 191.082 158.401 192.348 158.401 193.91Z" fill="#162948"></path><path d="M136.464 196.738C138.045 196.738 139.326 195.472 139.326 193.91C139.326 192.348 138.045 191.082 136.464 191.082C134.884 191.082 133.603 192.348 133.603 193.91C133.603 195.472 134.884 196.738 136.464 196.738Z" fill="#162948"></path><path d="M120.251 193.91C120.251 195.472 118.969 196.738 117.389 196.738C115.809 196.738 114.528 195.472 114.528 193.91C114.528 192.348 115.809 191.082 117.389 191.082C118.969 191.082 120.251 192.348 120.251 193.91Z" fill="#162948"></path><path d="M98.3141 196.738C99.8943 196.738 101.175 195.472 101.175 193.91C101.175 192.348 99.8943 191.082 98.3141 191.082C96.7338 191.082 95.4528 192.348 95.4528 193.91C95.4528 195.472 96.7338 196.738 98.3141 196.738Z" fill="#162948"></path><path d="M82.1002 193.91C82.1002 195.472 80.8192 196.738 79.2389 196.738C77.6587 196.738 76.3777 195.472 76.3777 193.91C76.3777 192.348 77.6587 191.082 79.2389 191.082C80.8192 191.082 82.1002 192.348 82.1002 193.91Z" fill="#162948"></path><path d="M60.1638 196.738C61.744 196.738 63.0251 195.472 63.0251 193.91C63.0251 192.348 61.744 191.082 60.1638 191.082C58.5835 191.082 57.3025 192.348 57.3025 193.91C57.3025 195.472 58.5835 196.738 60.1638 196.738Z" fill="#162948"></path><path d="M43.9499 193.91C43.9499 195.472 42.6689 196.738 41.0887 196.738C39.5084 196.738 38.2274 195.472 38.2274 193.91C38.2274 192.348 39.5084 191.082 41.0887 191.082C42.6689 191.082 43.9499 192.348 43.9499 193.91Z" fill="#162948"></path><path d="M22.0135 196.738C23.5937 196.738 24.8748 195.472 24.8748 193.91C24.8748 192.348 23.5937 191.082 22.0135 191.082C20.4333 191.082 19.1522 192.348 19.1522 193.91C19.1522 195.472 20.4333 196.738 22.0135 196.738Z" fill="#162948"></path><path d="M289.066 176.18C290.646 176.18 291.927 174.914 291.927 173.353C291.927 171.791 290.646 170.525 289.066 170.525C287.485 170.525 286.204 171.791 286.204 173.353C286.204 174.914 287.485 176.18 289.066 176.18Z" fill="#162948"></path><path d="M272.852 173.353C272.852 174.914 271.571 176.18 269.99 176.18C268.41 176.18 267.129 174.914 267.129 173.353C267.129 171.791 268.41 170.525 269.99 170.525C271.571 170.525 272.852 171.791 272.852 173.353Z" fill="#162948"></path><path d="M250.915 176.18C252.495 176.18 253.777 174.914 253.777 173.353C253.777 171.791 252.495 170.525 250.915 170.525C249.335 170.525 248.054 171.791 248.054 173.353C248.054 174.914 249.335 176.18 250.915 176.18Z" fill="#162948"></path><path d="M234.701 173.353C234.701 174.914 233.42 176.18 231.84 176.18C230.26 176.18 228.979 174.914 228.979 173.353C228.979 171.791 230.26 170.525 231.84 170.525C233.42 170.525 234.701 171.791 234.701 173.353Z" fill="#162948"></path><path d="M212.765 176.18C214.345 176.18 215.626 174.914 215.626 173.353C215.626 171.791 214.345 170.525 212.765 170.525C211.185 170.525 209.904 171.791 209.904 173.353C209.904 174.914 211.185 176.18 212.765 176.18Z" fill="#162948"></path><path d="M196.551 173.353C196.551 174.914 195.27 176.18 193.69 176.18C192.11 176.18 190.829 174.914 190.829 173.353C190.829 171.791 192.11 170.525 193.69 170.525C195.27 170.525 196.551 171.791 196.551 173.353Z" fill="#162948"></path><path d="M174.615 176.18C176.195 176.18 177.476 174.914 177.476 173.353C177.476 171.791 176.195 170.525 174.615 170.525C173.034 170.525 171.753 171.791 171.753 173.353C171.753 174.914 173.034 176.18 174.615 176.18Z" fill="#162948"></path><path d="M158.401 173.353C158.401 174.914 157.12 176.18 155.54 176.18C153.959 176.18 152.678 174.914 152.678 173.353C152.678 171.791 153.959 170.525 155.54 170.525C157.12 170.525 158.401 171.791 158.401 173.353Z" fill="#162948"></path><path d="M136.464 176.18C138.045 176.18 139.326 174.914 139.326 173.353C139.326 171.791 138.045 170.525 136.464 170.525C134.884 170.525 133.603 171.791 133.603 173.353C133.603 174.914 134.884 176.18 136.464 176.18Z" fill="#162948"></path><path d="M120.251 173.353C120.251 174.914 118.969 176.18 117.389 176.18C115.809 176.18 114.528 174.914 114.528 173.353C114.528 171.791 115.809 170.525 117.389 170.525C118.969 170.525 120.251 171.791 120.251 173.353Z" fill="#162948"></path><path d="M98.3141 176.18C99.8943 176.18 101.175 174.914 101.175 173.353C101.175 171.791 99.8943 170.525 98.3141 170.525C96.7338 170.525 95.4528 171.791 95.4528 173.353C95.4528 174.914 96.7338 176.18 98.3141 176.18Z" fill="#162948"></path><path d="M82.1002 173.353C82.1002 174.914 80.8192 176.18 79.2389 176.18C77.6587 176.18 76.3777 174.914 76.3777 173.353C76.3777 171.791 77.6587 170.525 79.2389 170.525C80.8192 170.525 82.1002 171.791 82.1002 173.353Z" fill="#162948"></path><path d="M60.1638 176.18C61.744 176.18 63.0251 174.914 63.0251 173.353C63.0251 171.791 61.744 170.525 60.1638 170.525C58.5835 170.525 57.3025 171.791 57.3025 173.353C57.3025 174.914 58.5835 176.18 60.1638 176.18Z" fill="#162948"></path><path d="M43.9499 173.353C43.9499 174.914 42.6689 176.18 41.0887 176.18C39.5084 176.18 38.2274 174.914 38.2274 173.353C38.2274 171.791 39.5084 170.525 41.0887 170.525C42.6689 170.525 43.9499 171.791 43.9499 173.353Z" fill="#162948"></path><path d="M22.0135 176.18C23.5937 176.18 24.8748 174.914 24.8748 173.353C24.8748 171.791 23.5937 170.525 22.0135 170.525C20.4333 170.525 19.1522 171.791 19.1522 173.353C19.1522 174.914 20.4333 176.18 22.0135 176.18Z" fill="#162948"></path><path d="M5.7996 173.353C5.7996 174.914 4.51859 176.18 2.93836 176.18C1.35813 176.18 0.0770943 174.914 0.0770944 173.353C0.0770945 171.791 1.35813 170.525 2.93836 170.525C4.51859 170.525 5.7996 171.791 5.7996 173.353Z" fill="#162948"></path><path d="M289.066 157.328C290.646 157.328 291.927 156.062 291.927 154.5C291.927 152.938 290.646 151.672 289.066 151.672C287.485 151.672 286.204 152.938 286.204 154.5C286.204 156.062 287.485 157.328 289.066 157.328Z" fill="#162948"></path><path d="M272.852 154.5C272.852 156.062 271.571 157.328 269.99 157.328C268.41 157.328 267.129 156.062 267.129 154.5C267.129 152.938 268.41 151.672 269.99 151.672C271.571 151.672 272.852 152.938 272.852 154.5Z" fill="#162948"></path><path d="M250.915 157.328C252.495 157.328 253.777 156.062 253.777 154.5C253.777 152.938 252.495 151.672 250.915 151.672C249.335 151.672 248.054 152.938 248.054 154.5C248.054 156.062 249.335 157.328 250.915 157.328Z" fill="#162948"></path><path d="M234.701 154.5C234.701 156.062 233.42 157.328 231.84 157.328C230.26 157.328 228.979 156.062 228.979 154.5C228.979 152.938 230.26 151.672 231.84 151.672C233.42 151.672 234.701 152.938 234.701 154.5Z" fill="#162948"></path><path d="M212.765 157.328C214.345 157.328 215.626 156.062 215.626 154.5C215.626 152.938 214.345 151.672 212.765 151.672C211.185 151.672 209.904 152.938 209.904 154.5C209.904 156.062 211.185 157.328 212.765 157.328Z" fill="#162948"></path><path d="M196.551 154.5C196.551 156.062 195.27 157.328 193.69 157.328C192.11 157.328 190.829 156.062 190.829 154.5C190.829 152.938 192.11 151.672 193.69 151.672C195.27 151.672 196.551 152.938 196.551 154.5Z" fill="#162948"></path><path d="M174.615 157.328C176.195 157.328 177.476 156.062 177.476 154.5C177.476 152.938 176.195 151.672 174.615 151.672C173.034 151.672 171.753 152.938 171.753 154.5C171.753 156.062 173.034 157.328 174.615 157.328Z" fill="#162948"></path><path d="M158.401 154.5C158.401 156.062 157.12 157.328 155.54 157.328C153.959 157.328 152.678 156.062 152.678 154.5C152.678 152.938 153.959 151.672 155.54 151.672C157.12 151.672 158.401 152.938 158.401 154.5Z" fill="#162948"></path><path d="M136.464 157.328C138.045 157.328 139.326 156.062 139.326 154.5C139.326 152.938 138.045 151.672 136.464 151.672C134.884 151.672 133.603 152.938 133.603 154.5C133.603 156.062 134.884 157.328 136.464 157.328Z" fill="#162948"></path><path d="M120.251 154.5C120.251 156.062 118.969 157.328 117.389 157.328C115.809 157.328 114.528 156.062 114.528 154.5C114.528 152.938 115.809 151.672 117.389 151.672C118.969 151.672 120.251 152.938 120.251 154.5Z" fill="#162948"></path><path d="M98.3141 157.328C99.8943 157.328 101.175 156.062 101.175 154.5C101.175 152.938 99.8943 151.672 98.3141 151.672C96.7338 151.672 95.4528 152.938 95.4528 154.5C95.4528 156.062 96.7338 157.328 98.3141 157.328Z" fill="#162948"></path><path d="M82.1002 154.5C82.1002 156.062 80.8192 157.328 79.2389 157.328C77.6587 157.328 76.3777 156.062 76.3777 154.5C76.3777 152.938 77.6587 151.672 79.2389 151.672C80.8192 151.672 82.1002 152.938 82.1002 154.5Z" fill="#162948"></path><path d="M60.1638 157.328C61.744 157.328 63.0251 156.062 63.0251 154.5C63.0251 152.938 61.744 151.672 60.1638 151.672C58.5835 151.672 57.3025 152.938 57.3025 154.5C57.3025 156.062 58.5835 157.328 60.1638 157.328Z" fill="#162948"></path><path d="M43.9499 154.5C43.9499 156.062 42.6689 157.328 41.0887 157.328C39.5084 157.328 38.2274 156.062 38.2274 154.5C38.2274 152.938 39.5084 151.672 41.0887 151.672C42.6689 151.672 43.9499 152.938 43.9499 154.5Z" fill="#162948"></path><path d="M22.0135 157.328C23.5937 157.328 24.8748 156.062 24.8748 154.5C24.8748 152.938 23.5937 151.672 22.0135 151.672C20.4333 151.672 19.1522 152.938 19.1522 154.5C19.1522 156.062 20.4333 157.328 22.0135 157.328Z" fill="#162948"></path><path d="M5.7996 154.5C5.7996 156.062 4.51859 157.328 2.93836 157.328C1.35813 157.328 0.0770959 156.062 0.077096 154.5C0.0770962 152.938 1.35813 151.672 2.93836 151.672C4.51859 151.672 5.7996 152.938 5.7996 154.5Z" fill="#162948"></path><path d="M289.066 138.476C290.646 138.476 291.927 137.209 291.927 135.648C291.927 134.086 290.646 132.82 289.066 132.82C287.485 132.82 286.204 134.086 286.204 135.648C286.204 137.209 287.485 138.476 289.066 138.476Z" fill="#162948"></path><path d="M272.852 135.648C272.852 137.209 271.571 138.476 269.99 138.476C268.41 138.476 267.129 137.209 267.129 135.648C267.129 134.086 268.41 132.82 269.99 132.82C271.571 132.82 272.852 134.086 272.852 135.648Z" fill="#162948"></path><path d="M250.915 138.476C252.495 138.476 253.777 137.209 253.777 135.648C253.777 134.086 252.495 132.82 250.915 132.82C249.335 132.82 248.054 134.086 248.054 135.648C248.054 137.209 249.335 138.476 250.915 138.476Z" fill="#162948"></path><path d="M234.701 135.648C234.701 137.209 233.42 138.476 231.84 138.476C230.26 138.476 228.979 137.209 228.979 135.648C228.979 134.086 230.26 132.82 231.84 132.82C233.42 132.82 234.701 134.086 234.701 135.648Z" fill="#162948"></path><path d="M212.765 138.476C214.345 138.476 215.626 137.209 215.626 135.648C215.626 134.086 214.345 132.82 212.765 132.82C211.185 132.82 209.904 134.086 209.904 135.648C209.904 137.209 211.185 138.476 212.765 138.476Z" fill="#162948"></path><path d="M196.551 135.648C196.551 137.209 195.27 138.475 193.69 138.475C192.11 138.475 190.829 137.209 190.829 135.648C190.829 134.086 192.11 132.82 193.69 132.82C195.27 132.82 196.551 134.086 196.551 135.648Z" fill="#162948"></path><path d="M174.615 138.475C176.195 138.475 177.476 137.209 177.476 135.648C177.476 134.086 176.195 132.82 174.615 132.82C173.034 132.82 171.753 134.086 171.753 135.648C171.753 137.209 173.034 138.475 174.615 138.475Z" fill="#162948"></path><path d="M158.401 135.648C158.401 137.209 157.12 138.475 155.54 138.475C153.959 138.475 152.678 137.209 152.678 135.648C152.678 134.086 153.959 132.82 155.54 132.82C157.12 132.82 158.401 134.086 158.401 135.648Z" fill="#162948"></path><path d="M136.464 138.475C138.045 138.475 139.326 137.209 139.326 135.648C139.326 134.086 138.045 132.82 136.464 132.82C134.884 132.82 133.603 134.086 133.603 135.648C133.603 137.209 134.884 138.475 136.464 138.475Z" fill="#162948"></path><path d="M120.251 135.648C120.251 137.209 118.969 138.475 117.389 138.475C115.809 138.475 114.528 137.209 114.528 135.648C114.528 134.086 115.809 132.82 117.389 132.82C118.969 132.82 120.251 134.086 120.251 135.648Z" fill="#162948"></path><path d="M98.3141 138.475C99.8943 138.475 101.175 137.209 101.175 135.648C101.175 134.086 99.8943 132.82 98.3141 132.82C96.7338 132.82 95.4528 134.086 95.4528 135.648C95.4528 137.209 96.7338 138.475 98.3141 138.475Z" fill="#162948"></path><path d="M82.1002 135.648C82.1002 137.209 80.8192 138.475 79.2389 138.475C77.6587 138.475 76.3777 137.209 76.3777 135.648C76.3777 134.086 77.6587 132.82 79.2389 132.82C80.8192 132.82 82.1002 134.086 82.1002 135.648Z" fill="#162948"></path><path d="M60.1638 138.475C61.744 138.475 63.0251 137.209 63.0251 135.648C63.0251 134.086 61.744 132.82 60.1638 132.82C58.5835 132.82 57.3025 134.086 57.3025 135.648C57.3025 137.209 58.5835 138.475 60.1638 138.475Z" fill="#162948"></path><path d="M43.9499 135.648C43.9499 137.209 42.6689 138.475 41.0887 138.475C39.5084 138.475 38.2274 137.209 38.2274 135.648C38.2274 134.086 39.5084 132.82 41.0887 132.82C42.6689 132.82 43.9499 134.086 43.9499 135.648Z" fill="#162948"></path><path d="M22.0135 138.475C23.5937 138.475 24.8748 137.209 24.8748 135.648C24.8748 134.086 23.5937 132.82 22.0135 132.82C20.4333 132.82 19.1522 134.086 19.1522 135.648C19.1522 137.209 20.4333 138.475 22.0135 138.475Z" fill="#162948"></path><path d="M5.7996 135.648C5.7996 137.209 4.5186 138.475 2.93836 138.475C1.35813 138.475 0.0770976 137.209 0.0770977 135.648C0.0770978 134.086 1.35813 132.82 2.93837 132.82C4.5186 132.82 5.7996 134.086 5.7996 135.648Z" fill="#162948"></path><path d="M311.002 116.795C311.002 118.357 309.721 119.623 308.141 119.623C306.56 119.623 305.279 118.357 305.279 116.795C305.279 115.233 306.56 113.967 308.141 113.967C309.721 113.967 311.002 115.233 311.002 116.795Z" fill="#162948"></path><path d="M289.066 119.623C290.646 119.623 291.927 118.357 291.927 116.795C291.927 115.233 290.646 113.967 289.066 113.967C287.485 113.967 286.204 115.233 286.204 116.795C286.204 118.357 287.485 119.623 289.066 119.623Z" fill="#162948"></path><path d="M272.852 116.795C272.852 118.357 271.571 119.623 269.99 119.623C268.41 119.623 267.129 118.357 267.129 116.795C267.129 115.233 268.41 113.967 269.99 113.967C271.571 113.967 272.852 115.233 272.852 116.795Z" fill="#162948"></path><path d="M250.915 119.623C252.495 119.623 253.777 118.357 253.777 116.795C253.777 115.233 252.495 113.967 250.915 113.967C249.335 113.967 248.054 115.233 248.054 116.795C248.054 118.357 249.335 119.623 250.915 119.623Z" fill="#162948"></path><path d="M234.701 116.795C234.701 118.357 233.42 119.623 231.84 119.623C230.26 119.623 228.979 118.357 228.979 116.795C228.979 115.233 230.26 113.967 231.84 113.967C233.42 113.967 234.701 115.233 234.701 116.795Z" fill="#162948"></path><path d="M212.765 119.623C214.345 119.623 215.626 118.357 215.626 116.795C215.626 115.233 214.345 113.967 212.765 113.967C211.185 113.967 209.904 115.233 209.904 116.795C209.904 118.357 211.185 119.623 212.765 119.623Z" fill="#162948"></path><path d="M196.551 116.795C196.551 118.357 195.27 119.623 193.69 119.623C192.11 119.623 190.829 118.357 190.829 116.795C190.829 115.233 192.11 113.967 193.69 113.967C195.27 113.967 196.551 115.233 196.551 116.795Z" fill="#162948"></path><path d="M174.615 119.623C176.195 119.623 177.476 118.357 177.476 116.795C177.476 115.233 176.195 113.967 174.615 113.967C173.034 113.967 171.753 115.233 171.753 116.795C171.753 118.357 173.034 119.623 174.615 119.623Z" fill="#162948"></path><path d="M158.401 116.795C158.401 118.357 157.12 119.623 155.54 119.623C153.959 119.623 152.678 118.357 152.678 116.795C152.678 115.233 153.959 113.967 155.54 113.967C157.12 113.967 158.401 115.233 158.401 116.795Z" fill="#162948"></path><path d="M136.464 119.623C138.045 119.623 139.326 118.357 139.326 116.795C139.326 115.233 138.045 113.967 136.464 113.967C134.884 113.967 133.603 115.233 133.603 116.795C133.603 118.357 134.884 119.623 136.464 119.623Z" fill="#162948"></path><path d="M120.251 116.795C120.251 118.357 118.969 119.623 117.389 119.623C115.809 119.623 114.528 118.357 114.528 116.795C114.528 115.233 115.809 113.967 117.389 113.967C118.969 113.967 120.251 115.233 120.251 116.795Z" fill="#162948"></path><path d="M98.3141 119.623C99.8943 119.623 101.175 118.357 101.175 116.795C101.175 115.233 99.8943 113.967 98.3141 113.967C96.7338 113.967 95.4528 115.233 95.4528 116.795C95.4528 118.357 96.7338 119.623 98.3141 119.623Z" fill="#162948"></path><path d="M82.1002 116.795C82.1002 118.357 80.8192 119.623 79.2389 119.623C77.6587 119.623 76.3777 118.357 76.3777 116.795C76.3777 115.233 77.6587 113.967 79.2389 113.967C80.8192 113.967 82.1002 115.233 82.1002 116.795Z" fill="#162948"></path><path d="M60.1638 119.623C61.744 119.623 63.0251 118.357 63.0251 116.795C63.0251 115.233 61.744 113.967 60.1638 113.967C58.5835 113.967 57.3025 115.233 57.3025 116.795C57.3025 118.357 58.5835 119.623 60.1638 119.623Z" fill="#162948"></path><path d="M43.9499 116.795C43.9499 118.357 42.6689 119.623 41.0887 119.623C39.5084 119.623 38.2274 118.357 38.2274 116.795C38.2274 115.233 39.5084 113.967 41.0887 113.967C42.6689 113.967 43.9499 115.233 43.9499 116.795Z" fill="#162948"></path><path d="M22.0135 119.623C23.5937 119.623 24.8748 118.357 24.8748 116.795C24.8748 115.233 23.5937 113.967 22.0135 113.967C20.4333 113.967 19.1522 115.233 19.1522 116.795C19.1522 118.357 20.4333 119.623 22.0135 119.623Z" fill="#162948"></path><path d="M311.002 97.9427C311.002 99.5045 309.721 100.771 308.141 100.771C306.56 100.771 305.279 99.5045 305.279 97.9427C305.279 96.381 306.56 95.1149 308.141 95.1149C309.721 95.1149 311.002 96.381 311.002 97.9427Z" fill="#162948"></path><path d="M289.066 100.771C290.646 100.771 291.927 99.5045 291.927 97.9427C291.927 96.3809 290.646 95.1149 289.066 95.1149C287.485 95.1149 286.204 96.3809 286.204 97.9427C286.204 99.5045 287.485 100.771 289.066 100.771Z" fill="#162948"></path><path d="M272.852 97.9427C272.852 99.5045 271.571 100.771 269.99 100.771C268.41 100.771 267.129 99.5045 267.129 97.9427C267.129 96.3809 268.41 95.1149 269.99 95.1149C271.571 95.1149 272.852 96.3809 272.852 97.9427Z" fill="#162948"></path><path d="M250.915 100.771C252.495 100.771 253.777 99.5045 253.777 97.9427C253.777 96.3809 252.495 95.1149 250.915 95.1149C249.335 95.1149 248.054 96.3809 248.054 97.9427C248.054 99.5045 249.335 100.771 250.915 100.771Z" fill="#162948"></path><path d="M234.701 97.9427C234.701 99.5045 233.42 100.771 231.84 100.771C230.26 100.771 228.979 99.5045 228.979 97.9427C228.979 96.3809 230.26 95.1149 231.84 95.1149C233.42 95.1149 234.701 96.3809 234.701 97.9427Z" fill="#162948"></path><path d="M212.765 100.771C214.345 100.771 215.626 99.5045 215.626 97.9427C215.626 96.3809 214.345 95.1149 212.765 95.1149C211.185 95.1149 209.904 96.3809 209.904 97.9427C209.904 99.5045 211.185 100.771 212.765 100.771Z" fill="#162948"></path><path d="M196.551 97.9427C196.551 99.5045 195.27 100.771 193.69 100.771C192.11 100.771 190.829 99.5045 190.829 97.9427C190.829 96.3809 192.11 95.1149 193.69 95.1149C195.27 95.1149 196.551 96.3809 196.551 97.9427Z" fill="#162948"></path><path d="M174.615 100.771C176.195 100.771 177.476 99.5045 177.476 97.9427C177.476 96.3809 176.195 95.1149 174.615 95.1149C173.034 95.1149 171.753 96.3809 171.753 97.9427C171.753 99.5045 173.034 100.771 174.615 100.771Z" fill="#162948"></path><path d="M158.401 97.9427C158.401 99.5045 157.12 100.771 155.54 100.771C153.959 100.771 152.678 99.5045 152.678 97.9427C152.678 96.3809 153.959 95.1149 155.54 95.1149C157.12 95.1149 158.401 96.3809 158.401 97.9427Z" fill="#162948"></path><path d="M136.464 100.771C138.045 100.771 139.326 99.5045 139.326 97.9427C139.326 96.3809 138.045 95.1149 136.464 95.1149C134.884 95.1149 133.603 96.3809 133.603 97.9427C133.603 99.5045 134.884 100.771 136.464 100.771Z" fill="#162948"></path><path d="M120.251 97.9427C120.251 99.5045 118.969 100.771 117.389 100.771C115.809 100.771 114.528 99.5045 114.528 97.9427C114.528 96.3809 115.809 95.1149 117.389 95.1149C118.969 95.1149 120.251 96.3809 120.251 97.9427Z" fill="#162948"></path><path d="M98.3141 100.771C99.8943 100.771 101.175 99.5045 101.175 97.9427C101.175 96.3809 99.8943 95.1148 98.3141 95.1148C96.7338 95.1148 95.4528 96.3809 95.4528 97.9427C95.4528 99.5045 96.7338 100.771 98.3141 100.771Z" fill="#162948"></path><path d="M82.1002 97.9427C82.1002 99.5045 80.8192 100.771 79.239 100.771C77.6587 100.771 76.3777 99.5045 76.3777 97.9427C76.3777 96.3809 77.6587 95.1148 79.239 95.1148C80.8192 95.1148 82.1002 96.3809 82.1002 97.9427Z" fill="#162948"></path><path d="M60.1638 100.771C61.744 100.771 63.0251 99.5045 63.0251 97.9427C63.0251 96.3809 61.744 95.1148 60.1638 95.1148C58.5835 95.1148 57.3025 96.3809 57.3025 97.9427C57.3025 99.5045 58.5835 100.771 60.1638 100.771Z" fill="#162948"></path><path d="M43.9499 97.9427C43.9499 99.5045 42.6689 100.771 41.0887 100.771C39.5084 100.771 38.2274 99.5045 38.2274 97.9427C38.2274 96.3809 39.5084 95.1148 41.0887 95.1148C42.6689 95.1148 43.9499 96.3809 43.9499 97.9427Z" fill="#162948"></path><path d="M22.0135 100.771C23.5937 100.771 24.8748 99.5045 24.8748 97.9427C24.8748 96.3809 23.5937 95.1148 22.0135 95.1148C20.4333 95.1148 19.1522 96.3809 19.1522 97.9427C19.1522 99.5045 20.4333 100.771 22.0135 100.771Z" fill="#162948"></path><path d="M234.701 79.0903C234.701 80.6521 233.42 81.9181 231.84 81.9181C230.26 81.9181 228.979 80.6521 228.979 79.0903C228.979 77.5285 230.26 76.2624 231.84 76.2624C233.42 76.2624 234.701 77.5285 234.701 79.0903Z" fill="#162948"></path><path d="M212.765 81.9181C214.345 81.9181 215.626 80.6521 215.626 79.0903C215.626 77.5285 214.345 76.2624 212.765 76.2624C211.185 76.2624 209.904 77.5285 209.904 79.0903C209.904 80.6521 211.185 81.9181 212.765 81.9181Z" fill="#162948"></path><path d="M196.551 79.0903C196.551 80.6521 195.27 81.9181 193.69 81.9181C192.11 81.9181 190.829 80.6521 190.829 79.0903C190.829 77.5285 192.11 76.2624 193.69 76.2624C195.27 76.2624 196.551 77.5285 196.551 79.0903Z" fill="#162948"></path><path d="M174.615 81.9181C176.195 81.9181 177.476 80.6521 177.476 79.0903C177.476 77.5285 176.195 76.2624 174.615 76.2624C173.034 76.2624 171.753 77.5285 171.753 79.0903C171.753 80.6521 173.034 81.9181 174.615 81.9181Z" fill="#162948"></path><path d="M158.401 79.0903C158.401 80.6521 157.12 81.9181 155.54 81.9181C153.959 81.9181 152.678 80.6521 152.678 79.0903C152.678 77.5285 153.959 76.2624 155.54 76.2624C157.12 76.2624 158.401 77.5285 158.401 79.0903Z" fill="#162948"></path><path d="M136.464 81.9181C138.045 81.9181 139.326 80.6521 139.326 79.0903C139.326 77.5285 138.045 76.2624 136.464 76.2624C134.884 76.2624 133.603 77.5285 133.603 79.0903C133.603 80.6521 134.884 81.9181 136.464 81.9181Z" fill="#162948"></path><path d="M120.251 79.0903C120.251 80.6521 118.969 81.9181 117.389 81.9181C115.809 81.9181 114.528 80.6521 114.528 79.0903C114.528 77.5285 115.809 76.2624 117.389 76.2624C118.969 76.2624 120.251 77.5285 120.251 79.0903Z" fill="#162948"></path><path d="M98.3141 81.9181C99.8943 81.9181 101.175 80.6521 101.175 79.0903C101.175 77.5285 99.8943 76.2624 98.3141 76.2624C96.7338 76.2624 95.4528 77.5285 95.4528 79.0903C95.4528 80.6521 96.7338 81.9181 98.3141 81.9181Z" fill="#162948"></path><path d="M82.1002 79.0903C82.1002 80.652 80.8192 81.9181 79.239 81.9181C77.6587 81.9181 76.3777 80.652 76.3777 79.0903C76.3777 77.5285 77.6587 76.2624 79.239 76.2624C80.8192 76.2624 82.1002 77.5285 82.1002 79.0903Z" fill="#162948"></path><path d="M60.1638 81.9181C61.744 81.9181 63.0251 80.652 63.0251 79.0903C63.0251 77.5285 61.744 76.2624 60.1638 76.2624C58.5835 76.2624 57.3025 77.5285 57.3025 79.0903C57.3025 80.652 58.5835 81.9181 60.1638 81.9181Z" fill="#162948"></path><path d="M43.9499 79.0903C43.9499 80.652 42.6689 81.9181 41.0887 81.9181C39.5084 81.9181 38.2274 80.652 38.2274 79.0903C38.2274 77.5285 39.5084 76.2624 41.0887 76.2624C42.6689 76.2624 43.9499 77.5285 43.9499 79.0903Z" fill="#162948"></path><path d="M234.701 60.2378C234.701 61.7996 233.42 63.0657 231.84 63.0657C230.26 63.0657 228.979 61.7996 228.979 60.2378C228.979 58.676 230.26 57.41 231.84 57.41C233.42 57.41 234.701 58.676 234.701 60.2378Z" fill="#162948"></path><path d="M212.765 63.0657C214.345 63.0657 215.626 61.7996 215.626 60.2378C215.626 58.676 214.345 57.4099 212.765 57.4099C211.185 57.4099 209.904 58.676 209.904 60.2378C209.904 61.7996 211.185 63.0657 212.765 63.0657Z" fill="#162948"></path><path d="M196.551 60.2378C196.551 61.7996 195.27 63.0657 193.69 63.0657C192.11 63.0657 190.829 61.7996 190.829 60.2378C190.829 58.676 192.11 57.4099 193.69 57.4099C195.27 57.4099 196.551 58.676 196.551 60.2378Z" fill="#162948"></path><path d="M174.615 63.0657C176.195 63.0657 177.476 61.7996 177.476 60.2378C177.476 58.676 176.195 57.4099 174.615 57.4099C173.034 57.4099 171.753 58.676 171.753 60.2378C171.753 61.7996 173.034 63.0657 174.615 63.0657Z" fill="#162948"></path><path d="M158.401 60.2378C158.401 61.7996 157.12 63.0657 155.54 63.0657C153.959 63.0657 152.678 61.7996 152.678 60.2378C152.678 58.676 153.959 57.4099 155.54 57.4099C157.12 57.4099 158.401 58.676 158.401 60.2378Z" fill="#162948"></path><path d="M136.464 63.0657C138.045 63.0657 139.326 61.7996 139.326 60.2378C139.326 58.676 138.045 57.4099 136.464 57.4099C134.884 57.4099 133.603 58.676 133.603 60.2378C133.603 61.7996 134.884 63.0657 136.464 63.0657Z" fill="#162948"></path><path d="M120.251 60.2378C120.251 61.7996 118.969 63.0657 117.389 63.0657C115.809 63.0657 114.528 61.7996 114.528 60.2378C114.528 58.676 115.809 57.4099 117.389 57.4099C118.969 57.4099 120.251 58.676 120.251 60.2378Z" fill="#162948"></path><path d="M98.3141 63.0657C99.8943 63.0657 101.175 61.7996 101.175 60.2378C101.175 58.676 99.8943 57.4099 98.3141 57.4099C96.7338 57.4099 95.4528 58.676 95.4528 60.2378C95.4528 61.7996 96.7338 63.0657 98.3141 63.0657Z" fill="#162948"></path><path d="M82.1002 60.2378C82.1002 61.7996 80.8192 63.0657 79.239 63.0657C77.6587 63.0657 76.3777 61.7996 76.3777 60.2378C76.3777 58.676 77.6587 57.4099 79.239 57.4099C80.8192 57.4099 82.1002 58.676 82.1002 60.2378Z" fill="#162948"></path><path d="M60.1638 63.0657C61.744 63.0657 63.0251 61.7996 63.0251 60.2378C63.0251 58.676 61.744 57.4099 60.1638 57.4099C58.5835 57.4099 57.3025 58.676 57.3025 60.2378C57.3025 61.7996 58.5835 63.0657 60.1638 63.0657Z" fill="#162948"></path><path d="M234.701 41.3854C234.701 42.9471 233.42 44.2132 231.84 44.2132C230.26 44.2132 228.979 42.9471 228.979 41.3854C228.979 39.8236 230.26 38.5575 231.84 38.5575C233.42 38.5575 234.701 39.8236 234.701 41.3854Z" fill="#162948"></path><path d="M212.765 44.2132C214.345 44.2132 215.626 42.9471 215.626 41.3854C215.626 39.8236 214.345 38.5575 212.765 38.5575C211.185 38.5575 209.904 39.8236 209.904 41.3854C209.904 42.9471 211.185 44.2132 212.765 44.2132Z" fill="#162948"></path><path d="M196.551 41.3854C196.551 42.9471 195.27 44.2132 193.69 44.2132C192.11 44.2132 190.829 42.9471 190.829 41.3854C190.829 39.8236 192.11 38.5575 193.69 38.5575C195.27 38.5575 196.551 39.8236 196.551 41.3854Z" fill="#162948"></path><path d="M174.615 44.2132C176.195 44.2132 177.476 42.9471 177.476 41.3853C177.476 39.8236 176.195 38.5575 174.615 38.5575C173.034 38.5575 171.753 39.8236 171.753 41.3853C171.753 42.9471 173.034 44.2132 174.615 44.2132Z" fill="#162948"></path><path d="M158.401 41.3853C158.401 42.9471 157.12 44.2132 155.54 44.2132C153.959 44.2132 152.678 42.9471 152.678 41.3853C152.678 39.8236 153.959 38.5575 155.54 38.5575C157.12 38.5575 158.401 39.8236 158.401 41.3853Z" fill="#162948"></path><path d="M136.464 44.2132C138.045 44.2132 139.326 42.9471 139.326 41.3853C139.326 39.8236 138.045 38.5575 136.464 38.5575C134.884 38.5575 133.603 39.8236 133.603 41.3853C133.603 42.9471 134.884 44.2132 136.464 44.2132Z" fill="#162948"></path><path d="M120.251 41.3853C120.251 42.9471 118.97 44.2132 117.389 44.2132C115.809 44.2132 114.528 42.9471 114.528 41.3853C114.528 39.8236 115.809 38.5575 117.389 38.5575C118.97 38.5575 120.251 39.8236 120.251 41.3853Z" fill="#162948"></path><path d="M98.3141 44.2132C99.8943 44.2132 101.175 42.9471 101.175 41.3853C101.175 39.8236 99.8943 38.5575 98.3141 38.5575C96.7338 38.5575 95.4528 39.8236 95.4528 41.3853C95.4528 42.9471 96.7338 44.2132 98.3141 44.2132Z" fill="#162948"></path><path d="M82.1002 41.3853C82.1002 42.9471 80.8192 44.2132 79.239 44.2132C77.6587 44.2132 76.3777 42.9471 76.3777 41.3853C76.3777 39.8236 77.6587 38.5575 79.239 38.5575C80.8192 38.5575 82.1002 39.8236 82.1002 41.3853Z" fill="#162948"></path><path d="M60.1638 44.2132C61.744 44.2132 63.0251 42.9471 63.0251 41.3853C63.0251 39.8236 61.744 38.5575 60.1638 38.5575C58.5835 38.5575 57.3025 39.8236 57.3025 41.3853C57.3025 42.9471 58.5835 44.2132 60.1638 44.2132Z" fill="#162948"></path><path d="M196.551 22.5329C196.551 24.0947 195.27 25.3608 193.69 25.3608C192.11 25.3608 190.829 24.0947 190.829 22.5329C190.829 20.9711 192.11 19.7051 193.69 19.7051C195.27 19.7051 196.551 20.9711 196.551 22.5329Z" fill="#162948"></path><path d="M174.615 25.3608C176.195 25.3608 177.476 24.0947 177.476 22.5329C177.476 20.9711 176.195 19.7051 174.615 19.7051C173.034 19.7051 171.753 20.9711 171.753 22.5329C171.753 24.0947 173.034 25.3608 174.615 25.3608Z" fill="#162948"></path><path d="M158.401 22.5329C158.401 24.0947 157.12 25.3608 155.54 25.3608C153.959 25.3608 152.678 24.0947 152.678 22.5329C152.678 20.9711 153.959 19.705 155.54 19.705C157.12 19.705 158.401 20.9711 158.401 22.5329Z" fill="#162948"></path><path d="M136.464 25.3608C138.045 25.3608 139.326 24.0947 139.326 22.5329C139.326 20.9711 138.045 19.705 136.464 19.705C134.884 19.705 133.603 20.9711 133.603 22.5329C133.603 24.0947 134.884 25.3608 136.464 25.3608Z" fill="#162948"></path><path d="M196.551 3.68046C196.551 5.24224 195.27 6.50834 193.69 6.50834C192.11 6.50834 190.829 5.24224 190.829 3.68046C190.829 2.11867 192.11 0.852574 193.69 0.852575C195.27 0.852575 196.551 2.11867 196.551 3.68046Z" fill="#162948"></path><path d="M174.615 6.50833C176.195 6.50833 177.476 5.24224 177.476 3.68045C177.476 2.11867 176.195 0.852573 174.615 0.852573C173.034 0.852573 171.753 2.11867 171.753 3.68045C171.753 5.24224 173.034 6.50833 174.615 6.50833Z" fill="#162948"></path><path d="M158.401 3.68045C158.401 5.24224 157.12 6.50833 155.54 6.50833C153.959 6.50833 152.678 5.24223 152.678 3.68045C152.678 2.11867 153.959 0.852571 155.54 0.852571C157.12 0.852571 158.401 2.11867 158.401 3.68045Z" fill="#162948"></path></g></svg> 